<svg width="601" height="356" viewBox="0 0 601 356" fill="none" xmlns="http://www.w3.org/2000/svg">
<path opacity="0.7" d="M159.707 109.324C159.707 109.324 137.818 165.852 168.578 222.772C199.339 279.693 262.697 309.762 313.407 335.474C364.117 361.187 416.774 348.664 441.795 306.551C466.817 264.438 432.5 234.376 432.452 174.323C432.405 114.271 441.442 98.3723 408.899 47.6387C376.357 -3.09484 296.582 -14.3297 236.254 23.3004C175.927 60.9306 159.707 109.324 159.707 109.324Z" fill="#DEE8FF"/>
<path d="M136.933 200.106C133.262 183.158 134.845 165.493 141.471 149.467C150.547 127.044 170.025 111.115 191.859 101.819C223.577 88.3076 254.762 88.0564 280.505 61.5826C288.459 53.4175 295.14 44.0669 303.273 36.0745C327.235 12.5213 362.306 15.3477 388.497 34.0489C443.132 73.0608 462.783 150.331 459.745 214.207C458.379 242.871 444.695 269.549 423.034 288.36C374.043 330.897 290.853 323.737 234.608 301.534C192.605 284.976 146.786 246.349 136.933 200.106Z" fill="#C5A508"/>
<path opacity="0.7" d="M136.933 200.106C133.262 183.158 134.845 165.493 141.471 149.467C150.547 127.044 170.025 111.115 191.859 101.819C223.577 88.3076 254.762 88.0564 280.505 61.5826C288.459 53.4175 295.14 44.0669 303.273 36.0745C327.235 12.5213 362.306 15.3477 388.497 34.0489C443.132 73.0608 462.783 150.331 459.745 214.207C458.379 242.871 444.695 269.549 423.034 288.36C374.043 330.897 290.853 323.737 234.608 301.534C192.605 284.976 146.786 246.349 136.933 200.106Z" fill="#DEE8FF"/>
<path d="M156.506 354.992H448.801" stroke="#254B76" stroke-width="0.785106" stroke-linecap="round" stroke-linejoin="round"/>
<path d="M375.148 313.035C375.148 313.035 386.964 313.969 387.459 322.684C387.443 322.684 375.494 328.195 375.148 313.035Z" stroke="#254B76" stroke-width="0.785106" stroke-linecap="round" stroke-linejoin="round"/>
<path d="M398.529 315.202C398.529 315.202 405.132 306.275 415.802 310.852C415.802 310.852 409.285 321.64 398.529 315.202Z" stroke="#254B76" stroke-width="0.785106" stroke-linecap="round" stroke-linejoin="round"/>
<path d="M414.921 287.018C414.921 287.018 416.821 304.188 401.19 299.462C401.158 299.462 406.12 286.837 414.921 287.018Z" stroke="#254B76" stroke-width="0.785106" stroke-linecap="round" stroke-linejoin="round"/>
<path d="M395.703 277.453C395.703 277.453 408.061 284.126 398.977 294.239C398.977 294.239 390.301 287.016 395.703 277.453Z" stroke="#254B76" stroke-width="0.785106" stroke-linecap="round" stroke-linejoin="round"/>
<path d="M380.486 292.805C380.486 292.805 393.927 291.447 393.927 303.891C393.927 303.891 380.486 304.425 380.486 292.805Z" stroke="#254B76" stroke-width="0.785106" stroke-linecap="round" stroke-linejoin="round"/>
<path d="M390.582 329.712C390.393 325.535 390.393 320.165 392.937 314.489C398.818 301.393 400.788 290.362 397.734 282.59" stroke="#254B76" stroke-width="0.785106" stroke-linecap="round" stroke-linejoin="round"/>
<path d="M384.908 296.148C384.908 296.148 392.963 299.352 395.703 307.65" stroke="#254B76" stroke-width="0.785106" stroke-linecap="round" stroke-linejoin="round"/>
<path d="M410.644 293.887C410.644 293.887 405.988 300.231 398.082 299.548" stroke="#254B76" stroke-width="0.785106" stroke-linecap="round" stroke-linejoin="round"/>
<path d="M410.643 312.676C410.643 312.676 397.752 316.389 392.625 315.172" stroke="#254B76" stroke-width="0.785106" stroke-linecap="round" stroke-linejoin="round"/>
<path d="M379.004 316.961C379.004 316.961 384.767 323.288 390.561 323.186" stroke="#254B76" stroke-width="0.785106" stroke-linecap="round" stroke-linejoin="round"/>
<path d="M405.895 329.711H377.874C377.693 329.711 377.52 329.783 377.391 329.911C377.263 330.039 377.191 330.213 377.191 330.394V332.521C377.193 332.701 377.266 332.873 377.394 332.999C377.522 333.126 377.695 333.197 377.874 333.197H378.66L381.164 354.991H402.558L405.055 333.197H405.84C406.02 333.197 406.192 333.126 406.32 332.999C406.448 332.873 406.521 332.701 406.523 332.521V330.394C406.524 330.222 406.459 330.056 406.343 329.929C406.226 329.803 406.066 329.725 405.895 329.711Z" stroke="#254B76" stroke-width="0.785106" stroke-miterlimit="10"/>
<path d="M380.486 333.199H396.785" stroke="#254B76" stroke-width="0.785106" stroke-linecap="round" stroke-linejoin="round"/>
<path d="M399.863 333.199H402.313" stroke="#254B76" stroke-width="0.785106" stroke-linecap="round" stroke-linejoin="round"/>
<path d="M254.862 341.921C251.848 338.482 242.426 347.205 242.426 347.205C245.26 339.267 252.578 335.185 254.47 327.86C256.362 320.535 250.929 317.002 248.801 325.183C246.674 333.363 240.628 342.926 240.628 342.926C244.452 329.76 245.559 307.793 240.832 307.793C237.135 307.793 237.064 312.849 238.116 321.822C239.168 330.796 236.852 343.766 236.852 343.766C236.852 343.766 234.85 329.281 232.204 326.494C229.558 323.707 225.138 324.562 230.092 335.758C233.107 342.588 234.018 350.047 234.238 355.001H241.413C243.383 351.159 246.538 348.053 250.411 346.145C252.264 345.25 256.558 343.852 254.862 341.921Z" stroke="#254B76" stroke-width="0.785106" stroke-linecap="round" stroke-linejoin="round"/>
<path d="M237.756 354.991C239.326 343.489 241.893 331.438 241.155 319.504" stroke="#254B76" stroke-width="0.785106" stroke-linecap="round" stroke-linejoin="round"/>
<path d="M232.613 335.184C235.29 341.237 236.319 348.436 236.829 354.992" stroke="#254B76" stroke-width="0.785106" stroke-linecap="round" stroke-linejoin="round"/>
<path d="M250.702 329.758C250.702 329.758 244.563 342.72 238.926 347.698" stroke="#254B76" stroke-width="0.785106" stroke-linecap="round" stroke-linejoin="round"/>
<path d="M250.702 343.727C250.702 343.727 240.323 350.895 237.771 354.993" stroke="#254B76" stroke-width="0.785106" stroke-linecap="round" stroke-linejoin="round"/>
<path d="M247.695 328.748C246.721 327.091 244.735 327.256 243.393 328.685" stroke="#254B76" stroke-width="0.785106" stroke-linecap="round" stroke-linejoin="round"/>
<path d="M232.997 344.991C232.997 344.991 227.407 336.143 225.287 327.962C223.168 319.781 217.727 323.33 219.619 330.647C221.511 337.964 228.828 342.055 231.662 349.992C231.662 349.992 222.241 341.269 219.226 344.708C217.531 346.64 221.825 348.037 223.686 348.924C226.593 350.289 229.099 352.379 230.964 354.993H241.17" stroke="#254B76" stroke-width="0.785106" stroke-linecap="round" stroke-linejoin="round"/>
<path d="M237.561 314.025C236.626 310.956 235.378 309.998 233.227 310.579C230.322 311.364 232.442 319.27 233.502 328.746" stroke="#254B76" stroke-width="0.785106" stroke-linecap="round" stroke-linejoin="round"/>
<path d="M278.229 54.7344V72.784L284.957 79.5673" stroke="#254B76" stroke-width="0.785106" stroke-linecap="round" stroke-linejoin="round"/>
<path d="M286.215 79.5686C286.217 79.8174 286.145 80.061 286.008 80.2686C285.87 80.4762 285.675 80.6384 285.445 80.7347C285.216 80.831 284.963 80.857 284.719 80.8094C284.475 80.7618 284.25 80.6428 284.074 80.4675C283.897 80.2921 283.777 80.0683 283.728 79.8244C283.679 79.5805 283.703 79.3275 283.798 79.0975C283.893 78.8676 284.054 78.6709 284.261 78.5325C284.467 78.3941 284.71 78.3203 284.959 78.3203C285.291 78.3203 285.609 78.4515 285.845 78.6854C286.08 78.9193 286.213 79.2368 286.215 79.5686Z" fill="white" stroke="#254B76" stroke-width="0.785106" stroke-linecap="round" stroke-linejoin="round"/>
<path d="M299.529 1.19922H257.613C254.187 1.19922 251.41 3.97611 251.41 7.40156V49.3184C251.41 52.7439 254.187 55.5208 257.613 55.5208H299.529C302.955 55.5208 305.732 52.7439 305.732 49.3184V7.40156C305.732 3.97611 302.955 1.19922 299.529 1.19922Z" fill="white" stroke="#254B76" stroke-width="0.785106" stroke-linecap="round" stroke-linejoin="round"/>
<path d="M438.742 53.2539H396.825C393.4 53.2539 390.623 56.0308 390.623 59.4562V101.373C390.623 104.799 393.4 107.576 396.825 107.576H438.742C442.168 107.576 444.945 104.799 444.945 101.373V59.4562C444.945 56.0308 442.168 53.2539 438.742 53.2539Z" fill="white" stroke="#254B76" stroke-width="0.785106" stroke-linecap="round" stroke-linejoin="round"/>
<path d="M390.626 80.4102H340.771L324.904 96.3479" stroke="#254B76" stroke-width="0.785106" stroke-linecap="round" stroke-linejoin="round"/>
<path d="M326.151 96.346C326.151 96.5929 326.078 96.8342 325.941 97.0395C325.803 97.2448 325.608 97.4048 325.38 97.4993C325.152 97.5938 324.901 97.6185 324.659 97.5703C324.417 97.5221 324.195 97.4033 324.02 97.2287C323.845 97.0541 323.726 96.8317 323.678 96.5895C323.63 96.3474 323.655 96.0964 323.749 95.8683C323.844 95.6402 324.004 95.4452 324.209 95.308C324.414 95.1709 324.656 95.0977 324.903 95.0977C325.067 95.0977 325.229 95.13 325.38 95.1927C325.532 95.2554 325.669 95.3474 325.785 95.4633C325.901 95.5792 325.993 95.7168 326.056 95.8683C326.119 96.0197 326.151 96.1821 326.151 96.346Z" fill="white" stroke="#254B76" stroke-width="0.785106" stroke-linecap="round" stroke-linejoin="round"/>
<path d="M458.953 200.176H417.036C413.611 200.176 410.834 202.953 410.834 206.378V248.295C410.834 251.72 413.611 254.497 417.036 254.497H458.953C462.379 254.497 465.155 251.72 465.155 248.295V206.378C465.155 202.953 462.379 200.176 458.953 200.176Z" fill="white" stroke="#254B76" stroke-width="0.785106" stroke-linecap="round" stroke-linejoin="round"/>
<path d="M410.832 227.34H381.399L336.781 182.723" stroke="#254B76" stroke-width="0.785106" stroke-linecap="round" stroke-linejoin="round"/>
<path d="M338.032 182.725C338.032 182.972 337.959 183.213 337.821 183.418C337.684 183.624 337.489 183.784 337.261 183.878C337.033 183.973 336.782 183.997 336.54 183.949C336.298 183.901 336.075 183.782 335.901 183.608C335.726 183.433 335.607 183.211 335.559 182.968C335.511 182.726 335.536 182.475 335.63 182.247C335.725 182.019 335.885 181.824 336.09 181.687C336.295 181.55 336.537 181.477 336.783 181.477C337.115 181.477 337.432 181.608 337.666 181.842C337.9 182.076 338.032 182.394 338.032 182.725Z" fill="white" stroke="#254B76" stroke-width="0.785106" stroke-linecap="round" stroke-linejoin="round"/>
<path d="M213.582 247.426H171.665C168.24 247.426 165.463 250.203 165.463 253.628V295.545C165.463 298.97 168.24 301.747 171.665 301.747H213.582C217.007 301.747 219.784 298.97 219.784 295.545V253.628C219.784 250.203 217.007 247.426 213.582 247.426Z" fill="white" stroke="#254B76" stroke-width="0.785106" stroke-linecap="round" stroke-linejoin="round"/>
<path d="M192.629 247.426V223.316L237.042 190.137" stroke="#254B76" stroke-width="0.785106" stroke-linecap="round" stroke-linejoin="round"/>
<path d="M238.274 190.12C238.276 190.369 238.203 190.612 238.066 190.82C237.929 191.027 237.733 191.19 237.504 191.286C237.275 191.382 237.022 191.408 236.778 191.361C236.533 191.313 236.309 191.194 236.132 191.019C235.956 190.843 235.836 190.619 235.786 190.376C235.737 190.132 235.762 189.879 235.857 189.649C235.951 189.419 236.112 189.222 236.319 189.084C236.526 188.945 236.769 188.871 237.018 188.871C237.35 188.871 237.668 189.003 237.903 189.237C238.139 189.47 238.272 189.788 238.274 190.12Z" fill="white" stroke="#254B76" stroke-width="0.785106" stroke-linecap="round" stroke-linejoin="round"/>
<path d="M196.217 93.7539H154.3C150.875 93.7539 148.098 96.5308 148.098 99.9563V141.873C148.098 145.298 150.875 148.075 154.3 148.075H196.217C199.642 148.075 202.419 145.298 202.419 141.873V99.9563C202.419 96.5308 199.642 93.7539 196.217 93.7539Z" fill="white" stroke="#254B76" stroke-width="0.785106" stroke-linecap="round" stroke-linejoin="round"/>
<path d="M202.42 120.922H260.824" stroke="#254B76" stroke-width="0.785106" stroke-linecap="round" stroke-linejoin="round"/>
<path d="M262.073 120.92C262.071 121.167 261.997 121.408 261.859 121.612C261.72 121.816 261.525 121.975 261.297 122.068C261.069 122.161 260.818 122.185 260.576 122.136C260.335 122.087 260.113 121.967 259.939 121.793C259.765 121.618 259.647 121.395 259.6 121.153C259.552 120.911 259.577 120.661 259.672 120.433C259.767 120.205 259.927 120.011 260.132 119.874C260.337 119.737 260.578 119.664 260.824 119.664C260.989 119.664 261.152 119.697 261.304 119.76C261.456 119.823 261.594 119.916 261.71 120.033C261.826 120.149 261.918 120.288 261.98 120.44C262.042 120.593 262.074 120.756 262.073 120.92Z" fill="white" stroke="#254B76" stroke-width="0.785106" stroke-linecap="round" stroke-linejoin="round"/>
<path d="M195.257 108.109H155.264C153.729 108.109 152.484 109.353 152.484 110.888V130.421C152.484 131.956 153.729 133.201 155.264 133.201H195.257C196.792 133.201 198.036 131.956 198.036 130.421V110.888C198.036 109.353 196.792 108.109 195.257 108.109Z" fill="#C5A508" stroke="#254B76" stroke-width="0.785106" stroke-linecap="round" stroke-linejoin="round"/>
<path d="M189.134 108.109H161.381V133.201H189.134V108.109Z" fill="white"/>
<path d="M161.381 124.448V121.77" stroke="#254B76" stroke-width="0.785106" stroke-linecap="round" stroke-linejoin="round"/>
<path d="M189.134 128.983V133.199H161.381V126.094" stroke="#254B76" stroke-width="0.785106" stroke-linecap="round" stroke-linejoin="round"/>
<path d="M189.135 114.867V120.653" stroke="#254B76" stroke-width="0.785106" stroke-linecap="round" stroke-linejoin="round"/>
<path d="M161.381 113.015V108.109H189.134V112.191" stroke="#254B76" stroke-width="0.785106" stroke-linecap="round" stroke-linejoin="round"/>
<path d="M195.189 126.165C195.189 126.5 195.089 126.828 194.903 127.107C194.716 127.386 194.452 127.603 194.142 127.732C193.832 127.86 193.491 127.894 193.162 127.828C192.833 127.763 192.531 127.601 192.294 127.364C192.056 127.127 191.895 126.825 191.829 126.496C191.764 126.167 191.798 125.826 191.926 125.516C192.054 125.206 192.272 124.941 192.551 124.755C192.829 124.569 193.157 124.469 193.493 124.469C193.942 124.469 194.374 124.648 194.692 124.966C195.01 125.284 195.189 125.715 195.189 126.165Z" fill="#254B76"/>
<path d="M194.309 114.293C194.309 114.461 194.259 114.625 194.166 114.764C194.073 114.904 193.941 115.012 193.786 115.077C193.631 115.141 193.46 115.158 193.296 115.125C193.131 115.092 192.98 115.011 192.862 114.893C192.743 114.774 192.662 114.623 192.63 114.459C192.597 114.294 192.614 114.124 192.678 113.969C192.742 113.814 192.851 113.681 192.99 113.588C193.13 113.495 193.293 113.445 193.461 113.445C193.573 113.445 193.683 113.467 193.786 113.51C193.889 113.552 193.982 113.615 194.061 113.694C194.14 113.772 194.202 113.866 194.245 113.969C194.287 114.072 194.309 114.182 194.309 114.293Z" fill="#254B76"/>
<path d="M194.309 117.688C194.309 117.856 194.259 118.02 194.166 118.159C194.073 118.298 193.941 118.407 193.786 118.471C193.631 118.535 193.46 118.552 193.296 118.52C193.131 118.487 192.98 118.406 192.862 118.287C192.743 118.169 192.662 118.018 192.63 117.853C192.597 117.689 192.614 117.518 192.678 117.363C192.742 117.209 192.851 117.076 192.99 116.983C193.13 116.89 193.293 116.84 193.461 116.84C193.686 116.84 193.902 116.929 194.061 117.088C194.22 117.247 194.309 117.463 194.309 117.688Z" fill="#254B76"/>
<path d="M195.19 116.837C194.965 116.837 194.749 116.747 194.59 116.588C194.431 116.429 194.342 116.214 194.342 115.989C194.342 115.764 194.431 115.548 194.59 115.389C194.749 115.23 194.965 115.141 195.19 115.141C195.415 115.141 195.63 115.23 195.789 115.389C195.948 115.548 196.038 115.764 196.038 115.989C196.038 116.214 195.948 116.429 195.789 116.588C195.63 116.747 195.415 116.837 195.19 116.837Z" fill="#254B76"/>
<path d="M191.795 116.837C191.57 116.837 191.355 116.747 191.196 116.588C191.037 116.429 190.947 116.214 190.947 115.989C190.947 115.764 191.037 115.548 191.196 115.389C191.355 115.23 191.57 115.141 191.795 115.141C192.02 115.141 192.236 115.23 192.395 115.389C192.554 115.548 192.643 115.764 192.643 115.989C192.643 116.214 192.554 116.429 192.395 116.588C192.236 116.747 192.02 116.837 191.795 116.837Z" fill="#254B76"/>
<path d="M157.026 116.837C157.962 116.837 158.722 116.078 158.722 115.141C158.722 114.205 157.962 113.445 157.026 113.445C156.089 113.445 155.33 114.205 155.33 115.141C155.33 116.078 156.089 116.837 157.026 116.837Z" fill="#254B76"/>
<path d="M156.178 127.012C156.178 126.787 156.267 126.571 156.426 126.412C156.585 126.253 156.801 126.164 157.026 126.164C157.251 126.164 157.466 126.253 157.625 126.412C157.784 126.571 157.874 126.787 157.874 127.012C157.874 127.237 157.784 127.453 157.625 127.612C157.466 127.771 157.251 127.86 157.026 127.86C156.801 127.86 156.585 127.771 156.426 127.612C156.267 127.453 156.178 127.237 156.178 127.012Z" fill="#254B76"/>
<path d="M156.178 123.621C156.178 123.396 156.267 123.181 156.426 123.022C156.585 122.863 156.801 122.773 157.026 122.773C157.251 122.773 157.466 122.863 157.625 123.022C157.784 123.181 157.874 123.396 157.874 123.621C157.874 123.846 157.784 124.062 157.625 124.221C157.466 124.38 157.251 124.469 157.026 124.469C156.801 124.469 156.585 124.38 156.426 124.221C156.267 124.062 156.178 123.846 156.178 123.621Z" fill="#254B76"/>
<path d="M155.33 124.469C155.498 124.469 155.662 124.519 155.801 124.612C155.941 124.705 156.05 124.838 156.114 124.993C156.178 125.147 156.195 125.318 156.162 125.482C156.129 125.647 156.048 125.798 155.93 125.917C155.811 126.035 155.66 126.116 155.496 126.149C155.331 126.181 155.161 126.165 155.006 126.1C154.851 126.036 154.718 125.928 154.625 125.788C154.532 125.649 154.482 125.485 154.482 125.317C154.482 125.092 154.572 124.876 154.731 124.717C154.89 124.558 155.105 124.469 155.33 124.469Z" fill="#254B76"/>
<path d="M158.719 124.469C158.887 124.469 159.051 124.519 159.19 124.612C159.33 124.705 159.438 124.838 159.502 124.993C159.567 125.147 159.583 125.318 159.551 125.482C159.518 125.647 159.437 125.798 159.319 125.917C159.2 126.035 159.049 126.116 158.884 126.149C158.72 126.181 158.549 126.165 158.395 126.1C158.24 126.036 158.107 125.928 158.014 125.788C157.921 125.649 157.871 125.485 157.871 125.317C157.871 125.092 157.96 124.876 158.119 124.717C158.278 124.558 158.494 124.469 158.719 124.469Z" fill="#254B76"/>
<path d="M187 110.352H163.51V130.961H187V110.352Z" fill="#254B76"/>
<path d="M412.426 73.9225C412.426 73.9225 409.098 68.207 404.434 68.2227C399.771 68.2384 400.328 79.9992 411.155 79.9992L412.426 73.9225Z" fill="#C5A508" stroke="#254B76" stroke-width="0.785106" stroke-linecap="round" stroke-linejoin="round"/>
<path d="M414.43 96.348C414.43 96.348 404.436 60.4922 416.652 60.4922C428.868 60.4922 421.316 95.7278 421.316 95.7278L414.43 96.348Z" fill="#C5A508" stroke="#254B76" stroke-width="0.785106" stroke-linecap="round" stroke-linejoin="round"/>
<path d="M421.99 80.0555C421.99 80.0555 429.983 71.8119 434.206 74.4813C438.43 77.1506 429.323 85.355 421.99 85.1352" fill="#C5A508"/>
<path d="M421.99 80.0555C421.99 80.0555 429.983 71.8119 434.206 74.4813C438.43 77.1506 429.323 85.355 421.99 85.1352" stroke="#254B76" stroke-width="0.785106" stroke-linecap="round" stroke-linejoin="round"/>
<path d="M414.076 80.9883C414.587 84.1049 414.886 87.2525 414.971 90.4095" stroke="#254B76" stroke-width="0.785106" stroke-linecap="round" stroke-linejoin="round"/>
<path d="M414.225 65.2109C413.001 69.584 413.189 74.114 413.754 78.5577" stroke="#254B76" stroke-width="0.785106" stroke-linecap="round" stroke-linejoin="round"/>
<path d="M416.652 60.4922C416.051 61.3505 415.526 62.2594 415.082 63.2087" stroke="#254B76" stroke-width="0.785106" stroke-linecap="round" stroke-linejoin="round"/>
<path d="M418.637 84.4688C418.77 87.4992 418.857 90.5375 418.88 93.5758" stroke="#254B76" stroke-width="0.785106" stroke-linecap="round" stroke-linejoin="round"/>
<path d="M417.76 71.082C417.76 74.8191 418.294 78.517 418.545 82.2384" stroke="#254B76" stroke-width="0.785106" stroke-linecap="round" stroke-linejoin="round"/>
<path d="M419.273 61.8477C417.609 63.5592 417.703 66.5583 417.75 68.7959" stroke="#254B76" stroke-width="0.785106" stroke-linecap="round" stroke-linejoin="round"/>
<path d="M427.486 78.3608C429.347 77.1753 432.699 74.6473 435.07 75.4402" stroke="#254B76" stroke-width="0.785106" stroke-linecap="round" stroke-linejoin="round"/>
<path d="M421.99 82.2393C423.176 81.3207 424.393 80.4416 425.625 79.5938" stroke="#254B76" stroke-width="0.785106" stroke-linecap="round" stroke-linejoin="round"/>
<path d="M404.777 73.1406C406.291 75.0412 408.298 76.4889 410.579 77.3252" stroke="#254B76" stroke-width="0.785106" stroke-linecap="round" stroke-linejoin="round"/>
<path d="M403.145 68.6094C403.142 69.5326 403.329 70.4465 403.694 71.2944" stroke="#254B76" stroke-width="0.785106" stroke-linecap="round" stroke-linejoin="round"/>
<path d="M428.522 101.819H407.646L406.076 92.7188H430.093L428.522 101.819Z" fill="#254B76"/>
<path d="M283.112 11.7051C283.112 11.7051 283.504 9.64033 286.252 9.95438C289 10.2684 288.654 14.1468 285.467 14.8455C282.279 15.5443 281.227 15.2616 280.882 16.4629C280.798 16.7013 280.797 16.9608 280.878 17.2C280.96 17.4392 281.119 17.6443 281.33 17.7826C281.542 17.9208 281.793 17.9843 282.045 17.9628C282.297 17.9413 282.534 17.8361 282.719 17.6641" stroke="#254B76" stroke-width="0.785106" stroke-linecap="round" stroke-linejoin="round"/>
<path d="M273.198 11.7051C273.198 11.7051 272.805 9.64033 270.057 9.95438C267.309 10.2684 267.647 14.1468 270.842 14.8455C274.038 15.5443 275.082 15.2616 275.419 16.4629C275.494 16.6973 275.49 16.9497 275.409 17.1818C275.327 17.4139 275.172 17.613 274.967 17.7489C274.761 17.8847 274.518 17.95 274.272 17.9347C274.026 17.9194 273.793 17.8244 273.606 17.6641" stroke="#254B76" stroke-width="0.785106" stroke-linecap="round" stroke-linejoin="round"/>
<path d="M280.75 15.828C283.639 13.8966 283.411 9.5 283.411 9.5H272.899C272.899 9.5 272.671 13.8966 275.56 15.828C278.449 17.7594 277.688 22.5092 275.56 23.4591H280.75C278.622 22.4935 277.853 17.7515 280.75 15.828Z" fill="#C5A508" stroke="#254B76" stroke-width="0.785106" stroke-linecap="round" stroke-linejoin="round"/>
<path d="M282.336 23.4414H273.975V26.6053H282.336V23.4414Z" fill="#757575" stroke="#254B76" stroke-width="0.785106" stroke-linecap="round" stroke-linejoin="round"/>
<path d="M285.468 26.6055H270.842V48.5257H285.468V26.6055Z" fill="#C5A508" stroke="#254B76" stroke-width="0.785106" stroke-linecap="round" stroke-linejoin="round"/>
<path d="M300.097 33.8984H285.471V48.5249H300.097V33.8984Z" fill="#C5A508" stroke="#254B76" stroke-width="0.785106" stroke-linecap="round" stroke-linejoin="round"/>
<path d="M270.832 38.9023H256.205V48.5277H270.832V38.9023Z" fill="#C5A508" stroke="#254B76" stroke-width="0.785106" stroke-linecap="round" stroke-linejoin="round"/>
<path d="M277.027 34.7379C277.251 34.7677 277.478 34.7102 277.661 34.5772C277.844 34.4441 277.968 34.2458 278.009 34.0234H278.613V39.6997H277.718V35.3738H277.027V34.7379Z" fill="#254B76"/>
<path d="M292.221 39.2461C291.939 39.2461 291.758 39.4031 291.758 39.8114V40.4159H290.918V39.8663C290.918 38.9556 291.373 38.4375 292.245 38.4375C293.116 38.4375 293.572 38.9556 293.572 39.8663C293.552 40.2959 293.444 40.7169 293.255 41.1031C293.066 41.4894 292.8 41.8327 292.473 42.1118C291.947 42.677 291.797 42.944 291.797 43.2502C291.793 43.2893 291.793 43.3288 291.797 43.3679H293.485V44.153H290.91V43.4543C290.922 43.1066 291.007 42.7653 291.16 42.4528C291.313 42.1403 291.53 41.8636 291.797 41.6407C292.064 41.4265 292.281 41.1568 292.433 40.8504C292.584 40.544 292.668 40.2082 292.677 39.8663C292.684 39.3796 292.504 39.2461 292.221 39.2461Z" fill="#254B76"/>
<path d="M263.696 42.1676C263.696 41.6573 263.516 41.5238 263.233 41.5238C262.95 41.5238 262.77 41.673 262.77 42.0812V42.4502H261.93V42.1362C261.916 41.9528 261.94 41.7685 262 41.5949C262.061 41.4212 262.156 41.2619 262.281 41.127C262.406 40.9921 262.558 40.8844 262.726 40.8108C262.895 40.7372 263.077 40.6992 263.26 40.6992C263.444 40.6992 263.626 40.7372 263.795 40.8108C263.963 40.8844 264.115 40.9921 264.24 41.127C264.365 41.2619 264.46 41.4212 264.521 41.5949C264.581 41.7685 264.605 41.9528 264.591 42.1362V42.2853C264.627 42.5209 264.584 42.7616 264.471 42.9712C264.358 43.1808 264.18 43.3478 263.963 43.4473C264.179 43.5539 264.356 43.7258 264.469 43.9386C264.581 44.1514 264.624 44.3943 264.591 44.6328V45.0725C264.591 45.9832 264.136 46.5014 263.257 46.5014C262.377 46.5014 261.93 45.9832 261.93 45.0725V44.6014H262.77V45.1353C262.77 45.5357 262.95 45.6927 263.233 45.6927C263.516 45.6927 263.696 45.5514 263.696 45.0489V44.6014C263.696 44.0754 263.516 43.887 263.115 43.887H262.809V43.1018H263.162C263.492 43.1018 263.696 42.9605 263.696 42.5052V42.1676Z" fill="#254B76"/>
<path d="M214.84 258.785H170.309V293.777H214.84V258.785Z" stroke="#254B76" stroke-width="0.785106" stroke-linecap="round" stroke-linejoin="round"/>
<path d="M212.219 291.162V261.406H172.924V291.162H212.219Z" fill="#C5A508"/>
<path opacity="0.5" d="M212.216 275.248V269.721L200.88 286.451L193.154 281.827L207.372 261.406H202.882L196.671 270.223L190.822 267.247V261.406H186.999V268.912L194.654 273.096L189.88 279.864L172.922 269.721V273.52L188.122 282.369L181.927 291.162H186.653L191.435 284.292L203.227 291.162H208.754L203.588 288.068L212.216 275.248Z" fill="white"/>
<path d="M212.219 291.162V261.406H172.924V291.162H212.219Z" stroke="#254B76" stroke-width="0.785106" stroke-linecap="round" stroke-linejoin="round"/>
<path d="M209.13 254.004C208.378 253.251 207.485 252.654 206.503 252.246C205.52 251.839 204.467 251.629 203.403 251.629C202.339 251.629 201.285 251.839 200.303 252.246C199.32 252.654 198.427 253.251 197.675 254.004C196.923 254.756 196.325 255.648 195.918 256.631C195.51 257.614 195.301 258.667 195.301 259.731C195.301 260.795 195.51 261.848 195.918 262.831C196.325 263.814 196.923 264.707 197.675 265.458L203.407 271.182L209.13 265.458C209.883 264.707 210.48 263.814 210.887 262.831C211.295 261.848 211.505 260.795 211.505 259.731C211.505 258.667 211.295 257.614 210.887 256.631C210.48 255.648 209.883 254.756 209.13 254.004ZM205.762 262.083C205.296 262.55 204.701 262.869 204.054 262.999C203.406 263.129 202.735 263.063 202.124 262.811C201.514 262.559 200.992 262.131 200.625 261.582C200.258 261.033 200.062 260.388 200.062 259.727C200.062 259.067 200.258 258.421 200.625 257.872C200.992 257.323 201.514 256.896 202.124 256.643C202.735 256.391 203.406 256.326 204.054 256.455C204.701 256.585 205.296 256.904 205.762 257.372C206.071 257.681 206.317 258.048 206.485 258.452C206.652 258.856 206.738 259.29 206.738 259.727C206.738 260.165 206.652 260.598 206.485 261.002C206.317 261.406 206.071 261.773 205.762 262.083Z" fill="#254B76"/>
<path d="M438.271 210.469C427.17 219.544 427.17 234.265 438.271 243.341C449.365 234.265 449.365 219.544 438.271 210.469Z" fill="#C5A508" stroke="#254B76" stroke-width="0.785106" stroke-linecap="round" stroke-linejoin="round"/>
<path d="M438.273 243.343V214.789" stroke="#254B76" stroke-width="0.785106" stroke-linecap="round" stroke-linejoin="round"/>
<path d="M441.564 219.223L438.274 222.512L434.977 219.223" stroke="#254B76" stroke-width="0.785106" stroke-linecap="round" stroke-linejoin="round"/>
<path d="M441.564 225.691L438.274 228.988L434.977 225.691" stroke="#254B76" stroke-width="0.785106" stroke-linecap="round" stroke-linejoin="round"/>
<path d="M441.564 232.172L438.274 235.462L434.977 232.172" stroke="#254B76" stroke-width="0.785106" stroke-linecap="round" stroke-linejoin="round"/>
<path d="M457.447 215.693C457.447 212.968 455.877 209.977 453.906 209.977C451.935 209.977 450.357 212.968 450.357 215.693C450.357 217.962 451.472 219.312 452.972 219.705V242.41C452.96 242.539 452.975 242.67 453.016 242.793C453.058 242.916 453.124 243.029 453.212 243.125C453.3 243.221 453.406 243.298 453.525 243.35C453.644 243.403 453.772 243.43 453.902 243.43C454.032 243.43 454.161 243.403 454.279 243.35C454.398 243.298 454.505 243.221 454.592 243.125C454.68 243.029 454.747 242.916 454.788 242.793C454.829 242.67 454.844 242.539 454.833 242.41V219.705C456.34 219.312 457.447 217.962 457.447 215.693Z" stroke="#254B76" stroke-width="0.785106" stroke-linecap="round" stroke-linejoin="round"/>
<path d="M425.607 210.597C425.593 210.428 425.516 210.27 425.391 210.155C425.266 210.04 425.102 209.977 424.932 209.977H424.445V214.908H423.283V210.652C423.265 210.485 423.186 210.33 423.061 210.217C422.935 210.105 422.773 210.042 422.604 210.042C422.436 210.042 422.273 210.105 422.148 210.217C422.022 210.33 421.943 210.485 421.925 210.652V214.908H420.755V209.977H420.276C420.106 209.977 419.942 210.04 419.817 210.155C419.692 210.27 419.615 210.428 419.601 210.597L419.099 216.47C419.069 216.82 419.113 217.172 419.227 217.505C419.34 217.837 419.522 218.143 419.759 218.402C419.997 218.66 420.285 218.867 420.607 219.009C420.928 219.151 421.275 219.225 421.627 219.226H421.674V242.41C421.662 242.539 421.677 242.67 421.719 242.793C421.76 242.916 421.826 243.029 421.914 243.125C422.002 243.221 422.108 243.298 422.227 243.35C422.346 243.403 422.474 243.43 422.604 243.43C422.734 243.43 422.863 243.403 422.981 243.35C423.1 243.298 423.207 243.221 423.294 243.125C423.382 243.029 423.449 242.916 423.49 242.793C423.531 242.67 423.546 242.539 423.535 242.41V219.226C423.886 219.225 424.233 219.151 424.555 219.009C424.876 218.867 425.165 218.66 425.402 218.402C425.64 218.143 425.821 217.837 425.935 217.505C426.048 217.172 426.092 216.82 426.063 216.47L425.607 210.597Z" stroke="#254B76" stroke-width="0.785106" stroke-linecap="round" stroke-linejoin="round"/>
<path d="M322.352 335.945L321.566 338.245C322.755 340.212 324.088 342.088 325.555 343.858C325.555 343.858 326.34 343.599 327.635 344.738C328.425 345.531 328.914 346.575 329.017 347.69C329.017 347.69 335.007 354.889 342.623 354.991C350.238 355.093 347.938 351.262 347.938 351.262L322.352 335.945Z" fill="#C5A508" stroke="#254B76" stroke-width="0.785106" stroke-linecap="round" stroke-linejoin="round"/>
<path d="M329.505 317.643C329.505 317.643 339.711 313.883 341.713 321.404C341.713 321.404 339.892 329.686 340.983 334.208C342.074 338.731 347.562 347.39 347.908 349.039C348.567 352.25 348.065 352.47 348.065 352.47C348.065 352.47 344.068 354.779 338.706 352.306C333.344 349.833 324.04 339.195 322.588 337.004C321.135 334.814 327.141 326.146 327.141 326.146L329.505 317.643Z" fill="white"/>
<path opacity="0.4" d="M329.505 317.643C329.505 317.643 339.711 313.883 341.713 321.404C341.713 321.404 339.892 329.686 340.983 334.208C342.074 338.731 347.562 347.39 347.908 349.039C348.567 352.25 348.065 352.47 348.065 352.47C348.065 352.47 344.068 354.779 338.706 352.306C333.344 349.833 324.04 339.195 322.588 337.004C321.135 334.814 327.141 326.146 327.141 326.146L329.505 317.643Z" fill="#C5A508"/>
<path d="M329.505 317.643C329.505 317.643 339.711 313.883 341.713 321.404C341.713 321.404 339.892 329.686 340.983 334.208C342.074 338.731 347.562 347.39 347.908 349.039C348.567 352.25 348.065 352.47 348.065 352.47C348.065 352.47 344.068 354.779 338.706 352.306C333.344 349.833 324.04 339.195 322.588 337.004C321.135 334.814 327.141 326.146 327.141 326.146L329.505 317.643Z" stroke="#254B76" stroke-width="0.785106" stroke-linecap="round" stroke-linejoin="round"/>
<path d="M327.142 326.148C327.142 326.148 327.416 336.881 329.497 339.063C331.577 341.246 333.14 339.063 333.14 339.063C333.14 339.063 332.959 342.337 329.709 341.678C326.458 341.018 326.325 333.246 326.16 327.656L327.142 326.148Z" fill="#C5A508" stroke="#254B76" stroke-width="0.785106" stroke-linecap="round" stroke-linejoin="round"/>
<path d="M334.723 328.301C333.835 333.371 334.74 338.592 337.282 343.068" stroke="#254B76" stroke-width="0.785106" stroke-linecap="round" stroke-linejoin="round"/>
<path d="M337.283 345.005C337.663 345.961 338.252 346.82 339.007 347.518C339.763 348.217 340.665 348.737 341.648 349.04C343.706 349.591 345.872 349.591 347.929 349.04L345.48 344.07C342.881 345.111 340.05 345.434 337.283 345.005Z" fill="#C5A508" stroke="#254B76" stroke-width="0.785106" stroke-linecap="round" stroke-linejoin="round"/>
<path d="M335.84 342.015C335.84 342.015 341.179 342.329 343.966 341.23" stroke="#254B76" stroke-width="0.785106" stroke-linecap="round" stroke-linejoin="round"/>
<path d="M334.842 339.062C334.842 339.062 339.827 339.847 342.614 338.277" stroke="#254B76" stroke-width="0.785106" stroke-linecap="round" stroke-linejoin="round"/>
<path d="M334.004 335.796C334.004 335.796 338.377 336.432 341.227 335.074" stroke="#254B76" stroke-width="0.785106" stroke-linecap="round" stroke-linejoin="round"/>
<path d="M333.516 332.082C333.516 332.082 338.375 333.613 340.684 332.082" stroke="#254B76" stroke-width="0.785106" stroke-linecap="round" stroke-linejoin="round"/>
<path d="M332.783 322.928L331.936 328.298C331.936 328.298 338.366 332.546 342.621 327.246V321.664C342.621 321.664 341.027 325.401 332.783 322.928Z" fill="#C5A508" stroke="#254B76" stroke-width="0.785106" stroke-linecap="round" stroke-linejoin="round"/>
<path d="M291.12 187.889C291.12 187.889 281.698 215.313 285.867 233.285C290.036 251.256 291.363 258.627 291.12 268.394C290.876 278.161 301.083 328.934 301.083 328.934H310.394C310.394 328.934 309.012 284.968 309.075 274.314C309.138 263.66 307.151 266.573 309.601 256.256C312.051 245.94 310.229 235.545 313.621 224.365C313.621 224.365 331.922 255.84 335.235 260.394C335.235 260.394 331.553 274.219 331.969 285.973C332.448 299.735 331.231 320.454 331.231 320.454C331.231 320.454 333.311 324.342 339.003 322.811C339.003 322.811 353.873 261.486 353.041 258.432C352.209 255.378 346.415 222.206 330.501 200.184C330.501 200.184 327.784 190.811 325.915 184.812L291.12 187.889Z" fill="white" stroke="#254B76" stroke-width="0.785106" stroke-linecap="round" stroke-linejoin="round"/>
<path d="M291.119 187.89C291.119 187.89 278.439 206.105 284.791 235.672C284.791 235.672 286.125 237.242 287.837 232.304C287.837 232.304 290.553 241.78 312.842 235.672L314.122 228.888L318.911 235.672C318.911 235.672 328.435 221.124 342.064 218.643C342.064 218.643 335.987 205.979 330.468 198.489L325.883 184.789L291.119 187.89Z" fill="#254B76"/>
<path d="M314.477 226.903C314.477 226.903 314.477 225.678 315.945 222.059C317.35 218.558 321.331 210.667 325.06 210.047" stroke="white" stroke-width="0.785106" stroke-linecap="round" stroke-linejoin="round"/>
<path d="M317.813 212.434C317.813 212.434 314.083 220.819 307.041 223.504" stroke="white" stroke-width="0.785106" stroke-linecap="round" stroke-linejoin="round"/>
<path d="M313.155 234.008L312.857 235.656C290.568 241.764 287.852 232.296 287.852 232.296C286.164 237.226 284.79 235.656 284.79 235.656C284.75 235.476 284.711 235.287 284.68 235.107C286.376 232.877 286.909 228.881 286.909 228.881C286.124 203.255 290.631 194.422 290.631 194.422H293.12C289.547 200.499 289.39 228.881 289.39 228.881C289.39 228.881 290.175 233.536 298.553 235.397C303.561 236.528 309.834 235.02 313.155 234.008Z" fill="#C5A508"/>
<path d="M342.074 218.645C328.437 221.134 318.921 235.658 318.921 235.658L318.293 234.779C320.24 231.159 327.903 218.236 339.24 216.776C339.639 216.103 339.906 215.359 340.025 214.586C341.297 217.02 342.074 218.645 342.074 218.645Z" fill="#C5A508"/>
<path opacity="0.2" d="M319.594 215.359C319.594 215.359 321.337 223.367 322.185 231.47C321.01 232.8 319.919 234.203 318.919 235.67L314.381 229.248C314.852 225.723 316.147 219.34 319.594 215.359Z" fill="black"/>
<path opacity="0.2" d="M330.995 199.204C325.248 201.661 311.234 208.02 303.941 214.592C296.647 221.163 289.291 225.662 283.245 225.183C281.4 201.857 291.096 187.898 291.096 187.898L325.861 184.758L330.454 198.458L330.995 199.204Z" fill="black"/>
<path d="M291.119 187.89C291.119 187.89 278.439 206.105 284.791 235.672C284.791 235.672 286.125 237.242 287.837 232.304C287.837 232.304 290.553 241.78 312.842 235.672L314.122 228.888L318.911 235.672C318.911 235.672 328.435 221.124 342.064 218.643C342.064 218.643 335.987 205.979 330.468 198.489L325.883 184.789L291.119 187.89Z" stroke="#254B76" stroke-width="0.785106" stroke-miterlimit="10"/>
<path d="M298.725 327.813C298.725 327.813 303.074 324.712 312.072 325.332C312.072 325.332 312.723 336.127 313.948 339.268C315.173 342.408 321.626 347.849 322.828 348.783C324.029 349.717 324.029 352.975 324.029 352.975H296.691C297.037 348.303 297.762 343.666 298.858 339.111L298.725 327.813Z" fill="white"/>
<path opacity="0.4" d="M298.727 327.813C298.727 327.813 303.076 324.712 312.074 325.332C312.074 325.332 312.725 336.127 313.95 339.267C315.175 342.408 321.628 347.849 322.83 348.783C324.031 349.717 324.031 352.975 324.031 352.975H296.693C297.039 348.303 297.764 343.666 298.86 339.11L298.727 327.813Z" fill="#C5A508"/>
<path d="M298.725 327.813C298.725 327.813 303.074 324.712 312.072 325.332C312.072 325.332 312.723 336.127 313.948 339.268C315.173 342.408 321.626 347.849 322.828 348.783C324.029 349.717 324.029 352.975 324.029 352.975H296.691C297.037 348.303 297.762 343.666 298.858 339.111L298.725 327.813Z" stroke="#254B76" stroke-width="0.785106" stroke-linecap="round" stroke-linejoin="round"/>
<path d="M298.86 339.109C298.86 339.109 301.553 344.534 303.421 345.257C305.29 345.979 305.486 343.498 305.486 343.498C305.486 343.498 306.004 347.125 304.662 347.636C303.319 348.146 299.88 344.817 298.381 341.104L298.86 339.109Z" fill="#C5A508" stroke="#254B76" stroke-width="0.785106" stroke-linecap="round" stroke-linejoin="round"/>
<path d="M304.348 329.211C304.348 329.211 304.999 339.151 306.538 341.773C307.364 343.214 308.384 344.535 309.569 345.699" stroke="#254B76" stroke-width="0.785106" stroke-linecap="round" stroke-linejoin="round"/>
<path d="M310.355 347.07C310.355 347.07 311.729 348.782 313.253 349.01C314.776 349.237 322.823 348.782 322.823 348.782L319.541 345.94C319.541 345.94 312.86 344.786 310.355 347.07Z" fill="#C5A508" stroke="#254B76" stroke-width="0.785106" stroke-linecap="round" stroke-linejoin="round"/>
<path d="M307.48 344.738C307.48 344.738 313.314 341.393 317.459 343.952" stroke="#254B76" stroke-width="0.785106" stroke-linecap="round" stroke-linejoin="round"/>
<path d="M306.074 342.471C306.074 342.471 310.141 339.291 314.946 341.034" stroke="#254B76" stroke-width="0.785106" stroke-linecap="round" stroke-linejoin="round"/>
<path d="M304.348 338.998C304.348 338.998 308.729 335.598 313.345 337.765" stroke="#254B76" stroke-width="0.785106" stroke-linecap="round" stroke-linejoin="round"/>
<path d="M303.76 334.682C303.76 334.682 309.067 331.825 312.93 333.992" stroke="#254B76" stroke-width="0.785106" stroke-linecap="round" stroke-linejoin="round"/>
<path d="M296.691 352.973V354.991H299.832C300.639 354.551 301.543 354.321 302.462 354.321C303.381 354.321 304.285 354.551 305.092 354.991H319.844C321.4 354.985 322.935 354.64 324.343 353.978L324.037 352.973H296.691Z" fill="#C5A508" stroke="#254B76" stroke-width="0.785106" stroke-linecap="round" stroke-linejoin="round"/>
<path d="M300.604 327.191L301.302 331.595C301.302 331.595 309.506 328.934 314.036 330.661V325.244C314.036 325.244 305.597 322.276 300.604 327.191Z" fill="#C5A508" stroke="#254B76" stroke-width="0.785106" stroke-linecap="round" stroke-linejoin="round"/>
<path d="M276.634 135.162C272.827 132.021 236.28 169.746 237.057 172.847C237.834 175.948 255.696 210.893 258.648 212.447C261.6 214.002 273.054 217.425 273.949 213.688L262.699 207.65C262.699 207.65 258.687 200.106 255.013 186.979C252.924 179.41 250.569 173.145 250.569 173.145C250.569 173.145 267.339 156.281 272.308 154.695C274.811 153.857 277.362 153.17 279.947 152.638C279.947 152.638 281.738 139.385 276.634 135.162Z" fill="white" stroke="#254B76" stroke-width="0.785106" stroke-linecap="round" stroke-linejoin="round"/>
<path d="M322.004 129.447C328.913 127.005 334.903 134.205 342.205 138.947C348.76 143.202 354.185 146.539 354.185 146.539C347.402 138.075 347.583 127.892 339.19 111.9L344.544 109.215C344.544 109.215 359.328 129.675 365.593 143.924C367.532 148.274 368.43 153.016 368.215 157.774C368.215 157.774 365.617 161.84 358.574 160.003C347.402 157.106 334.966 148.635 328.74 147.253L322.004 129.447Z" fill="white" stroke="#254B76" stroke-width="0.785106" stroke-linecap="round" stroke-linejoin="round"/>
<path d="M322.005 129.189C322.005 129.189 331.293 142.536 332.313 147.678C333.334 152.82 325.883 169.441 328.678 188.386C328.678 188.386 333.734 198.247 330.468 198.49C330.468 198.49 324.973 197.312 319.1 201.764C309.278 209.183 294.275 219.884 282.985 219.884C282.985 219.884 278.526 218.314 279.845 215.535C280.769 213.605 281.818 211.738 282.985 209.945C282.985 209.945 285.764 172.362 282.985 164.597C282.012 161.881 279.915 152.632 279.915 152.632C279.484 139.544 276.477 134.347 276.477 134.347C276.477 134.347 284.218 132.353 300.689 132.321C300.713 132.321 319.037 128.639 322.005 129.189Z" fill="#C5A508"/>
<path opacity="0.2" d="M316.258 180.927C316.258 180.927 313.494 196.174 303.131 203.837C292.768 211.499 284.987 212.599 284.288 215.362C284.119 216.2 284.233 217.071 284.613 217.837C284.992 218.603 285.615 219.221 286.385 219.594C285.264 219.781 284.129 219.879 282.993 219.884C282.993 219.884 278.534 218.314 279.853 215.535C280.78 213.607 281.829 211.74 282.993 209.945C282.993 209.945 285.78 172.37 282.993 164.605C282.019 161.881 279.931 152.64 279.931 152.64C279.852 149.947 279.626 147.261 279.256 144.593C280.573 143.935 281.989 143.497 283.448 143.297C283.448 143.297 290.514 152.326 290.695 160.483C290.875 168.64 309.325 165.539 312.521 163.051C315.716 160.562 318.904 164.291 318.904 164.291C318.904 164.291 309.31 177.355 298.334 182.003C287.358 186.651 289.235 200.728 295.39 199.275C301.545 197.823 312.921 186.305 316.258 180.927Z" fill="black"/>
<path d="M322.005 129.189C322.005 129.189 331.293 142.536 332.313 147.678C333.334 152.82 325.883 169.441 328.678 188.386C328.678 188.386 333.734 198.247 330.468 198.49C330.468 198.49 324.973 197.312 319.1 201.764C309.278 209.183 294.275 219.884 282.985 219.884C282.985 219.884 278.526 218.314 279.845 215.535C280.769 213.605 281.818 211.738 282.985 209.945C282.985 209.945 285.764 172.362 282.985 164.597C282.012 161.881 279.915 152.632 279.915 152.632C279.484 139.544 276.477 134.347 276.477 134.347C276.477 134.347 284.218 132.353 300.689 132.321C300.713 132.321 319.037 128.639 322.005 129.189Z" stroke="#254B76" stroke-width="0.785106" stroke-linecap="round" stroke-linejoin="round"/>
<path d="M319.143 129.391C319.143 129.391 318.719 126.706 322.864 127.036C327.01 127.365 330.716 136.755 330.653 143.311C330.613 143.287 323.194 131.613 319.143 129.391Z" fill="#C5A508"/>
<path opacity="0.4" d="M319.139 129.391C319.139 129.391 318.715 126.706 322.861 127.036C327.006 127.365 330.712 136.755 330.649 143.311C330.61 143.287 323.19 131.613 319.139 129.391Z" fill="white"/>
<path d="M319.143 129.391C319.143 129.391 318.719 126.706 322.864 127.036C327.01 127.365 330.716 136.755 330.653 143.311C330.613 143.287 323.194 131.613 319.143 129.391Z" stroke="#254B76" stroke-width="0.785106" stroke-linecap="round" stroke-linejoin="round"/>
<path d="M279.947 152.631C279.947 152.631 281.957 151.343 283.009 147.308C284.791 140.478 280.826 133.561 280.826 133.561C278.942 130.844 273.705 132.391 274.946 135.131C276.186 137.871 279.327 140.242 279.947 152.631Z" fill="#C5A508"/>
<path opacity="0.4" d="M279.951 152.631C279.951 152.631 281.961 151.343 283.013 147.308C284.795 140.478 280.83 133.561 280.83 133.561C278.946 130.844 273.709 132.391 274.95 135.131C276.19 137.871 279.331 140.242 279.951 152.631Z" fill="white"/>
<path d="M279.947 152.631C279.947 152.631 281.957 151.343 283.009 147.308C284.791 140.478 280.826 133.561 280.826 133.561C278.942 130.844 273.705 132.391 274.946 135.131C276.186 137.871 279.327 140.242 279.947 152.631Z" stroke="#254B76" stroke-width="0.785106" stroke-linecap="round" stroke-linejoin="round"/>
<path d="M325.068 165.121C319.925 175.987 313.33 186.727 304.576 195.128C301.811 197.839 298.733 200.211 295.406 202.194" stroke="#254B76" stroke-width="0.785106" stroke-linecap="round" stroke-linejoin="round"/>
<path d="M327.127 160.48C326.781 161.344 326.404 162.199 326.027 163.047" stroke="#254B76" stroke-width="0.785106" stroke-linecap="round" stroke-linejoin="round"/>
<path d="M292.84 166.668C298.877 168.866 305.606 168.615 311.117 165.098" stroke="#254B76" stroke-width="0.785106" stroke-linecap="round" stroke-linejoin="round"/>
<path d="M288.15 164.289C288.954 164.877 289.817 165.38 290.726 165.788" stroke="#254B76" stroke-width="0.785106" stroke-linecap="round" stroke-linejoin="round"/>
<path d="M313.01 140.477C313.01 140.477 312.225 148.964 299.389 148.328" stroke="#254B76" stroke-width="0.785106" stroke-linecap="round" stroke-linejoin="round"/>
<path d="M280.255 135.949C280.255 135.949 277.939 139.442 278.732 143.321" stroke="#254B76" stroke-width="0.785106" stroke-linecap="round" stroke-linejoin="round"/>
<path d="M323.396 131.238C323.396 131.238 326.537 129.212 329.096 134.842" stroke="#254B76" stroke-width="0.785106" stroke-linecap="round" stroke-linejoin="round"/>
<path d="M273.95 213.672C283.87 213.672 291.913 205.63 291.913 195.709C291.913 185.788 283.87 177.746 273.95 177.746C264.029 177.746 255.986 185.788 255.986 195.709C255.986 205.63 264.029 213.672 273.95 213.672Z" fill="#C5A508" stroke="#254B76" stroke-width="0.785106" stroke-linecap="round" stroke-linejoin="round"/>
<path opacity="0.4" d="M279.947 203.445C285.617 198.627 286.307 190.124 281.489 184.455C276.67 178.785 268.168 178.095 262.498 182.913C256.829 187.732 256.139 196.234 260.957 201.904C265.775 207.573 274.278 208.263 279.947 203.445Z" fill="white"/>
<path d="M256.959 189.867C256.959 189.867 263.303 204.658 276.5 206.213C289.698 207.767 291.496 199.555 291.496 199.555" stroke="#254B76" stroke-width="0.785106" stroke-linecap="round" stroke-linejoin="round"/>
<path d="M280.253 178.887C286.094 182.475 288.104 216.258 267.385 212.435" stroke="#254B76" stroke-width="0.785106" stroke-linecap="round" stroke-linejoin="round"/>
<path d="M265.753 179.719C266.224 182.726 267.499 185.55 269.443 187.892C273.69 192.862 275.645 200.454 272.787 205.4C270.589 209.231 265.949 210.213 260.807 207.975" stroke="#254B76" stroke-width="0.785106" stroke-linecap="round" stroke-linejoin="round"/>
<path d="M291.244 190.852C291.911 198.138 289.061 198.381 286.117 205.235C285.442 206.756 285.048 208.387 284.955 210.048" stroke="#254B76" stroke-width="0.785106" stroke-linecap="round" stroke-linejoin="round"/>
<path d="M306.005 143.892C296.953 144.614 288.262 133.952 288.262 133.952C288.262 133.952 293.169 133.748 293.757 131.503C295.736 124.437 290.853 115.078 290.853 115.078C290.853 115.078 312.498 117.434 308.305 122.042C307.528 122.882 306.87 123.825 306.351 124.845C304.78 127.985 305.487 130.482 306.139 131.126C306.184 131.17 306.234 131.209 306.288 131.244C307.552 131.95 313.016 131.495 313.016 131.495C313.016 131.495 314.264 143.232 306.005 143.892Z" fill="white" stroke="#254B76" stroke-width="0.785106" stroke-linecap="round" stroke-linejoin="round"/>
<path d="M291.113 136.938C294.29 138.303 297.721 138.98 301.178 138.924L303.785 140.493" stroke="#254B76" stroke-width="0.785106" stroke-linecap="round" stroke-linejoin="round"/>
<path d="M306.508 140.48L306.853 138.705C306.853 138.705 311.415 137.677 313.008 135.141" stroke="#254B76" stroke-width="0.785106" stroke-linecap="round" stroke-linejoin="round"/>
<path d="M306.17 131.134C299.387 132.327 296.953 123.558 296.953 123.558C296.953 123.558 302.402 122.403 306.374 124.845C304.804 127.97 305.519 130.451 306.17 131.134Z" fill="#254B76"/>
<path d="M295.288 91.6036C295.288 91.6036 297 87.1049 287.06 85.5504C277.121 83.9959 270.133 94.9717 274.946 105.021C279.759 115.071 273.376 123.134 277.435 126.863C281.494 130.592 284.312 127.483 284.312 127.483C284.312 127.483 283.527 128.158 281.007 124.712C278.487 121.265 285.043 121.108 285.506 108.531C285.969 95.953 291.983 99.3683 291.983 99.3683L295.288 91.6036Z" fill="#254B76"/>
<path d="M295.406 90.8528C295.406 90.8528 295.453 89 290.695 89C285.937 89 283.166 96.2465 287.405 99.1436C291.645 102.041 295.406 90.8528 295.406 90.8528Z" fill="#C5A508" stroke="#254B76" stroke-width="0.785106" stroke-linecap="round" stroke-linejoin="round"/>
<path d="M313.307 92.4535C315.418 94.0743 317.053 96.2344 318.039 98.7062C319.026 101.178 319.328 103.87 318.913 106.499C317.499 115.677 312.027 123.913 301.177 122.822C290.327 121.73 282.24 114.358 284.792 101.553C288.262 84.1314 313.307 86.6516 313.307 92.4535Z" fill="#254B76"/>
<path d="M306.398 92.6401C321.19 94.8227 314.053 116.609 312.522 122.019C311.957 124.021 305.731 129.87 302.944 129.352C300.769 128.936 293.02 122.403 292.628 119.695C291.576 112.488 289.762 90.1906 306.398 92.6401Z" fill="white" stroke="#254B76" stroke-width="0.785106" stroke-linecap="round" stroke-linejoin="round"/>
<path d="M308.432 108.531C308.432 109.551 307.584 112.456 309.586 114.505C310.881 115.824 307.584 116.413 307.584 116.413" stroke="#254B76" stroke-width="0.785106" stroke-linecap="round" stroke-linejoin="round"/>
<path d="M309.098 105.541C309.098 105.541 312.238 103.885 314.122 106.499" stroke="#254B76" stroke-width="0.785106" stroke-linecap="round" stroke-linejoin="round"/>
<path d="M304.004 106.852C304.004 106.852 300.919 103.578 298.352 104.174" stroke="#254B76" stroke-width="0.785106" stroke-linecap="round" stroke-linejoin="round"/>
<path d="M311.9 110.943C311.782 111.54 311.335 111.964 310.903 111.885C310.471 111.807 310.212 111.241 310.322 110.637C310.432 110.032 310.887 109.616 311.319 109.703C311.751 109.789 312.018 110.338 311.9 110.943Z" fill="#254B76"/>
<path d="M302.301 110.237C301.373 109.873 300.386 109.684 299.389 109.68" stroke="#254B76" stroke-width="0.785106" stroke-linecap="round" stroke-linejoin="round"/>
<path d="M301.529 117.379C302.988 118.858 304.832 119.9 306.852 120.386" stroke="#254B76" stroke-width="0.785106" stroke-linecap="round" stroke-linejoin="round"/>
<path d="M302.427 118.188C302.427 118.188 302.348 120.408 303.761 121.123C305.174 121.837 306.509 120.338 306.509 120.338" stroke="#254B76" stroke-width="0.785106" stroke-linecap="round" stroke-linejoin="round"/>
<path d="M317.16 97.8293C317.16 97.8293 317.427 99.2582 307.928 101.873C298.734 104.393 293.592 105.901 292.28 112.252C292.28 112.252 288.975 107.416 289.093 102.148C289.211 96.8794 294.589 89.8291 305.981 90.9754C317.372 92.1216 317.16 97.8293 317.16 97.8293Z" fill="#254B76"/>
<path d="M293.154 110.259C293.382 109.058 290.579 105.737 289.378 107.621C287.345 110.848 288.389 113.902 290.124 115.181C290.909 115.762 291.851 116.815 292.652 115.967" fill="white"/>
<path d="M293.154 110.259C293.382 109.058 290.579 105.737 289.378 107.621C287.345 110.848 288.389 113.902 290.124 115.181C290.909 115.762 291.851 116.815 292.652 115.967" stroke="#254B76" stroke-width="0.785106" stroke-linecap="round" stroke-linejoin="round"/>
<path opacity="0.2" d="M311.116 90.8516C311.116 90.8516 315.042 93.8742 309.884 97.5956C304.725 101.317 288.262 104.096 288.262 104.096" stroke="white" stroke-width="0.785106" stroke-linecap="round" stroke-linejoin="round"/>
<path opacity="0.2" d="M307.581 93.4492C302.031 96.7947 295.53 98.2108 289.092 97.4768" stroke="white" stroke-width="0.785106" stroke-linecap="round" stroke-linejoin="round"/>
<path opacity="0.2" d="M284.399 90.2378C284.399 90.2378 278.518 89.3742 276.501 94.3046C274.483 99.2351 278.636 106.866 279.405 112.252C280.175 117.638 278.565 119.663 278.565 119.663" stroke="white" stroke-width="0.785106" stroke-linecap="round" stroke-linejoin="round"/>
<path d="M341.515 116.321C341.515 116.321 339.654 116.454 336.804 114.751C333.955 113.047 327.721 112.482 327.721 112.482C327.721 112.482 327.674 110.598 330.013 110.739C332.046 110.774 334.079 110.671 336.098 110.433C336.098 110.433 335.171 103.893 335.815 103.123C336.459 102.354 344.114 101.6 345.182 102.55C346.249 103.5 350.764 115.018 346.351 115.756" fill="white"/>
<path d="M341.515 116.321C341.515 116.321 339.654 116.454 336.804 114.751C333.955 113.047 327.721 112.482 327.721 112.482C327.721 112.482 327.674 110.598 330.013 110.739C332.046 110.774 334.079 110.671 336.098 110.433C336.098 110.433 335.171 103.893 335.815 103.123C336.459 102.354 344.114 101.6 345.182 102.55C346.249 103.5 350.764 115.018 346.351 115.756" stroke="#254B76" stroke-width="0.785106" stroke-linecap="round" stroke-linejoin="round"/>
<path d="M335.792 103.129C335.007 103.129 334.496 108.625 334.653 108.531C334.81 108.437 336.357 109.826 337.009 109.96C337.47 110.005 337.933 109.906 338.336 109.677C340.263 109.784 342.195 109.784 344.122 109.677C344.907 109.465 345.401 108.107 344.773 106.851" fill="white"/>
<path d="M335.792 103.129C335.007 103.129 334.496 108.625 334.653 108.531C334.81 108.437 336.357 109.826 337.009 109.96C337.47 110.005 337.933 109.906 338.336 109.677C340.263 109.784 342.195 109.784 344.122 109.677C344.907 109.465 345.401 108.107 344.773 106.851" stroke="#254B76" stroke-width="0.785106" stroke-linecap="round" stroke-linejoin="round"/>
<path d="M344.679 104.496C344.802 105.631 344.56 106.775 343.988 107.762" stroke="#254B76" stroke-width="0.785106" stroke-linecap="round" stroke-linejoin="round"/>
<path d="M338.304 109.678C338.304 109.678 336.514 107.747 336.592 107.056C336.772 106.189 337.005 105.334 337.291 104.496" stroke="#254B76" stroke-width="0.785106" stroke-linecap="round" stroke-linejoin="round"/>
<path d="M340.339 109.68C340.339 109.68 339.02 107.819 339.091 107.089C339.161 106.359 339.711 104.098 339.711 104.098" stroke="#254B76" stroke-width="0.785106" stroke-linecap="round" stroke-linejoin="round"/>
<path d="M342.695 109.764C342.114 108.926 341.86 107.904 341.98 106.891C342.16 106.076 342.399 105.276 342.695 104.496" stroke="#254B76" stroke-width="0.785106" stroke-linecap="round" stroke-linejoin="round"/>
<path d="M336.076 110.438C336.833 110.323 337.606 110.376 338.34 110.593C339.074 110.81 339.751 111.186 340.324 111.695" stroke="#254B76" stroke-width="0.785106" stroke-linecap="round" stroke-linejoin="round"/>
</svg>
