<svg width="4000" height="2667" viewBox="0 0 4000 2667" fill="none" xmlns="http://www.w3.org/2000/svg">
<mask id="mask0_1_520" style="mask-type:luminance" maskUnits="userSpaceOnUse" x="0" y="0" width="4000" height="2667">
<path d="M4000 0H0V2666.67H4000V0Z" fill="white"/>
</mask>
<g mask="url(#mask0_1_520)">
<path d="M4000 2631.22H0V-0.00687408H4000V2631.22Z" fill="white"/>
<path d="M1501.73 2323.45C1475.17 2310.9 1445.73 2300.76 1414.19 2293.81C1383.77 2287.11 1353.85 2283.94 1325.35 2283.94C1305.19 2283.94 1285.73 2285.54 1267.33 2288.59C1238.64 2243.29 1188.73 2213.06 1131.66 2212.52C1131.13 2212.52 1130.62 2212.5 1130.1 2212.5C1077.62 2212.5 1030.83 2237.71 1000.96 2276.91C949.931 2231.58 861.811 2201.15 761.328 2200.19C759.708 2200.18 758.103 2200.16 756.491 2200.16C668.726 2200.16 590.299 2222.83 538.125 2258.64C503.843 2213.85 444.856 2183.97 377.544 2183.34C376.815 2183.32 376.091 2183.32 375.362 2183.32C327.973 2183.32 284.557 2197.92 250.925 2222.12C219.66 2121.04 124.149 2039.28 0 2005.32V1472.58C13.4104 1471.75 26.9782 1471.33 40.6515 1471.33C66.3698 1471.33 92.5355 1472.83 118.951 1475.92C302.245 1497.36 454.535 1590.27 534.206 1713.18C572.628 1772.45 637.998 1808.94 708.876 1808.94C711.499 1808.94 714.142 1808.89 716.78 1808.78C720.623 1808.64 724.486 1808.56 728.368 1808.56C740.174 1808.56 752.15 1809.26 764.233 1810.66C817.004 1816.84 864.483 1835.99 902.726 1863.83C938.398 1889.79 981.504 1902.95 1025.21 1902.95C1041.19 1902.95 1057.25 1901.19 1073.05 1897.65C1112.08 1888.92 1154.88 1884.22 1199.92 1884.22C1225.34 1884.22 1251.48 1885.71 1278.06 1888.82C1361.85 1898.63 1437.56 1923.02 1497.75 1956.46C1530.01 1974.38 1566.17 1983.92 1602.39 1983.92C1626.08 1983.92 1649.77 1979.82 1672.41 1971.34C1696.43 1962.33 1722.23 1957.43 1748.89 1957.43C1756.99 1957.43 1765.15 1957.89 1773.37 1958.81L1746.89 2068.58H1845.8L1872.35 1995.67C1884.47 2003.99 1895.68 2013.51 1905.84 2024.03C1909.77 2028.11 1913.88 2031.99 1918.12 2035.69C1920.01 2035.45 1921.91 2035.17 1923.79 2034.96C1962.49 2030.62 1997.19 2010.35 2022.33 1980.98C2024.99 1977.88 2027.73 1974.85 2030.56 1971.91C2028.89 2004.1 2026.91 2035.86 2024.81 2066.49H2115.39C2126.59 2014.39 2135.91 1962.41 2143.24 1910.48C2146.64 1909.82 2150.05 1909.24 2153.51 1908.74C2163.77 1907.27 2173.97 1906.55 2184.05 1906.55C2213.04 1906.55 2241.07 1912.48 2266.8 1923.33C2284.88 1930.96 2303.96 1934.63 2323 1934.63C2352.41 1934.63 2381.73 1925.87 2407.05 1909.35C2467.17 1870.12 2546.6 1840.37 2636.02 1827.49C2667.66 1822.92 2698.72 1820.76 2728.74 1820.76C2774.21 1820.76 2817.2 1825.77 2856.02 1835.11C2867.9 1837.96 2879.95 1839.38 2891.93 1839.38C2927.48 1839.37 2962.28 1826.94 2989.57 1803.22C3027.9 1769.89 3078.21 1746.16 3135.31 1737.93C3149.77 1735.85 3164.05 1734.85 3178.11 1734.85C3186.53 1734.85 3194.85 1735.2 3203.04 1735.91C3207.21 1736.27 3211.34 1736.44 3215.46 1736.44C3269.94 1736.44 3319.78 1705.73 3345.45 1657.42C3415.51 1525.59 3567.9 1421.69 3756.07 1394.59C3787.63 1390.05 3818.8 1387.85 3849.4 1387.85C3901.89 1387.85 3952.54 1394.31 4000 1406.42V1858.87C3870.6 1896.75 3773.28 1985.83 3746.18 2092.27C3714.18 2071.59 3674.33 2059.42 3631.31 2059.42C3626.82 2059.42 3622.31 2059.55 3617.77 2059.83C3550.55 2063.8 3493.18 2096.57 3461.2 2143.02C3412.47 2113.02 3342.82 2094.82 3265.15 2094.82C3255.34 2094.82 3245.37 2095.13 3235.31 2095.72C3135.02 2101.65 3048.54 2136.42 2999.9 2184.22C2969.72 2148.51 2924.98 2126.12 2875.73 2126.12C2872.54 2126.12 2869.33 2126.21 2866.09 2126.41C2809.1 2129.78 2760.81 2162.45 2734.45 2209.11C2721.72 2207.64 2708.49 2206.89 2694.94 2206.89C2660.93 2206.89 2624.71 2211.61 2588.05 2221.62C2514.99 2241.57 2454.31 2278.53 2415.85 2321.83L2224.87 2164.79H1619.96L1501.73 2323.45Z" fill="#F5F7FD"/>
<path d="M4000 2631.22H2987.17L2816.42 2473.15L2461.87 2359.67L2415.85 2321.83C2454.31 2278.53 2514.99 2241.57 2588.05 2221.62C2624.71 2211.61 2660.93 2206.89 2694.95 2206.89C2708.49 2206.89 2721.72 2207.64 2734.45 2209.11C2760.81 2162.45 2809.11 2129.78 2866.09 2126.41C2869.33 2126.21 2872.54 2126.12 2875.73 2126.12C2924.98 2126.12 2969.72 2148.51 2999.9 2184.22C3048.54 2136.42 3135.02 2101.65 3235.31 2095.72C3245.38 2095.13 3255.34 2094.82 3265.15 2094.82C3342.82 2094.82 3412.47 2113.02 3461.2 2143.02C3493.18 2096.57 3550.55 2063.8 3617.77 2059.83C3622.31 2059.55 3626.82 2059.42 3631.31 2059.42C3674.33 2059.42 3714.18 2071.59 3746.18 2092.27C3773.28 1985.83 3870.6 1896.75 4000 1858.87V2631.22Z" fill="#FBE8EC"/>
<path d="M980.003 2631.22H0V2005.32C124.149 2039.28 219.66 2121.04 250.924 2222.12C284.557 2197.91 327.973 2183.32 375.362 2183.32C376.091 2183.32 376.815 2183.32 377.544 2183.34C444.856 2183.97 503.843 2213.85 538.126 2258.64C590.3 2222.83 668.727 2200.16 756.49 2200.16C758.104 2200.16 759.707 2200.18 761.327 2200.19C861.812 2201.15 949.931 2231.58 1000.96 2276.9C1030.83 2237.71 1077.62 2212.5 1130.1 2212.5C1130.62 2212.5 1131.14 2212.52 1131.66 2212.52C1188.73 2213.06 1238.64 2243.29 1267.33 2288.59C1285.73 2285.53 1305.19 2283.94 1325.36 2283.94C1353.85 2283.94 1383.77 2287.11 1414.19 2293.81C1445.73 2300.76 1475.17 2310.9 1501.73 2323.45L1486.87 2343.39L1199.34 2431.66L988.478 2614.5L980.003 2631.22Z" fill="#EF6957" fill-opacity="0.1"/>
<path d="M3338.68 1046.7C3338.68 1051.64 3337.71 1056.43 3335.95 1060.96H3180.92L3180.65 1060.64L3180.55 1060.96C3180.55 1060.96 3176.39 1060.96 3168.85 1061.06C3092.11 1061.48 2663.1 1063.85 2663.1 1060.12C2663.1 1016.96 2696.54 982.021 2737.78 982.021C2747.42 982.021 2756.64 983.917 2765.08 987.389C2772.92 980.76 2782.94 976.865 2793.78 976.865C2809.44 976.865 2823.37 985.075 2831.69 997.65C2831.79 997.441 2831.89 997.177 2832.02 996.967C2840 980.18 2855.57 966.024 2875.75 956.762C2891.91 949.29 2910.94 944.975 2931.42 944.975C2937.34 944.975 2943.16 945.343 2948.81 946.026C2970.52 904.241 3012.92 875.823 3061.67 875.823C3124.02 875.823 3176.06 922.346 3187.64 984.022C3194.62 979.497 3202.9 976.865 3211.74 976.865C3229.5 976.865 3244.91 987.336 3252.55 1002.76C3260.23 1000.02 3268.71 998.492 3277.66 998.492C3301.77 998.492 3322.58 1009.54 3332.49 1025.54C3336.44 1031.91 3338.68 1039.12 3338.68 1046.7Z" fill="#A50833" fill-opacity="0.22"/>
<path d="M3332.48 1025.55C3316.74 1021.4 3300.12 1020.66 3283.58 1020.66C3279.31 1020.66 3275.08 1020.7 3270.82 1020.76C3224.64 1021.28 3178.51 1021.81 3132.33 1022.34C3131.78 1022.34 3131.23 1022.34 3130.67 1022.34C3105.43 1022.35 3081.4 1015.82 3057.34 1009.3C3033.3 1002.78 3009.21 996.258 2983.8 996.258C2979.65 996.258 2975.44 996.434 2971.21 996.813C2944.12 999.286 2916.54 1010.18 2890.51 1011.71C2888.04 1011.85 2885.52 1011.92 2882.97 1011.92C2864.06 1011.93 2843.22 1007.82 2832 996.97C2840.01 980.182 2855.57 966.029 2875.73 956.766C2891.9 949.294 2910.93 944.979 2931.42 944.979C2937.33 944.979 2943.16 945.346 2948.8 946.03C2970.51 904.245 3012.91 875.828 3061.65 875.828C3124.01 875.828 3176.06 922.349 3187.63 984.025C3194.63 979.499 3202.88 976.868 3211.74 976.868C3229.5 976.868 3244.92 987.34 3252.55 1002.76C3260.21 1000.02 3268.7 998.498 3277.65 998.498C3301.76 998.498 3322.57 1009.55 3332.48 1025.55Z" fill="#FBE8EC"/>
<path d="M1330.77 1338.77C1330.77 1342.03 1330.13 1345.19 1328.96 1348.13H1227.2L1226.99 1347.92L1226.93 1348.13C1226.93 1348.13 887.199 1350.29 887.199 1347.56C887.199 1319.24 909.121 1296.3 936.214 1296.3C942.561 1296.3 948.587 1297.56 954.134 1299.82C959.307 1295.51 965.867 1292.93 972.961 1292.93C983.254 1292.93 992.374 1298.3 997.867 1306.56C1005.23 1290.56 1022.99 1278.2 1045.17 1273.83C1050.93 1272.62 1057.07 1271.99 1063.36 1271.99C1067.25 1271.99 1071.04 1272.2 1074.77 1272.67C1089.01 1245.25 1116.85 1226.57 1148.85 1226.57C1189.81 1226.57 1223.95 1257.15 1231.57 1297.61C1236.16 1294.61 1241.6 1292.93 1247.41 1292.93C1259.04 1292.93 1269.17 1299.82 1274.19 1309.93C1279.2 1308.14 1284.8 1307.09 1290.72 1307.09C1312.8 1307.09 1330.77 1321.3 1330.77 1338.77Z" fill="#EBC9D2"/>
<path d="M1328.96 1348.13H1269.97C1266.35 1342.56 1263.79 1336.24 1259.36 1331.24C1239.2 1308.51 1197.23 1326.72 1172.91 1308.4C1168.48 1305.09 1164.91 1300.72 1160.32 1297.67C1154.79 1294.05 1148.55 1292.72 1142.03 1292.72C1131.87 1292.72 1121.01 1295.92 1111.04 1298.61C1102.38 1300.96 1093.16 1302.75 1084.19 1302.75C1075.8 1302.75 1067.64 1301.18 1060.37 1297.04C1052.43 1292.51 1046.19 1283.14 1045.17 1273.83C1050.93 1272.62 1057.07 1271.99 1063.36 1271.99C1067.25 1271.99 1071.04 1272.2 1074.77 1272.67C1089.01 1245.25 1116.85 1226.57 1148.85 1226.57C1189.81 1226.57 1223.95 1257.15 1231.57 1297.61C1236.16 1294.62 1241.6 1292.93 1247.41 1292.93C1259.04 1292.93 1269.17 1299.82 1274.19 1309.93C1279.2 1308.14 1284.8 1307.09 1290.72 1307.09C1312.8 1307.09 1330.77 1321.3 1330.77 1338.77C1330.77 1342.03 1330.13 1345.19 1328.96 1348.13Z" fill="#FBE8EC"/>
<path d="M1650.36 603.17C1650.36 607.178 1148.81 603.969 1148.81 603.969L1148.75 603.699L1148.43 603.969H998.19C996.485 599.597 995.578 594.967 995.578 590.174C995.578 564.344 1022.03 543.442 1054.67 543.442C1063.37 543.442 1071.63 544.917 1079.05 547.544C1086.46 532.652 1101.39 522.499 1118.62 522.499C1127.15 522.499 1135.15 525.03 1141.93 529.39C1153.18 469.607 1203.63 424.567 1264.06 424.567C1264.49 424.567 1264.91 424.567 1265.34 424.621C1312.06 425.04 1352.59 452.454 1373.44 492.607C1378.89 491.931 1384.54 491.551 1390.3 491.551C1435.1 491.551 1473.23 512.874 1486.93 542.603C1495.04 530.446 1508.49 522.499 1523.69 522.499C1534.2 522.499 1543.9 526.289 1551.53 532.706C1559.69 529.335 1568.65 527.494 1577.98 527.494C1606.94 527.494 1631.9 545.283 1643.47 570.964C1647.9 580.698 1650.36 591.65 1650.36 603.17Z" fill="#EBC9D2"/>
<path d="M1541.22 580.324C1494.18 580.324 1446.57 576.29 1407.1 552.247C1390.46 542.148 1375.79 528.719 1357.87 521.098C1327.89 508.305 1289.38 511.73 1267.31 488.039C1253.01 472.729 1250.45 447.888 1261.39 430.045C1262.56 428.164 1263.84 426.309 1265.33 424.63C1312.05 425.05 1352.59 452.463 1373.44 492.629C1378.88 491.938 1384.53 491.573 1390.29 491.573C1435.09 491.573 1473.23 512.881 1486.93 542.609C1495.04 530.466 1508.47 522.519 1523.67 522.519C1534.18 522.519 1543.9 526.296 1551.53 532.726C1559.67 529.356 1568.63 527.514 1577.98 527.514C1606.93 527.514 1631.9 545.303 1643.46 570.983C1620.91 578.456 1595.52 579.403 1571.36 579.931C1561.4 580.134 1551.32 580.324 1541.22 580.324Z" fill="#FBE8EC"/>
<path d="M3257.31 3005.4L1245.02 3015.67L784.012 3018L988.477 2614.5L1199.34 2431.66L1486.87 2343.39L1619.96 2164.79H2224.86L2461.86 2359.67L2816.43 2473.15L3023.58 2664.94L3028.5 2672.13L3251.03 2996.32L3257.31 3005.4Z" fill="#C3C0C1"/>
<path d="M2987.16 2631.22H2248.53L2141.8 2485.26L2121.55 2345.47L1937.77 2299.69L1866.67 2164.79H2224.87L2461.86 2359.67L2816.44 2473.15L2987.16 2631.22Z" fill="#C4C0C1"/>
<path d="M1628.51 2463.19L1330.32 2635.51L1245.02 3015.67L784.01 3018L988.478 2614.5L1199.34 2431.66L1486.87 2343.39L1619.96 2164.79L1628.51 2463.19Z" fill="#9B9798" fill-opacity="0.94"/>
<path d="M2107.61 2097.95L2108.16 2048.89L2036.13 2053.92L2034.05 2094.45C2057.01 2099.16 2083.12 2100.36 2107.61 2097.95Z" fill="#F9B384"/>
<path d="M2185.57 2164.5C2166.03 2132.95 2139.32 2122.41 2107.45 2118.43L2107.61 2097.96C2083.12 2100.36 2057.01 2099.17 2034.05 2094.46L2030.47 2164.5H2185.57Z" fill="#EF6957"/>
<path d="M1750.08 2102.73L1743.49 2117.58C1711.61 2121.58 1683.08 2138.51 1656.89 2164.5H1808.03L1824.11 2102.91C1798.31 2107.24 1773.69 2106.93 1750.08 2102.73Z" fill="#EF6957"/>
<path d="M1824.11 2102.91L1836.89 2053.92L1773.21 2050.57L1750.08 2102.73C1773.69 2106.93 1798.31 2107.24 1824.11 2102.91Z" fill="#F9B384"/>
<path d="M2140.85 1335.94C2178.77 1579.46 2168.02 1821.86 2115.38 2066.49H2024.81C2035.63 1907.71 2043.89 1718.97 2018.58 1593.99L1845.79 2068.58H1746.89L1909.9 1392.92L1965.95 1284.56L2097.26 1268.93L2140.85 1335.94Z" fill="#EF6957"/>
<path d="M2261.41 816.529L2285.76 744.474L2351.65 759.666C2356.61 783.79 2327 820.395 2305 847.799L2261.41 816.529Z" fill="#F9B384"/>
<path d="M2039.24 1073.68L1963.36 1074.57L1955.83 976.513L1954.95 964.778L2031.16 964.107L2033.87 1001.3L2039.24 1073.68Z" fill="#F9B384"/>
<path d="M2033.44 994.55C2008.62 1012.05 1976.14 1001.15 1955.83 976.513L1954.95 964.778L2031.16 964.107L2033.44 994.55Z" fill="#EF6957"/>
<path d="M2015.73 986.341C1977.23 995.024 1934.24 970.659 1917.28 938.295L1914.99 880.197L1936.53 850.043L2028.21 857.832C2027.79 857.937 2027.84 859.2 2028.21 861.358C2029.28 866.988 2032.8 878.987 2036.05 893.459C2044.05 928.664 2050.45 978.5 2015.73 986.341Z" fill="#F9B384"/>
<path d="M1951.23 1036.58C1951.23 1036.58 2007.84 1081.26 2057.08 1017.59L2150.48 1323.65C2093.29 1363.53 2021 1377.3 1934.25 1366.11L1951.23 1036.58Z" fill="white"/>
<path d="M1999.97 1085.59C1986.87 1085.59 1973.85 1081.72 1963.36 1074.57C1971.2 1077.35 1979.21 1079.05 1987.21 1079.91C1990.25 1080.21 1993.29 1080.38 1996.32 1080.38C2001.28 1080.38 2006.21 1079.95 2011.05 1078.97C2018.8 1077.46 2026.48 1075.07 2033.52 1071.21C2037.23 1069.61 2040.45 1067.16 2043.97 1065.11C2047.45 1062.95 2050.48 1060.2 2054 1057.91C2051.4 1061.09 2048.69 1064.29 2045.72 1067.24C2042.51 1069.88 2039.49 1072.92 2035.76 1074.99C2028.76 1079.84 2020.48 1082.76 2012.08 1084.46C2008.08 1085.22 2004.03 1085.59 1999.97 1085.59Z" fill="#BBC4DB"/>
<path d="M2258.88 803.112C2207.67 888.449 2157.71 963.434 2112.56 999.154C2105.86 1004.46 2097.32 1006.83 2088.76 1006.4C2071.76 1005.53 2054.25 1007.57 2034.72 1012.14C2038.81 1165.25 2053.54 1307.08 2106.32 1394.03C2138.12 1384.98 2176.69 1370.43 2198.03 1352.7C2180.65 1294.52 2160.11 1211.11 2144.82 1138.23L2314.06 839.982L2258.88 803.112Z" fill="#EF6957"/>
<path d="M2036.06 893.459C1977.78 926.191 1929.34 866.554 1929.34 866.554L2028.22 861.358C2029.28 866.989 2032.8 878.987 2036.06 893.459Z" fill="#E28B6D"/>
<path d="M1930.28 927.112C1937.43 917.995 1940.69 902.668 1934.25 871.817C1955.48 895.511 1987.04 901.049 2033.31 880.75C2033.31 880.75 2063.4 869.133 2056.51 838.861C2050.28 811.496 2027.08 796.971 2008.96 819.324C1967.87 807.483 1927.45 805.352 1909.35 842.215C1909.35 842.215 1851.61 871.817 1900.85 919.85L1930.28 927.112Z" fill="#302C2D"/>
<path d="M1846.11 1559.46L1836.16 1557.28L1846.53 1511.4L1777.95 1494.94L1768.85 1536.81L1758.89 1534.7L1770.17 1482.73L1858.65 1503.97L1846.11 1559.46Z" fill="#EF6957"/>
<path d="M1805.76 1414.85C1804.05 1417.18 1797.84 1464.41 1797.84 1464.41C1797.84 1464.41 1770.09 1490.08 1788.77 1505.82C1807.45 1521.56 1830.09 1520.98 1840.85 1509.31C1844.6 1497.92 1844.89 1484.58 1840.28 1468.5L1851.04 1416.01L1805.76 1414.85Z" fill="#F9B384"/>
<path d="M1896.87 1556.32L1869.49 1670.72L1858.96 1714.89L1681.21 1649L1704.64 1552.55L1715.79 1506.59L1896.87 1556.32Z" fill="#FBE8EC"/>
<path d="M2394.99 795.644L2300.61 852.099L2296.39 819.362L2367.53 776.796L2394.99 795.644Z" fill="#6F3428"/>
<path d="M2344.05 790.842L2319.85 805.315L2262.4 724.733L2298.22 703.306L2344.05 790.842Z" fill="#BB9132"/>
<path d="M2303.1 700.452L2257.63 727.652C2247.44 733.74 2234.27 731.538 2226.69 722.49L2150.6 631.714L2266.37 562.471L2312.76 671.007C2317.38 681.836 2313.26 694.364 2303.1 700.452Z" fill="#FBC343"/>
<path d="M2297.49 643.196L2291.22 640.63C2308.69 599.134 2305.65 565.422 2292.82 557.976C2286.12 554.119 2276.88 558.677 2267.43 570.499L2262.1 566.347C2278.83 545.424 2291.55 549.477 2296.24 552.198C2311.89 561.257 2316.62 597.774 2297.49 643.196Z" fill="#FBC343"/>
<path d="M2206.92 697.46C2157.24 693.171 2126.64 672.138 2125.73 654.285C2125.46 648.913 2127.69 635.911 2154.22 630.953L2155.48 637.541C2140.5 640.334 2132.13 646.32 2132.51 653.951C2133.24 668.61 2162.15 686.864 2207.5 690.779L2206.92 697.46Z" fill="#FBC343"/>
<path d="M2261 629.98C2257.03 629.98 2252.23 626.629 2249.09 621.26C2245.09 614.449 2245.3 606.979 2249.53 604.563C2250.44 604.041 2251.44 603.807 2252.51 603.807C2256.49 603.807 2261.28 607.158 2264.44 612.527C2268.42 619.338 2268.22 626.822 2263.98 629.239C2263.07 629.747 2262.07 629.98 2261 629.98Z" fill="#FDE7B4"/>
<path d="M2351.62 757.952C2353.27 769.562 2345.83 779.932 2330.14 779.932C2320.33 779.932 2306.59 766.67 2303.7 750.9C2301.32 737.908 2306.37 729.39 2315.69 725.6C2325.23 721.726 2348.49 736.042 2351.62 757.952Z" fill="#F9B384"/>
<path d="M2130.76 582.5L2048.12 556.806L2051.32 546.768L2133.97 572.462L2130.76 582.5Z" fill="#FBC343"/>
<path d="M2223.68 525.977L2213.19 524.148L2228.24 439.949L2238.73 441.778L2223.68 525.977Z" fill="#FBC343"/>
<path d="M2161.97 539.812L2115.26 467.806L2124.25 462.137L2170.96 534.143L2161.97 539.812Z" fill="#FBC343"/>
<path d="M1903.68 1227.6L1890.09 1429.78C1965.95 1426.43 2016.89 1401.85 2016.89 1401.85C2023.48 1281.17 2007.77 1146.15 1959.36 1024.72C1836.43 1069.79 1801.75 1219.15 1783.51 1441.11L1855.53 1449.36L1903.68 1227.6Z" fill="#EF6957"/>
<path d="M1931.41 947.214C1908.29 955.358 1893.51 953.516 1892.28 931.703C1891.57 919.192 1904.64 909.219 1916.16 914.508C1921.16 916.797 1925.83 921.139 1930.28 927.112L1931.41 947.214Z" fill="#F9B384"/>
<path d="M1858.96 1714.89L1681.21 1649L1704.64 1552.55C1726.51 1597.19 1772.77 1652.55 1869.49 1670.72L1858.96 1714.89Z" fill="#EBC9D2"/>
<path d="M2129.41 1069.24C2132.47 1078.84 2135.13 1088.52 2137.71 1098.22C2140.35 1107.92 2142.68 1117.68 2145 1127.44C2147.28 1137.2 2149.45 1147 2151.39 1156.84C2153.31 1166.7 2155.19 1176.57 2156.59 1186.52L2153.99 1187.12C2150.85 1177.54 2148.21 1167.84 2145.6 1158.15C2143.01 1148.45 2140.65 1138.7 2138.4 1128.91C2136.2 1119.14 2134 1109.35 2132.11 1099.48C2130.16 1089.64 2128.29 1079.78 2126.83 1069.83L2129.41 1069.24Z" fill="#EF6957"/>
<path d="M1907.27 1159.51C1907.61 1169.24 1907.55 1178.93 1907.4 1188.63C1907.32 1198.34 1906.91 1208.02 1906.49 1217.7C1906.04 1227.39 1905.48 1237.06 1904.67 1246.73C1903.84 1256.38 1902.99 1266.05 1901.61 1275.68L1898.96 1275.56C1898.53 1265.84 1898.63 1256.13 1898.73 1246.44C1898.87 1236.74 1899.25 1227.06 1899.75 1217.38C1900.27 1207.71 1900.8 1198.02 1901.67 1188.37C1902.45 1178.7 1903.33 1169.04 1904.63 1159.4L1907.27 1159.51Z" fill="#EF6957"/>
<path d="M2002.05 1635.99C2005.11 1624.94 2008.53 1614.01 2012.05 1603.1C2015.51 1592.17 2019.4 1581.41 2023.05 1570.54C2026.91 1559.75 2030.84 1549 2034.89 1538.28C2039.05 1527.6 2043.23 1516.93 2047.91 1506.42L2050.41 1507.28C2047.44 1518.37 2043.97 1529.29 2040.49 1540.21C2036.91 1551.08 2033.2 1561.92 2029.4 1572.74C2025.41 1583.47 2021.67 1594.3 2017.48 1604.97C2013.36 1615.66 2009.15 1626.32 2004.56 1636.86L2002.05 1635.99Z" fill="#708CD5"/>
<path d="M1917.56 935.111C1916.36 933.467 1915.27 931.77 1914.09 930.217C1912.89 928.691 1911.79 927.112 1910.43 926.047C1909.11 924.863 1907.89 924.323 1906.64 924.652C1905.24 924.823 1903.84 926.31 1902.28 927.547L1900.97 926.731C1901.84 924.784 1902.85 922.6 1905.49 921.429C1908.23 920.205 1911.39 921.574 1913.01 923.126C1916.4 926.441 1918.21 930.349 1919 934.559L1917.56 935.111Z" fill="#EF6957"/>
<path d="M2302.75 761.428C2305.21 752.19 2303.94 743.846 2299.89 742.785C2295.85 741.738 2289.63 746.05 2287.15 755.302C2284.68 764.54 2281.83 777.853 2288.21 780.825C2299.51 786.086 2300.26 770.666 2302.75 761.428Z" fill="#F9B384"/>
</g>
</svg>
