<svg width="2425" height="1690" viewBox="0 0 2425 1690" fill="none" xmlns="http://www.w3.org/2000/svg">
<g clip-path="url(#clip0_22_74)">
<path d="M1417.5 424.26C1417.5 424.26 1667.13 433.53 1677.95 421.94C1688.77 410.35 1691.86 378.66 1631.58 384.07C1631.58 384.07 1686.45 312.97 1602.21 299.83C1517.97 286.69 1528.02 353.16 1528.02 353.16C1528.02 353.16 1444.55 306.02 1466.96 382.53C1466.96 382.53 1446.09 367.07 1439.91 394.12C1439.91 394.12 1310.08 418.85 1417.5 424.26Z" fill="#D6E6ED"/>
<path d="M722.49 291.87C722.49 291.87 824.31 294.22 810.59 268.54C796.87 242.86 698.71 247.43 698.71 247.43C698.71 247.43 706.82 206.94 676.21 193.32C645.6 179.71 614.23 189.36 614.23 189.36C614.23 189.36 653.7 80.0198 569.52 72.4198C485.34 64.8198 495.75 162.21 495.75 162.21C495.75 162.21 480.69 118.05 439.06 144.84C397.43 171.63 428.68 225.05 428.68 225.05C428.68 225.05 404.49 193.21 369.89 212.46C335.3 231.71 342.07 262.02 342.07 262.02C342.07 262.02 240.84 271.34 270.45 285.89C300.08 300.43 722.49 291.87 722.49 291.87Z" fill="#D6E6ED"/>
<path d="M1212.09 1689.76C1881.51 1689.76 2424.18 1619.93 2424.18 1533.78C2424.18 1447.63 1881.51 1377.8 1212.09 1377.8C542.671 1377.8 0 1447.63 0 1533.78C0 1619.93 542.671 1689.76 1212.09 1689.76Z" fill="#F1F1F1"/>
<path d="M2011.95 1563.58C2166.67 1563.58 2292.09 1545.81 2292.09 1523.88C2292.09 1501.95 2166.67 1484.18 2011.95 1484.18C1857.23 1484.18 1731.81 1501.95 1731.81 1523.88C1731.81 1545.81 1857.23 1563.58 2011.95 1563.58Z" fill="#D8D8D8"/>
<path d="M2016.79 1521.45L2008.28 1447.7L1994.12 1451.39L2005.45 1520.13L2016.79 1521.45Z" fill="#F5735D"/>
<path d="M2017.05 1531.56C2015.66 1531.98 2014.23 1532.24 2012.78 1532.35C2002.91 1533.11 1951.11 1536.73 1949.77 1528.39C1948.29 1519.17 1964.3 1497.7 2003.61 1512.42C2034.91 1524.13 2023.06 1529.77 2017.05 1531.56Z" fill="#CC2276"/>
<path d="M2003.62 1512.41C2001.83 1511.74 2000.09 1511.15 1998.4 1510.62C2006 1518.28 1991.95 1528.1 1969.65 1528.25C1955.94 1528.34 1951.88 1524.89 1951.13 1521.56C1949.91 1524.07 1949.47 1526.48 1949.77 1528.38C1951.11 1536.72 2002.91 1533.11 2012.78 1532.34C2014.23 1532.23 2015.65 1531.97 2017.05 1531.55C2023.06 1529.77 2034.91 1524.13 2003.62 1512.41Z" fill="#B5106B"/>
<path d="M2138.04 1468.71L2093.29 1409.48L2082.96 1419.84L2127.61 1473.33L2138.04 1468.71Z" fill="#E85653"/>
<path d="M2142.63 1474.14C2141.8 1475.33 2140.85 1476.42 2139.79 1477.41C2132.55 1484.16 2094.3 1519.28 2088.05 1513.59C2081.15 1507.31 2080.28 1480.54 2120.19 1467.53C2151.95 1457.19 2146.21 1468.99 2142.63 1474.14Z" fill="#CC2276"/>
<path d="M2120.19 1467.54C2118.37 1468.13 2116.64 1468.75 2114.99 1469.4C2125.71 1470.66 2120.85 1487.09 2103.5 1501.1C2092.84 1509.72 2087.51 1509.55 2084.85 1507.42C2085.46 1510.14 2086.62 1512.3 2088.04 1513.59C2094.29 1519.28 2132.54 1484.16 2139.78 1477.41C2140.84 1476.42 2141.79 1475.33 2142.62 1474.14C2146.21 1468.99 2151.95 1457.19 2120.19 1467.54Z" fill="#B5106B"/>
<path d="M1950.32 975.11L1930.24 1216.43C1930.08 1218.98 1930.99 1221.48 1932.75 1223.33L2094.55 1444.38L2114.9 1427.51L1987.18 1222.38L2033.91 978.99L1950.32 975.11Z" fill="#481F52"/>
<path d="M2080.48 979.55L1993.46 1253.07L2016.18 1470.99L1990.62 1473.83L1953.46 1244.73L1976.43 973.38L2080.48 979.55Z" fill="#562F5E"/>
<path d="M2008.95 1471.79L2016.18 1470.99L1993.46 1253.06L2080.47 979.54L1976.42 973.38L1972.09 1025.34C1979.47 1016.66 2003.82 993.15 2028.59 1019.88C2055.56 1048.98 1978.9 1253.42 1978.9 1253.42L2008.95 1471.79Z" fill="#481F52"/>
<path d="M1953.46 1245.03L1974.35 1013.75C1974.38 1013.44 1974.32 1013.13 1974.19 1012.84L1967.74 999.24C1967.32 998.35 1966.26 997.98 1965.38 998.4C1964.49 998.82 1964.12 999.88 1964.54 1000.76L1970.79 1013.93L1949.34 1245.97L1954.81 1253.51L1953.46 1245.03Z" fill="#371443"/>
<path d="M1796.8 635.75C1796.8 635.75 1807.7 616.17 1803.99 613.57C1800.28 610.98 1796.97 621.67 1795.01 619.26C1793.05 616.85 1797.75 597.02 1792.69 594.73C1788.38 592.78 1788.95 613.77 1787.69 613.2C1786.42 612.63 1781.15 595.3 1778.14 594.55C1775.13 593.8 1774.88 600.4 1780.4 611.12C1780.4 611.12 1782.57 615.76 1781.7 615.67C1780.83 615.58 1771.22 601.78 1769.29 603.34C1767.36 604.91 1769.62 608.67 1777.36 619.19C1777.36 619.19 1778.93 621.12 1777.66 620.55C1776.39 619.98 1765.94 610.06 1766.27 615.4C1766.6 620.73 1789.17 641.62 1789.17 641.62L1796.8 635.75Z" fill="#E55857"/>
<path d="M2033.56 725.61C2033.56 725.61 1933.92 726.87 1898.56 725.85C1836.34 724.06 1818.27 659.31 1801.9 634.23C1801.9 634.23 1787.25 635.49 1783.33 644.46C1783.33 644.46 1787.43 826.96 1929.48 854.56C1929.48 854.56 1933.94 975.83 1941.34 999.87C1941.34 999.87 2018.37 1029.69 2082.9 1016.77C2082.9 1016.77 2106.32 925.96 2123.61 888.81C2123.61 888.81 2135.93 914.13 2174.44 932.3C2174.44 932.3 2161.81 976.36 2127.74 989.14C2127.74 989.14 2125.02 998.94 2135.23 1005.41C2135.23 1005.41 2253.19 997.83 2248.86 934.28C2244.53 870.74 2180.74 750.4 2033.56 725.61Z" fill="#F1BD73"/>
<path d="M2033.56 725.61C2033.56 725.61 1933.92 726.87 1898.56 725.85C1836.34 724.06 1818.27 659.31 1801.9 634.23C1801.9 634.23 1787.25 635.49 1783.33 644.46C1783.33 644.46 1787.43 826.96 1929.48 854.56C1929.48 854.56 1933.94 975.83 1941.34 999.87C1941.34 999.87 2018.37 1029.69 2082.9 1016.77C2082.9 1016.77 2106.32 925.96 2123.61 888.81C2123.61 888.81 2135.93 914.13 2174.44 932.3C2174.44 932.3 2161.81 976.36 2127.74 989.14C2127.74 989.14 2125.02 998.94 2135.23 1005.41C2135.23 1005.41 2253.19 997.83 2248.86 934.28C2244.53 870.74 2180.74 750.4 2033.56 725.61Z" fill="#479BDB"/>
<path d="M1929.27 854.52C1931.1 810.63 1939.33 734.47 1974.17 726.15C1946.12 726.31 1915.21 726.34 1898.56 725.86C1836.34 724.07 1818.27 659.32 1801.9 634.24C1801.9 634.24 1787.25 635.5 1783.33 644.47C1783.33 644.46 1787.44 826.77 1929.27 854.52Z" fill="#1279A9"/>
<path d="M2082.9 1016.77C2082.9 1016.77 2105.94 927.45 2123.19 889.74C2116.82 877.12 2109.22 857.56 2102.24 827.81C2102.24 827.81 2096.48 967.02 2006.69 972.7C1962.64 975.49 1942.65 955.56 1933.71 934.53C1935.67 962.66 1938.25 989.8 1941.35 999.87C1941.34 999.87 2018.38 1029.69 2082.9 1016.77Z" fill="#2F8AC2"/>
<path d="M1987.35 726.06C1982.05 769.67 1997.35 801.28 2018.51 790.35C2041.87 778.28 2058.45 749.37 2059.87 731.27C2051.41 729.05 2042.64 727.15 2033.55 725.62C2033.56 725.61 2013.06 725.87 1987.35 726.06Z" fill="#F0F0F0"/>
<path d="M2123.61 888.81C2106.27 851.36 2099.88 805.34 2099.82 804.84C2099.69 803.85 2098.78 803.16 2097.79 803.3C2096.81 803.43 2096.11 804.34 2096.25 805.32C2096.32 805.84 2103.09 854.68 2121.68 893.13C2122.33 891.63 2122.98 890.18 2123.61 888.81Z" fill="#1279A9"/>
<path d="M2006.18 706.05C2006.18 706.05 2028.63 699.11 2052.02 707.58L2046.26 724.62L2004.24 729.97L2006.18 706.05Z" fill="#B8B8B8"/>
<path d="M1975.07 666.27C1975.07 666.27 1925.09 643.49 1943.41 597.82C1961.73 552.15 2022.69 572.92 2043.82 617.1C2043.82 617.1 2050.62 604.08 2057 615.14C2063.38 626.2 2047.17 676.29 2047.17 676.29C2047.17 676.29 2020.7 686.78 1975.07 666.27Z" fill="#CC2276"/>
<path d="M2058.14 618.73C2056.42 645.29 2027.78 617.5 2027.78 617.5C2027.78 617.5 2011.14 643.52 1974.83 636.81C1942.72 630.88 1944.5 600.53 1945.34 593.58C1944.66 594.93 1944.01 596.34 1943.41 597.82C1925.09 643.49 1975.07 666.27 1975.07 666.27C2020.71 686.78 2047.17 676.29 2047.17 676.29C2047.17 676.29 2060.75 634.3 2058.14 618.73Z" fill="#B5106B"/>
<path d="M2041.57 745.93L2039.19 683.24L2012.14 689.01L2008.09 745.34C2018.21 745.52 2031.45 745.55 2041.57 745.93Z" fill="#F5735D"/>
<path d="M2010.27 714.93C2034.26 709.83 2036.96 690.03 2036.96 690.03L2011.98 691.11L2010.27 714.93Z" fill="#E85653"/>
<path d="M1986.57 656.319C1986.57 656.319 1980.3 705.019 2004.33 703.889C2028.37 702.759 2040.28 685.929 2040.28 685.929C2040.28 685.929 2058.04 689.339 2058.3 674.619C2058.56 659.899 2044.67 656.559 2039.85 666.549C2039.85 666.549 2041.06 631.899 1986.57 656.319Z" fill="#F5735D"/>
<path d="M2040.98 667.119C2039.91 667.099 2039 666.299 2038.88 665.209C2038.23 659.609 2035.25 650.039 2022.61 648.839C2004.87 647.149 1980.73 660.629 1980.49 660.759C1979.45 661.349 1978.13 660.979 1977.55 659.939C1976.96 658.899 1977.33 657.589 1978.37 656.999C1979.4 656.419 2003.87 642.719 2023.02 644.539C2039.73 646.119 2042.67 660.379 2043.17 664.709C2043.31 665.889 2042.46 666.969 2041.28 667.099C2041.17 667.119 2041.07 667.119 2040.98 667.119Z" fill="#81034F"/>
<path d="M2051.84 709.75C2051.84 709.75 2064.59 741.42 2029.34 771.4C2029.34 771.4 2024.4 751.299 2018.06 748.599L2005.84 791.38L2013.89 746.07C2013.89 746.07 2004.66 751.89 2001.61 762.58C2001.61 762.58 1986.33 735.079 2001.31 712.219L2013.42 738.37L2019.77 741.07L2051.84 709.75Z" fill="#D4D4D4"/>
<path d="M2052.78 725.15C2052.78 725.15 2054.01 709.93 2052.01 707.58C2052.01 707.58 2030.15 734.26 2016.58 739.73C2016.58 739.73 2033.45 747.66 2032.21 762.88C2032.22 762.88 2051.37 742.54 2052.78 725.15Z" fill="#EDEDED"/>
<path d="M2006.18 706.05C2006.18 706.05 2004.42 727.79 2016.58 739.72C2016.58 739.72 2005.36 743.19 2002.12 756.06C2002.13 756.06 1989.73 720.04 2006.18 706.05Z" fill="#EDEDED"/>
<path d="M2034.42 959.77L1910.59 861.01C1909.77 860.36 1909.22 859.42 1909.05 858.39C1896.95 785.31 1881.07 704.24 1874.71 693.42C1869.75 693.09 1858.79 691.07 1846.18 688.06C1854.55 703.53 1856.14 717.04 1850.57 726.6C1847.85 731.27 1842.15 733.4 1833.64 732.92C1829.85 732.71 1825.52 731.98 1820.86 730.84C1824.65 740.08 1826.23 749.06 1824.34 756.6C1823.17 761.28 1819.58 767.29 1809.13 769.36C1804.31 770.32 1798.43 770.25 1791.99 769.38C1795.8 778.55 1797.78 788.31 1793.64 795.16C1788.3 803.99 1774.42 804.74 1758.91 801.44C1765.7 814.81 1767.47 824.24 1764.17 829.54C1758.96 837.89 1743.49 835.25 1729.48 830.64C1733.65 838.36 1736.56 846.13 1735.43 851.47C1734.83 854.28 1732.67 857.94 1725.76 859.46C1720 860.72 1711.26 860.25 1701.53 858.37C1704.12 868.51 1703.45 877.13 1701.62 883.91C1725.01 887.34 1825.04 901.42 1874.35 898.51C1875.49 898.44 1876.6 898.84 1877.45 899.6L1993.76 1004.95C1995.47 1006.5 1995.62 1009.11 1994.13 1010.85C1994.1 1010.88 1994.08 1010.91 1994.05 1010.94C1992.48 1012.68 1989.8 1012.81 1988.06 1011.24L1873.06 907.08C1815.74 909.95 1700.31 892.31 1695.37 891.55C1694.09 891.35 1692.98 890.59 1692.34 889.47C1691.7 888.35 1691.6 887 1692.08 885.8C1695.96 876.01 1695.31 865.8 1692 856.16C1673.29 851.12 1653.35 841.67 1644.57 829.92C1639.16 822.67 1638.37 815.08 1642.28 807.97C1643.57 805.63 1647.82 800.76 1659.32 806.18C1668.69 810.6 1682.51 821.99 1692.27 837.5C1694.8 841.53 1696.82 845.4 1698.39 849.11C1708.73 851.56 1718.21 852.44 1723.95 851.18C1726.21 850.68 1727.1 849.97 1727.15 849.71C1727.8 846.64 1724.76 838.21 1716.72 825.83C1711.42 823.61 1707.2 821.57 1705.11 820.53C1693.82 814.92 1657.48 795.33 1663.82 778.77C1665.79 773.64 1670.42 771.6 1676.22 773.31C1687.15 776.54 1703.1 793.32 1714.39 807.93C1716.5 810.66 1719.41 814.57 1722.41 819.02C1742.6 827.14 1755.34 827.7 1756.99 825.05C1757.86 823.65 1757.88 816.13 1747.64 798.43C1737.84 795.35 1728.03 791.1 1719.83 786.65C1694.41 772.84 1682.7 757.44 1688.5 745.47C1690.54 741.27 1694.06 738.86 1698.41 738.7C1705.79 738.43 1715.56 744.65 1727.46 757.19C1736.54 766.76 1746.05 779.35 1753.29 791.34C1769.58 796.01 1783.07 796.26 1786.4 790.77C1788.85 786.72 1787.07 778.02 1781.77 767.43C1757.81 761.67 1730.06 747.29 1719.32 732.75C1712.76 723.87 1714.01 717.12 1716.22 713.01C1718.75 708.32 1722.84 705.8 1728.06 705.73C1746.4 705.49 1773.73 736.02 1786.4 758.15C1786.75 758.76 1787.1 759.39 1787.45 760.03C1795.17 761.61 1802.18 762.08 1807.47 761.03C1814.84 759.57 1815.79 755.77 1816.1 754.53C1817.89 747.38 1815.27 737.7 1810.1 727.69C1782.58 718.5 1749.55 699.4 1744.22 687.3C1742.21 682.74 1743.88 679.64 1745.06 678.2C1748.51 673.98 1756.66 668.07 1772.53 676.03C1787 683.29 1805.11 701.58 1815.87 720.62C1817.69 721.19 1819.46 721.7 1821.17 722.15C1835.36 725.89 1841.94 724.56 1843.25 722.31C1847.84 714.43 1844.9 701.22 1835.18 686.07C1834.97 685.74 1834.76 685.42 1834.54 685.09C1832.49 684.54 1830.44 683.98 1828.39 683.39C1799.6 675.2 1782.01 666.96 1776.12 658.91C1772.92 654.54 1773.38 650.74 1774.34 648.33C1776.51 642.83 1780.79 639.5 1786.4 638.95C1802.07 637.42 1825.46 657.24 1839.77 677.7C1858.11 682.47 1873.34 685.14 1875.99 684.96C1880.67 684.64 1883.64 688.64 1889.95 714.24C1893.4 728.26 1897.55 747.83 1902.28 772.4C1909.43 809.57 1915.79 847.23 1917.15 855.37L2039.71 953.12C2041.54 954.58 2041.84 957.25 2040.38 959.08C2040.35 959.12 2040.31 959.16 2040.28 959.2C2038.8 960.94 2036.21 961.2 2034.42 959.77ZM1723.67 717.04C1722.15 719.87 1722.97 723.46 1726.12 727.72C1734.45 738.99 1755.79 750.71 1775.76 756.99C1761.38 734.54 1738.97 714.09 1728.16 714.23C1726.57 714.25 1725.42 714.74 1724.5 715.81C1724.2 716.15 1723.93 716.56 1723.67 717.04ZM1774.87 702.28C1783.72 707.44 1793.59 712.23 1803.03 716.02C1793.49 702.24 1780.41 689.48 1768.73 683.62C1760.79 679.64 1755.1 679.56 1751.79 683.39C1752.12 685.17 1756.76 691.72 1774.87 702.28ZM1696.11 749.18C1692.73 756.15 1704.14 768.49 1723.86 779.2C1729.31 782.16 1734.9 784.75 1740.39 786.93C1725.54 765.02 1706.97 746.88 1698.71 747.18C1698.12 747.2 1697.47 747.3 1696.82 748.06C1696.58 748.35 1696.34 748.71 1696.11 749.18ZM1651.35 824.84C1657.87 833.57 1672.56 841.16 1687.47 846.03C1683.25 838.32 1677.6 831.29 1671.65 825.55C1660.27 814.54 1651.6 811.65 1649.61 812.21C1648.21 814.84 1646.95 818.96 1651.35 824.84ZM1782.21 651.47C1782.1 651.75 1781.84 652.41 1782.95 653.94C1787.23 659.79 1802.86 667.01 1826.15 673.95C1812.89 658.24 1796.36 646.53 1787.21 647.43C1785.63 647.58 1784.42 648.16 1783.5 649.24C1783 649.82 1782.57 650.56 1782.21 651.47ZM1671.72 781.8C1670.47 785.05 1677.65 797.01 1706.65 811.82C1698.92 801.95 1690.52 793.04 1683.44 787.34C1674.87 780.43 1672.04 781.22 1672.03 781.22C1672.03 781.22 1672.02 781.23 1672 781.25C1671.96 781.31 1671.85 781.46 1671.72 781.8Z" fill="#582C5F"/>
<path opacity="0.53" d="M1869.49 916.37C1861.21 918.7 1788.65 920.91 1782.7 909.53C1781.96 908.12 1783.17 904.68 1785.88 899.79C1787.18 900.13 1788.63 899.85 1789.77 898.51C1791.28 896.75 1790.92 894.73 1789.75 893.36C1809.52 862.57 1864.78 798.61 1894.23 778.37C1895.79 779.69 1898.19 780.01 1899.9 778.02C1900.91 776.84 1901.07 775.55 1900.73 774.42C1905.91 771.76 1909.78 771.24 1911.76 773.57C1926.64 791.03 1919.79 844.84 1929.75 853.37C1939.71 861.9 2049.67 938.84 2049.67 938.84C2049.67 938.84 2012.95 1033.01 1976.35 1018.92C1976.35 1018.92 1877.77 914.04 1869.49 916.37Z" fill="#F2F2F2"/>
<path opacity="0.53" d="M1869.49 916.37C1861.21 918.7 1788.65 920.91 1782.7 909.53C1781.96 908.12 1783.17 904.68 1785.88 899.79C1787.18 900.13 1788.63 899.84 1789.77 898.51C1791.28 896.75 1790.92 894.73 1789.75 893.36C1790.5 892.19 1791.31 890.97 1792.16 889.7C1790.85 897.19 1792.66 904.53 1811.67 890.37C1842.06 867.73 1886.03 812.75 1906.46 781.58C1916.29 766.59 1885.13 866.95 1894.71 881.43C1904.28 895.91 2013.47 984.75 2013.47 984.75L1983 1020.31C1980.79 1020.21 1978.57 1019.76 1976.35 1018.9C1976.35 1018.92 1877.77 914.04 1869.49 916.37Z" fill="#E6E6E6"/>
<path d="M2160.88 1033.15C2160.34 1037.41 2157.42 1068.05 2141.9 1087.74C2126.38 1107.43 2084.32 1110.39 2084.32 1110.39L2160.88 1033.15Z" fill="#333333"/>
<path d="M1986.1 1067.91L1952.53 1039.38L2069.46 899.28C2069.46 899.28 2073.1 902.62 2087.73 915.64C2089.38 917.1 2089.84 919.45 2088.99 921.49C2087.05 926.13 2087.1 930.4 2089.55 932.52C2091.97 934.62 2096.14 934.11 2100.41 931.61C2102.33 930.49 2104.76 930.81 2106.41 932.29C2107.05 932.86 2107.69 933.43 2108.34 934.01C2109.95 935.44 2110.41 937.73 2109.6 939.73C2107.77 944.27 2107.86 948.43 2110.26 950.51C2112.63 952.57 2116.67 952.12 2120.85 949.75C2122.74 948.68 2125.13 949.01 2126.74 950.47C2127.11 950.8 2127.48 951.13 2127.84 951.46C2129.45 952.9 2130.07 955.19 2129.29 957.21C2127.57 961.64 2127.71 965.67 2130.06 967.71C2132.36 969.71 2136.23 969.34 2140.28 967.16C2142.18 966.14 2144.53 966.49 2146.12 967.93C2146.9 968.63 2147.66 969.33 2148.4 970C2149.95 971.41 2150.56 973.61 2149.85 975.57C2148.29 979.85 2148.49 983.7 2150.78 985.69C2153.5 988.05 2158.43 987.1 2163.24 983.75C2163.63 984.13 2163.97 984.47 2164.24 984.74C2174.26 995.02 2158.53 1047.69 2158.53 1047.69C2158.53 1047.69 2131.16 1079.2 2114.75 1098.11C2098.33 1117.02 2048.76 1121.36 2048.76 1121.36L2046.93 1119.8C2045.15 1118.28 2044.59 1115.74 2045.62 1113.64C2048.15 1108.5 2048.33 1103.61 2045.66 1101.29C2042.95 1098.94 2038.05 1099.86 2033.26 1103.18C2031.36 1104.5 2028.79 1104.32 2027.03 1102.82C2025.24 1101.29 2024.68 1098.73 2025.73 1096.63C2028.34 1091.42 2028.56 1086.45 2025.85 1084.1C2023.11 1081.72 2018.13 1082.69 2013.29 1086.11C2011.39 1087.45 2008.8 1087.28 2007.03 1085.77L2006.21 1085.07C2004.41 1083.53 2003.85 1080.95 2004.93 1078.85C2007.63 1073.58 2007.89 1068.51 2005.15 1066.13C2002.38 1063.72 1997.31 1064.75 1992.42 1068.26C1990.5 1069.6 1987.89 1069.43 1986.1 1067.91Z" fill="#BDCCD4"/>
<path d="M2046.99 1119.85C2045.17 1118.3 2044.61 1115.71 2045.65 1113.56C2048.14 1108.45 2048.31 1103.6 2045.65 1101.28C2042.99 1098.97 2038.21 1099.81 2033.49 1103C2031.86 1104.1 2029.71 1104.38 2027.97 1103.46C2025.44 1102.12 2024.49 1099.06 2025.71 1096.62C2028.32 1091.41 2028.54 1086.44 2025.83 1084.09C2023.1 1081.72 2018.15 1082.67 2013.33 1086.05C2011.38 1087.41 2008.75 1087.24 2006.94 1085.7L2006.24 1085.1C2004.4 1083.53 2003.84 1080.9 2004.94 1078.75C2007.6 1073.5 2007.85 1068.48 2005.12 1066.11C2002.36 1063.71 1997.33 1064.72 1992.45 1068.19C1990.5 1069.58 1987.85 1069.41 1986.03 1067.86L1952.6 1039.45C1952.56 1039.41 1952.55 1039.35 1952.59 1039.3L1993.15 990.7C1993.19 990.65 1993.26 990.64 1993.3 990.69C1998.56 995.77 2019.85 1016.57 2022.53 1013.32C2070.05 955.87 2089.38 920.52 2088.97 921.49C2087.03 926.13 2087.08 930.4 2089.53 932.52C2091.87 934.55 2095.84 934.14 2099.97 931.85C2100.07 931.8 2100.18 931.9 2100.11 931.99C2087.92 948.63 2046.71 1004.86 2035.36 1019.96C2033.31 1022.69 2032.77 1026.29 2034 1029.48C2035.6 1033.64 2038.83 1037.92 2045.16 1034.56C2052.46 1030.68 2103.93 956.88 2108.32 943.41C2108.36 943.3 2108.52 943.38 2108.5 943.49C2108 946.48 2108.53 949.02 2110.25 950.51C2112.62 952.57 2116.66 952.12 2120.84 949.75C2121.56 949.34 2122.35 949.14 2123.14 949.13C2108.76 971.13 2074.45 1023.06 2056.9 1044.69C2056.89 1044.71 2056.88 1044.72 2056.88 1044.74C2056.87 1045.24 2056.73 1052.42 2060.96 1054.57C2065.31 1056.78 2070.08 1053.13 2070.15 1053.08C2070.31 1052.84 2114.73 989.92 2127.96 963C2128.01 962.91 2128.14 962.95 2128.15 963.06C2128.21 965.01 2128.83 966.64 2130.07 967.71C2132.37 969.71 2136.24 969.34 2140.29 967.16C2140.69 966.94 2141.11 966.8 2141.54 966.71C2125.03 994.44 2095.91 1042.17 2079.29 1062.56C2079.28 1062.57 2079.28 1062.58 2079.27 1062.59C2079.21 1062.93 2078.13 1069.48 2080.77 1071.77C2083.47 1074.12 2088.64 1075.44 2092.55 1070.94C2095.73 1067.28 2130.28 1016.66 2148.67 980.67C2148.72 980.57 2148.86 980.61 2148.86 980.73C2148.86 982.82 2149.48 984.56 2150.79 985.7C2153.33 987.9 2157.78 987.22 2162.27 984.41C2162.36 984.35 2162.47 984.44 2162.42 984.54C2151.56 1002.87 2125.54 1044.37 2096.24 1074C2096.19 1074.05 2096.19 1074.11 2096.25 1074.14C2097.64 1075.09 2115.05 1086.79 2126.76 1084.03C2126.86 1084.01 2126.93 1084.12 2126.86 1084.2L2114.76 1098.13C2098.62 1116.72 2050.44 1121.22 2048.82 1121.37C2048.79 1121.37 2048.77 1121.36 2048.74 1121.34L2046.99 1119.85Z" fill="#95A4AF"/>
<path opacity="0.14" d="M1588.24 902.62C1496.47 823.99 1487.3 683.2 1565.94 591.43C1644.23 500.06 1783.04 488.52 1875.19 565.89C1915.29 599.55 1940.97 647.45 1950.12 695.04C1961.48 754.12 1988.47 810.56 2034.16 849.7C2057.55 869.74 2068.44 884.72 2050.76 903.58L1945.54 1028.15C1933.55 1042.14 1917.08 1035.51 1893.69 1015.47C1847.78 976.13 1786.77 957.56 1726.36 955.15C1678.91 953.24 1627.1 935.91 1588.24 902.62Z" fill="#FFB002"/>
<path opacity="0.15" d="M1566.19 591.32C1566.43 591.04 1566.68 590.77 1566.91 590.5C1549.58 625.23 1481.79 784.59 1639.51 884.21C1800.43 985.85 1975.27 842.08 1952.03 703.02C1964.24 759.14 1990.8 812.25 2034.4 849.61C2057.79 869.65 2068.68 884.63 2051 903.49L1945.78 1028.06C1933.79 1042.05 1917.32 1035.42 1893.93 1015.38C1848.02 976.04 1787.01 957.47 1726.6 955.06C1679.15 953.16 1627.34 935.83 1588.48 902.53C1496.72 823.88 1487.56 683.09 1566.19 591.32Z" fill="#FFB002"/>
<path d="M1588.49 902.52C1496.72 823.89 1487.55 683.1 1566.19 591.33C1644.48 499.96 1783.29 488.42 1875.44 565.79C1915.54 599.45 1941.22 647.35 1950.37 694.94C1961.73 754.02 1988.72 810.46 2034.41 849.6C2057.8 869.64 2068.69 884.62 2051.01 903.48L1945.79 1028.05C1933.8 1042.04 1917.33 1035.41 1893.94 1015.37C1848.03 976.03 1787.02 957.46 1726.61 955.05C1679.16 953.15 1627.35 935.81 1588.49 902.52ZM1586.3 906.91C1626.54 941.39 1675.38 959.29 1724.51 961.25C1787.06 963.75 1848.62 984.85 1896.16 1025.58C1920.38 1046.33 1940.91 1052.93 1953.33 1038.44L2062.27 909.46C2080.57 889.93 2070.12 871.56 2045.91 850.81C1998.6 810.28 1967.96 753.1 1956.19 691.93C1946.72 642.65 1920.88 596.16 1879.36 561.3C1783.94 481.19 1642.72 492.82 1561.66 587.44C1480.24 682.47 1491.27 825.5 1586.3 906.91Z" fill="#FFB002"/>
<path opacity="0.9" d="M1812 543.61C1812 543.61 1687.12 512.4 1598.85 598.1C1524.1 670.68 1533.82 763.8 1533.82 763.8C1533.82 763.8 1503.11 662.1 1602.08 574.17C1687.56 498.24 1812 543.61 1812 543.61Z" fill="white"/>
<path opacity="0.7" d="M1645.47 917.57C1645.47 917.57 1694.11 945.11 1759.94 943.42C1825.78 941.73 1899.9 1003.67 1899.9 1003.67C1899.9 1003.67 1835.35 934.22 1778.3 929.32C1721.27 924.42 1706.91 935.67 1645.47 917.57Z" fill="white"/>
<path opacity="0.9" d="M1787.66 610.47C1753.11 598.7 1715 593.43 1699.13 597.64L1718.1 562.03C1718.1 562.03 1764.34 550.48 1812.88 571.69C1804.71 584.77 1796.22 597.64 1787.66 610.47Z" fill="white"/>
<path opacity="0.9" d="M1826.03 627.69C1823.5 626.17 1820.84 624.69 1818.1 623.26C1825.56 611.29 1832.63 599.11 1838.9 586.48C1859.46 601.21 1878.99 623.42 1894.04 656.62C1950.46 781.09 1864.58 650.89 1826.03 627.69Z" fill="white"/>
<path d="M2128.59 992.66C2128.59 992.66 2108.4 982.94 2106.03 986.79C2103.66 990.64 2114.54 993.32 2112.24 995.42C2109.95 997.52 2089.88 993.99 2087.89 999.18C2086.2 1003.6 2107.12 1001.79 2106.62 1003.08C2106.12 1004.38 2089.14 1010.66 2088.56 1013.72C2087.98 1016.78 2094.59 1016.62 2104.97 1010.49C2104.97 1010.49 2109.47 1008.05 2109.44 1008.93C2109.4 1009.81 2096.19 1020.22 2097.87 1022.05C2099.55 1023.88 2103.17 1021.4 2113.22 1013.05C2113.22 1013.05 2115.05 1011.37 2114.56 1012.67C2114.06 1013.97 2104.78 1024.99 2110.09 1024.34C2115.4 1023.69 2134.91 999.93 2134.91 999.93L2128.59 992.66Z" fill="#F5735D"/>
<path d="M2156.83 966.4C2149.69 975.7 2140.14 984.49 2127.75 989.14C2127.75 989.14 2125.03 998.94 2135.24 1005.41C2135.24 1005.41 2158.43 1003.91 2183.86 996.72C2174.91 986.57 2165.81 976.53 2156.83 966.4Z" fill="#479BDB"/>
<path d="M1139.66 1284.15L1122.62 1280.15L1106.59 1277.83C1102.84 1277.32 1098.16 1277.17 1092.54 1277.36L1073.89 1276.21C1069.06 1276.55 1060.42 1276.35 1048.01 1275.57L1033.55 1276.58L1016.32 1275.64C988.4 1276.79 961.48 1277.55 935.54 1277.92C930.88 1278 926.8 1278.68 923.31 1279.95L781.12 1331.97C784.61 1330.69 788.69 1330.01 793.35 1329.94C819.3 1329.57 846.21 1328.81 874.13 1327.66L891.35 1328.6L905.81 1327.59C918.22 1328.37 926.86 1328.57 931.69 1328.23L950.34 1329.38C955.96 1329.19 960.63 1329.34 964.39 1329.85L980.42 1332.17L997.46 1336.17C1003 1338.05 1007.56 1340.54 1011.19 1343.63C1059.89 1327.11 1109.12 1312.36 1158.18 1296.81C1154.19 1291.22 1148.03 1286.98 1139.66 1284.15Z" fill="#D57300"/>
<path d="M1163.66 1315.51C1163.65 1308.13 1161.81 1301.91 1158.18 1296.82C1109.13 1312.37 1059.89 1327.12 1011.19 1343.64C1018.01 1349.46 1021.45 1357.42 1021.46 1367.54L1022.82 1415.75L1030.5 1525.31C1029.87 1535.53 1029.05 1541.09 1028.04 1541.99C1026.98 1547.83 1023.76 1551.73 1018.4 1553.69L1160.59 1501.67C1165.95 1499.71 1169.17 1495.81 1170.23 1489.97C1171.24 1489.07 1172.06 1483.51 1172.69 1473.29L1165.01 1363.73L1163.66 1315.51Z" fill="#EF9500"/>
<path d="M1021.47 1367.53L1022.83 1415.74L1030.51 1525.3C1029.88 1535.52 1029.06 1541.08 1028.05 1541.98C1026.59 1550.03 1021.03 1554.39 1011.41 1555.08L994.28 1552.6C980.08 1548.04 962.76 1544.37 942.33 1541.6C920.75 1538.67 895.69 1536.74 867.15 1535.8L835.75 1531.27C832.89 1530.86 821.05 1528.11 800.25 1523.06C777.42 1519.76 765.7 1507.22 765.12 1485.44L762.82 1452.58L763.67 1438.76L763.28 1421.67C762.89 1412.32 763.64 1392.28 765.53 1361.58C764.86 1340.83 774.15 1330.29 793.38 1329.97C819.33 1329.6 846.24 1328.84 874.16 1327.69L891.38 1328.63L905.84 1327.62C918.25 1328.4 926.89 1328.6 931.72 1328.26L950.37 1329.41C955.99 1329.22 960.66 1329.38 964.42 1329.88L980.45 1332.2L997.48 1336.2C1013.45 1341.58 1021.45 1352.03 1021.47 1367.53Z" fill="#FFB002"/>
<path d="M1090.58 1109.5L1232.77 1057.48L1225.34 1061.05L1083.15 1113.07L1090.58 1109.5Z" fill="#FFB002"/>
<path d="M898.08 747.88C875.5 756.14 861.92 774.57 857.35 803.18C856.21 806.11 855.45 810.65 855.06 816.78L854.5 826L852.42 836.55C849.49 852.65 847.38 863.7 846.06 869.72L845.4 880.46L843.22 892.55C840.91 901.61 836.88 907.2 831.12 909.31L973.31 857.29C979.07 855.18 983.11 849.59 985.42 840.53L987.6 828.44L988.26 817.7C989.58 811.68 991.69 800.63 994.62 784.53L996.7 773.98L997.26 764.76C997.65 758.63 998.4 754.09 999.54 751.16C1004.1 722.55 1017.69 704.12 1040.27 695.86L898.08 747.88Z" fill="#D57300"/>
<path d="M1077.16 1116.86C1057.24 1128.45 1046.53 1146.51 1045.04 1171.08C1044.66 1177.22 1043.71 1208.07 1042.24 1263.63L1041.58 1274.37C1041.07 1282.58 1037.82 1288.81 1031.79 1293.11C1030.79 1293.66 1029.77 1294.13 1028.75 1294.5L1170.94 1242.48C1171.96 1242.11 1172.97 1241.64 1173.98 1241.09C1180.01 1236.8 1183.26 1230.56 1183.77 1222.35L1184.43 1211.61C1185.9 1156.05 1186.85 1125.21 1187.23 1119.06C1188.73 1094.48 1199.43 1076.42 1219.35 1064.84L1225.34 1061.05L1083.15 1113.07L1077.16 1116.86Z" fill="#EF9500"/>
<path d="M1396.4 854.93L1397.72 833.43C1401.41 788.53 1398.46 734.92 1388.86 672.59C1375.38 610.76 1351.64 559.31 1317.69 518.25C1297.1 493.59 1276.22 474.07 1255.05 459.64L1241.25 449.9L1226.02 439.95C1208.55 427.12 1189.42 418.16 1168.62 413.07L1114.57 402.17C1107.13 400.19 1099.62 398.69 1092.03 397.66C1073.63 395.16 1054.8 395.45 1035.59 398.52C1005.52 403.47 982.65 408.44 967 413.39C961.04 414.79 955.22 416.53 949.54 418.6L807.35 470.62C813.03 468.54 818.85 466.8 824.81 465.41C840.46 460.46 863.33 455.48 893.4 450.54C912.61 447.47 931.44 447.18 949.84 449.68C957.43 450.71 964.94 452.21 972.38 454.19L1026.43 465.09C1047.23 470.18 1066.36 479.14 1083.83 491.97L1099.06 501.92L1112.86 511.66C1134.04 526.1 1154.92 545.61 1175.5 570.27C1209.46 611.33 1233.19 662.78 1246.67 724.61C1256.27 786.95 1259.22 840.56 1255.53 885.45L1254.21 906.95C1255.24 937.06 1243.51 971.51 1219.06 1010.32C1190.6 1051.67 1153.7 1081.97 1108.37 1101.23C1103.4 1103.61 1097.48 1106.37 1090.58 1109.5L1232.77 1057.48C1239.67 1054.35 1245.59 1051.59 1250.56 1049.21C1295.89 1029.95 1332.8 999.65 1361.25 958.3C1385.7 919.49 1397.43 885.04 1396.4 854.93Z" fill="#EF9500"/>
<path d="M1246.66 724.6C1233.18 662.77 1209.44 611.32 1175.49 570.26C1154.9 545.6 1134.02 526.08 1112.85 511.65L1099.05 501.91L1083.82 491.96C1066.35 479.13 1047.22 470.17 1026.42 465.08L972.37 454.18C964.93 452.2 957.42 450.7 949.83 449.67C931.43 447.17 912.6 447.46 893.39 450.53C863.32 455.48 840.45 460.45 824.8 465.4C797.52 471.8 773.17 485.32 751.75 505.97C725.11 533.1 700.31 569.81 677.31 616.07C649.55 677.11 632.19 748.98 625.21 831.62C623.05 850.94 630.48 862.85 647.49 867.36L698.6 879.39L718.4 885.34L738.37 888.22C755.44 891.73 768.2 895.11 776.63 898.4L788.04 900.05L797.94 903.02L809.27 906.21C813 907.79 815.82 908.7 817.73 908.98C819.37 909.47 820.93 909.82 822.42 910.02C832.96 911.45 839.9 905.6 843.23 892.51L845.41 880.42L846.07 869.68C847.39 863.66 849.5 852.61 852.43 836.51L854.51 825.96L855.07 816.74C855.46 810.61 856.21 806.07 857.36 803.14C862.03 773.87 876.14 755.25 899.67 747.28C920.27 739.94 941.54 737.33 963.5 739.44C966.47 739.62 969.36 739.9 972.15 740.28C992.74 743.08 1008.54 751.19 1019.57 764.58C1043.04 788.64 1054.17 818.64 1052.93 854.6C1050.79 889.42 1037.75 914.38 1013.78 929.51C1011.9 930.73 1009.87 931.98 1007.72 933.26L1007.09 933.45C1004.84 934.18 1002.62 934.95 1000.44 935.75L858.24 987.8C860.42 987 862.64 986.24 864.89 985.5C820.81 999.81 790.35 1026.91 773.5 1066.8L767.71 1090.75L760.39 1116.03C752.67 1147.98 749.7 1172.84 751.51 1190.66C752.46 1206.29 758.06 1216.39 768.36 1220.98L783.88 1226.31L797.96 1231.43C810.19 1235.29 819.63 1238.19 826.23 1240.16C833.84 1241.26 849.94 1244.63 874.57 1250.23L922.64 1264.92L966.42 1278.98L979.16 1282.38L991.82 1287.3C1001.26 1289.71 1008.34 1291.78 1013.05 1293.47C1015.29 1294.51 1017.49 1295.17 1019.67 1295.47C1023.83 1296.04 1027.88 1295.24 1031.79 1293.09C1037.82 1288.8 1041.08 1282.56 1041.58 1274.35L1042.24 1263.61C1043.71 1208.05 1044.66 1177.21 1045.04 1171.06C1046.54 1146.48 1057.24 1128.42 1077.16 1116.84L1083.15 1113.05L1090.57 1109.48C1097.47 1106.35 1103.39 1103.59 1108.36 1101.21C1153.69 1081.95 1190.6 1051.65 1219.05 1010.3C1243.5 971.49 1255.23 937.04 1254.2 906.93L1255.52 885.43C1259.22 840.55 1256.27 786.94 1246.66 724.6Z" fill="#FFB002"/>
<path d="M1085.29 118.04L1072.62 125.23C1049.39 114.21 1031.54 111.06 1031.54 111.06C950.33 129.06 911.68 146.19 905.37 207.58C899.06 268.97 947.65 403.92 947.65 403.92C1009.43 421.24 1101.23 392.57 1101.23 392.57C1110.54 375.73 1113.91 301.79 1115.15 263.91C1136.71 258.44 1176.28 244.44 1177.46 215.07C1179.07 174.64 1085.29 118.04 1085.29 118.04Z" fill="#D30076"/>
<path d="M904.9 214.51C927.06 186.9 958.45 155.81 974.93 172.29C999.42 196.78 1005.76 255.08 1008.6 276.37C1011.66 299.33 1031.56 343.72 1066.76 348.31C1098.42 352.44 1110.34 310.64 1113.65 299.71C1111.72 336.83 1108.08 380.16 1101.23 392.56C1101.23 392.56 1009.43 421.23 947.65 403.91C947.65 403.92 902.51 278.54 904.9 214.51Z" fill="#B5106B"/>
<path d="M988.93 121.8C990.3 121.39 991.7 120.99 993.1 120.59C993.49 120.48 993.88 120.37 994.28 120.26C995.64 119.88 997.01 119.5 998.4 119.12C998.8 119.01 999.21 118.9 999.62 118.79C1003.75 117.68 1008.03 116.58 1012.46 115.5C1013.46 115.26 1014.45 115.01 1015.46 114.77C1016.46 114.53 1017.47 114.29 1018.49 114.05C1019.79 113.74 1021.11 113.44 1022.44 113.13C1023.25 112.94 1024.05 112.76 1024.87 112.57C1027.07 112.07 1029.28 111.57 1031.55 111.07C1031.55 111.07 1049.4 114.22 1072.63 125.24C1073.97 137.03 1073.48 160.76 1046.89 159.93C1015.96 158.97 994.78 130.61 988.93 121.8Z" fill="#F5735D"/>
<path d="M999.32 498.859C999.32 498.859 1000.88 505.959 986.66 522.489C973.85 537.379 955.35 530.329 951.67 525.769C946.56 519.449 949.64 503.109 960.69 499.179C971.73 495.259 995 489.389 999.32 498.859Z" fill="#2F8AC2"/>
<path d="M989.99 496.95L1042.68 473.7L1047.92 486.73L993.08 504.95C991.33 505.53 989.41 504.93 988.3 503.47C986.63 501.26 987.46 498.07 989.99 496.95Z" fill="#F5735D"/>
<path d="M1179.78 479.66C1179.78 479.66 1182.97 473.13 1204.39 469.03C1223.68 465.34 1231.91 481.66 1231.97 487.52C1232.04 495.65 1221.32 507.23 1210.23 503.43C1199.14 499.63 1177.27 489.76 1179.78 479.66Z" fill="#1279A9"/>
<path d="M1185.9 486.95L1130.18 472.38L1134.18 458.92L1188.46 478.77C1190.19 479.4 1191.32 481.06 1191.28 482.9C1191.21 485.67 1188.58 487.65 1185.9 486.95Z" fill="#E85653"/>
<path d="M1023.62 411.43L1208.14 395.5L1103.06 452.97L892.07 399.35L894.79 389.32L1023.62 411.43Z" fill="#481F52"/>
<path d="M1023.62 411.43C1023.62 411.43 875.03 374.25 868.43 378.11C848.38 389.85 858.59 425.2 859.78 430.47C861.81 439.44 1161.38 487.96 1161.38 487.96L1170.55 464.84L934.73 401.88L1023.62 411.43Z" fill="#562F5E"/>
<path d="M1170.56 464.84L1079.43 441.49L1034.48 466.42C1096.92 477.2 1161.39 487.97 1161.39 487.97L1170.56 464.84Z" fill="#481F52"/>
<path d="M1168.69 466.369C1168.6 466.359 1168.5 466.339 1168.41 466.319L907.6 395.719C906.69 395.469 906.15 394.539 906.4 393.619C906.65 392.709 907.59 392.179 908.5 392.419L1169.31 463.019C1170.22 463.269 1170.76 464.199 1170.51 465.119C1170.28 465.939 1169.51 466.449 1168.69 466.369Z" fill="#371443"/>
<path d="M1023.62 411.43C1023.62 411.43 1240.55 379.36 1249.64 383.43C1264.43 390.05 1268.19 421.33 1267.85 424.73C1267.51 428.13 1012.83 503.45 1012.83 503.45C1012.83 503.45 1006.15 490.81 1006.64 485.79C1007.13 480.77 1178.77 405.56 1178.77 405.56L1023.62 411.43Z" fill="#562F5E"/>
<path d="M1089.63 445.109C1089.03 445.049 1088.48 444.669 1088.23 444.079C1087.86 443.209 1088.26 442.209 1089.13 441.839L1194.07 397.089C1194.94 396.719 1195.94 397.119 1196.31 397.989C1196.68 398.859 1196.28 399.86 1195.41 400.23L1090.47 444.98C1090.19 445.09 1089.91 445.129 1089.63 445.109Z" fill="#381144"/>
<path d="M1008.69 405.06C1008.69 405.06 1134.4 363.16 1141.38 363.16C1148.36 363.16 1236.82 398.08 1236.82 398.08L1100.04 448.89C1100.05 448.88 1015.68 419.02 1008.69 405.06Z" fill="#C8D4E3"/>
<path d="M1029.64 405.01L1040.87 409.5L1054.34 405.01L1043.11 400.52L1029.64 405.01Z" fill="#7B8790"/>
<path d="M1049.85 398.28L1061.07 402.77L1074.54 398.28L1063.32 393.79L1049.85 398.28Z" fill="#7B8790"/>
<path d="M1090.25 400.52L1101.48 405.01L1114.95 400.52L1103.72 396.03L1090.25 400.52Z" fill="#7B8790"/>
<path d="M1110.46 393.79L1121.68 398.28L1135.15 393.79L1123.92 389.3L1110.46 393.79Z" fill="#7B8790"/>
<path d="M1130.66 387.06L1141.88 391.55L1155.35 387.06L1144.13 382.57L1130.66 387.06Z" fill="#7B8790"/>
<path d="M1070.05 422.97L1081.27 427.46L1094.74 422.97L1083.52 418.48L1070.05 422.97Z" fill="#7B8790"/>
<path d="M1090.25 416.24L1101.48 420.73L1114.95 416.24L1103.72 411.75L1090.25 416.24Z" fill="#7B8790"/>
<path d="M1110.46 409.5L1121.68 413.99L1135.15 409.5L1123.92 405.01L1110.46 409.5Z" fill="#7B8790"/>
<path d="M1092.5 431.95L1103.72 436.44L1117.19 431.95L1105.97 427.46L1092.5 431.95Z" fill="#7B8790"/>
<path d="M1112.7 425.22L1123.92 429.71L1137.39 425.22L1126.17 420.73L1112.7 425.22Z" fill="#7B8790"/>
<path d="M1049.85 413.99L1061.07 418.48L1092.5 407.26L1081.27 402.77L1049.85 413.99Z" fill="#7B8790"/>
<path d="M1121.68 375.83L1132.9 380.32L1146.37 375.83L1135.15 371.34L1121.68 375.83Z" fill="#7B8790"/>
<path d="M1072.29 391.55L1083.52 396.03L1126.17 382.57L1112.7 378.08L1072.29 391.55Z" fill="#7B8790"/>
<path d="M1008.69 405.06C1008.69 405.06 1041.28 426.01 1104.13 444.63C1106.26 445.26 1156.32 360.15 1158.2 358.7C1160.4 357 1298.27 303.33 1298.52 304.61C1299.08 307.43 1295.39 313.29 1294.42 315.19C1292.01 319.87 1256.85 374.69 1243.5 393.04C1241.65 395.58 1239.59 398.75 1236.82 400.41C1225.18 407.39 1108.78 456.28 1099.47 453.95C1090.17 451.61 990.07 416.69 1008.69 405.06Z" fill="#91A1AD"/>
<path d="M1101.81 453.94C1101.4 453.94 1100.98 453.83 1100.6 453.6C1099.5 452.93 1099.16 451.5 1099.83 450.4C1100.09 449.98 1125.82 407.89 1158.05 357.25C1158.32 356.83 1158.71 356.51 1159.17 356.33L1296.52 302.79C1297.71 302.32 1299.07 302.91 1299.53 304.11C1300 305.31 1299.4 306.66 1298.21 307.12L1161.57 360.38C1129.55 410.7 1104.06 452.4 1103.8 452.82C1103.36 453.55 1102.59 453.94 1101.81 453.94Z" fill="#7B8790"/>
<path d="M1056.86 399.07C1056.86 399.07 1075.78 417.68 1078.42 415.33C1081.06 412.98 1073.87 407.56 1073.87 407.56C1073.87 407.56 1085.65 415.08 1091.02 413.56C1094.02 412.71 1081.49 405.5 1081.49 405.5C1081.49 405.5 1096.44 410.55 1099.08 408.21C1101.72 405.86 1084.27 400.66 1084.27 400.66C1084.27 400.66 1096.73 401.39 1096.88 398.89C1097.03 396.4 1084.57 395.67 1079.58 395.38C1079.58 395.38 1090.92 383.74 1074.89 390.11C1060.22 395.93 1047.62 386.02 1047.62 386.02L1056.86 399.07Z" fill="#F5735D"/>
<path d="M906.13 171.31C919.26 150.6 946.93 137.24 966.09 130.07C967.06 131.49 968.02 132.92 968.97 134.35C972.72 140.07 975.91 146.2 979.77 151.84L975.02 171.98C988.38 186.63 1000.21 231.04 1001.12 254.08C1005.33 360.62 1064.23 386.99 1064.23 386.99C1065.82 395.42 1057.03 403.24 1057.03 403.24C981.38 377.98 963.08 350.13 946.54 332.18C907.96 290.32 884.32 205.7 906.13 171.31Z" fill="#D30076"/>
<path d="M1247.09 78.5299C1255.12 68.2099 1411.52 67.7599 1425.3 76.9399C1439.08 86.1199 1441.21 213.78 1423.25 228.86C1407.71 241.91 1323.97 237.61 1274 233.06L1256.56 317.7L1260.75 231.69C1255.52 231.06 1251.9 230.47 1250.44 229.99C1232.07 223.86 1236.38 92.2999 1247.09 78.5299Z" fill="#D8E8EF"/>
<path d="M1379.37 136.28C1379.72 139.62 1378.56 143.65 1375.91 148.37C1372.8 153.44 1368.59 157.41 1363.3 160.29C1362.72 160.64 1362.03 161.04 1361.23 161.5L1360.37 162.02L1359.68 162.54C1357.37 164.15 1356.22 166.34 1356.22 169.11C1356.22 169.8 1356.33 173.26 1356.57 179.48V180.69C1356.57 181.61 1356.22 182.36 1355.53 182.94C1354.84 183.4 1354.09 183.52 1353.28 183.29C1352.7 183.18 1351.84 183.06 1350.69 182.94L1349.14 182.59L1347.58 182.42L1342.22 181.56L1336.35 180.7C1333.35 180.47 1331.4 180.35 1330.48 180.35C1329.67 180.24 1328.52 180.06 1327.02 179.83L1325.29 179.48L1323.39 179.13C1322.12 178.78 1321.37 177.75 1321.14 176.02C1320.8 174.06 1320.97 171.24 1321.66 167.55L1322.35 164.61L1322.87 161.85C1324.6 157.13 1328.05 153.62 1333.24 151.31L1338.6 149.06L1343.95 146.81C1346.94 145.2 1349.19 143.82 1350.69 142.66C1353.45 140.59 1354.84 137.59 1354.84 133.68C1354.72 129.65 1353.17 126.48 1350.18 124.18C1348.57 122.68 1346.26 122.05 1343.27 122.28C1340.62 122.4 1338.09 123.03 1335.67 124.18C1332.91 125.45 1331.35 127.75 1331.01 131.09C1330.89 131.44 1330.84 131.95 1330.84 132.64V133.68L1330.67 134.89C1330.44 136.73 1330.27 138 1330.15 138.69V139.9L1329.98 141.28C1329.64 143.01 1328.66 143.76 1327.04 143.53C1326.81 143.53 1326.46 143.47 1326 143.36L1324.62 143.19L1323.41 143.02H1322.03C1320.99 142.79 1319.44 142.62 1317.37 142.5H1314.95L1312.53 142.15L1306.31 141.63C1304.24 141.4 1303.26 140.19 1303.37 138C1303.6 128.67 1305.16 120.38 1308.03 113.12C1310.45 107.59 1313.15 103.1 1316.15 99.6498C1318.57 96.9998 1321.39 95.0998 1324.62 93.9498C1326.46 93.1498 1329.17 92.2198 1332.74 91.1898C1335.96 90.2698 1339.13 89.9798 1342.24 90.3298L1348.81 90.6698C1351.34 90.8998 1353.7 91.5898 1355.89 92.7398L1357.79 93.5998L1359.52 94.4598C1362.17 95.7298 1364.82 97.5698 1367.47 99.9898C1371.85 104.02 1375.07 109.38 1377.14 116.06C1378.75 122.86 1379.5 128.79 1379.39 133.85V136.28H1379.37ZM1349.66 188.11L1351.73 188.28C1353.69 188.63 1354.72 189.66 1354.84 191.39L1355.36 196.75L1357.09 208.84C1357.09 209.99 1357.03 210.62 1356.92 210.74C1356.8 211.66 1356.17 212.24 1355.02 212.47H1352.95C1349.38 211.89 1344.25 211.95 1337.57 212.64H1333.77C1333.42 212.64 1331.98 212.52 1329.45 212.29C1326.69 212.29 1325.19 211.08 1324.96 208.66L1324.44 205.03V203.48L1324.27 201.58C1324.16 200.54 1324.1 198.3 1324.1 194.84C1323.87 192.54 1324.9 191.21 1327.21 190.87C1330.32 190.41 1333.54 189.89 1336.88 189.32L1338.95 189.15L1340.68 188.8C1342.17 188.69 1343.21 188.57 1343.79 188.45L1346.04 188.28C1346.73 188.17 1347.3 188.11 1347.77 188.11H1349.66Z" fill="#562F5E"/>
<path d="M1171.54 194.74C1181.8 219.69 1166.13 239.32 1137.03 234.47C1107.92 229.62 1073.15 126.1 1073.15 126.1C1094.98 198.84 1115.54 226.99 1115.54 226.99L1115.04 263.77L1115.18 263.89C1136.75 258.42 1176.29 244.42 1177.46 215.06C1177.73 208.35 1175.36 201.19 1171.23 193.92C1171.34 194.2 1171.43 194.45 1171.54 194.74Z" fill="#B5106B"/>
<path d="M1138.65 245.79C1138.58 245.79 1138.51 245.79 1138.44 245.78C1113.5 242.45 1084.38 162.57 1083.15 159.17C1082.85 158.33 1083.28 157.4 1084.12 157.1C1084.96 156.8 1085.89 157.23 1086.19 158.07C1086.26 158.28 1093.72 178.83 1104.02 199.49C1117.46 226.43 1129.5 241.33 1138.86 242.58C1139.75 242.7 1140.37 243.51 1140.25 244.4C1140.14 245.2 1139.45 245.79 1138.65 245.79Z" fill="#81034F"/>
<path d="M1105.37 49.4799C1106.91 44.9099 1108.26 40.3499 1105.2 35.6699C1102.66 31.8099 1097.43 29.7299 1096.36 25.2299C1095.64 22.1999 1097.09 18.8099 1095.79 15.9799C1094.21 12.5599 1089.75 11.9599 1086.05 11.2599C1080.95 10.2999 1075.49 8.02986 1070.92 5.56986C1067.06 3.48986 1064.98 0.0398603 1059.96 -0.0101397C1056.92 -0.0401397 1053.96 1.05986 1050.93 1.14986C1048.62 1.21986 1046.33 0.70986 1044.04 0.45986C1034.19 -0.61014 1024.46 3.77986 1017.09 10.0299C1010.86 15.3099 1005.25 22.8599 996.26 22.6699C991.74 22.5799 987.13 17.6199 983.18 19.8199C970.16 27.0999 979.27 37.2999 979.48 41.6499C979.76 47.5899 963.36 53.7499 963.35 62.6799C963.33 79.1899 976.14 74.9599 980.02 79.1999C985.03 84.6699 979.79 96.2499 986.2 99.9899C998.89 107.41 998.4 90.5599 1010.06 97.0899C1019.2 102.21 1025.3 89.6899 1027.27 85.6099C1028.46 83.1399 1038.88 98.0199 1040.77 96.0399C1043.79 92.8599 1049.03 94.2499 1053.12 95.8199C1055.75 96.8299 1058.55 97.8399 1061.33 97.3399C1065.98 96.4999 1068.79 91.8599 1070.99 87.6799C1071.56 86.6099 1072.45 86.0899 1073.53 85.8199C1074.89 85.7399 1076.26 85.4699 1077.59 85.1699C1085.45 83.4099 1092.84 79.1499 1097.59 72.5499C1101.28 67.4099 1102.51 61.8099 1103.59 55.7099C1103.94 53.6399 1104.68 51.5599 1105.37 49.4799Z" fill="#582C5F"/>
<path d="M1084.76 36.25C1080.65 37.67 1069.58 32.3 1062.11 29.36C1054.65 26.42 1053.89 32.21 1036.93 41.76C1019.98 51.31 1008.08 39.15 1008.08 39.15L1007.64 55.58C1009.73 69.59 1003.43 72.69 999.07 76.05C994.71 79.4 994.55 65.64 980.53 67.73C968.64 69.5 968.48 57.27 968.7 53.53C965.75 56.28 963.34 59.29 963.34 62.7C963.32 79.21 976.13 74.98 980.01 79.22C985.02 84.69 979.78 96.27 986.19 100.01C998.88 107.43 998.39 90.58 1010.05 97.11C1019.19 102.23 1025.29 89.71 1027.26 85.63C1028.45 83.16 1038.87 98.04 1040.76 96.06C1043.78 92.88 1049.02 94.27 1053.11 95.84C1055.74 96.85 1058.54 97.86 1061.32 97.36C1065.97 96.52 1068.78 91.88 1070.98 87.7C1071.55 86.63 1072.44 86.11 1073.52 85.84C1074.88 85.76 1076.25 85.49 1077.58 85.19C1085.44 83.43 1092.83 79.17 1097.58 72.57C1101.27 67.43 1102.5 61.83 1103.58 55.73C1103.95 53.64 1104.69 51.56 1105.38 49.48C1105.85 48.09 1106.28 46.7 1106.6 45.3C1093.6 59.46 1084.76 36.25 1084.76 36.25Z" fill="#4A1C53"/>
<path d="M1016.78 60.6997C1016.78 60.6997 1001.82 30.3297 1008.79 17.5097C1008.91 17.2797 1004.01 16.6397 1000.72 22.6797C997.43 28.7197 1004.7 63.0397 1015.27 72.2797L1016.78 60.6997Z" fill="#3C95DF"/>
<path d="M1015.12 119.47L1026.76 78.98L1052.39 91.4L1046.38 124C1036.39 129.02 1024.47 124.82 1015.12 119.47Z" fill="#F3735D"/>
<path d="M1048.18 114.25C1043.59 112.75 1028.64 106.23 1032.99 86.1699L1050.82 99.9599L1048.18 114.25Z" fill="#E65653"/>
<path d="M1002.78 46.2198C1005.51 56.7298 1009.97 67.6498 1015.27 72.2798L1016.79 60.6998C1016.79 60.6998 1012.04 51.0598 1009.14 40.3398C1003.74 42.3598 1002.84 44.8998 1002.78 46.2198Z" fill="#1D84C4"/>
<path d="M1083.26 66.1699C1083.26 66.1699 1078 112.53 1056.08 106.03C1034.16 99.5399 1026.98 81.2999 1026.98 81.2999C1026.98 81.2999 1009.82 80.4199 1012.92 66.7799C1016.02 53.1399 1029.59 53.2099 1031.78 63.5199C1031.78 63.5199 1054.19 67.8599 1068.25 49.1699C1068.26 49.1699 1073.15 60.8499 1083.26 66.1699Z" fill="#F3735D"/>
<path d="M1032.34 64.3997C1032.4 64.4097 1032.46 64.4197 1032.52 64.4297C1051.78 66.3497 1064.01 54.8297 1068.28 49.9497C1073.72 62.6097 1087.6 69.2297 1088.22 69.5197C1088.95 69.8597 1089.83 69.5497 1090.18 68.8097C1090.52 68.0697 1090.21 67.1997 1089.47 66.8497C1089.32 66.7797 1074.3 59.5997 1070.15 46.5597L1069.23 43.6797L1067.53 46.1797C1067.41 46.3497 1055.24 63.7297 1032.81 61.4897C1032 61.4097 1031.28 61.9997 1031.2 62.8097C1031.12 63.5697 1031.62 64.2397 1032.34 64.3997Z" fill="#381144"/>
<path d="M1083 93.5596C1083.21 93.1296 1083.38 92.6496 1083.3 92.1796C1083.12 91.1596 1081.91 90.7196 1080.88 90.6596C1079.67 90.5896 1078.42 90.7896 1077.38 91.4296C1076.43 92.0096 1076 92.8896 1075.59 93.7996C1075.39 94.2396 1075.2 94.6896 1074.95 95.1296C1074.39 96.1096 1073.81 97.0496 1073.1 97.9296C1071.31 100.13 1068.83 101.89 1065.89 101.89C1059.42 101.89 1043.25 84.0996 1041.63 88.9496C1040.78 91.4896 1043.4 94.4496 1044.92 96.1696C1047.18 98.7496 1049.85 100.88 1052.35 103.22C1052.45 103.31 1052.55 103.41 1052.59 103.54C1052.67 103.75 1052.56 103.98 1052.48 104.19C1051.68 106.2 1052.66 108.75 1054.61 109.7C1054.77 109.78 1054.93 109.85 1055.03 110C1055.17 110.21 1055.1 110.49 1055.07 110.73C1054.92 111.72 1055.33 112.73 1055.99 113.48C1056.65 114.23 1057.53 114.75 1058.45 115.15C1058.65 115.24 1058.87 115.33 1059 115.51C1059.13 115.69 1059.16 115.92 1059.21 116.13C1059.59 117.97 1061.32 119.19 1062.94 120.15C1066.28 122.15 1069.85 123.96 1073.63 124.71L1082.3 119.74C1082.27 119.56 1082.23 119.38 1082.19 119.19C1081.94 117.85 1082.18 116.27 1082.18 114.9C1082.17 113.42 1082.16 111.95 1082.19 110.47C1082.2 109.95 1082.21 109.43 1082.1 108.93C1081.94 108.24 1081.57 107.62 1081.25 106.98C1080.19 104.85 1079.83 102.39 1080.16 100.03C1080.5 97.4896 1081.93 95.7996 1083 93.5596Z" fill="#E55857"/>
</g>
<defs>
<clipPath id="clip0_22_74">
<rect width="2424.19" height="1689.76" fill="white"/>
</clipPath>
</defs>
</svg>
