<svg width="160" height="180" viewBox="0 0 160 180" fill="none" xmlns="http://www.w3.org/2000/svg">
<g clip-path="url(#clip0_270_2)">
<mask id="mask0_270_2" style="mask-type:luminance" maskUnits="userSpaceOnUse" x="0" y="0" width="160" height="180">
<path d="M160 0H0V180H160V0Z" fill="white"/>
</mask>
<g mask="url(#mask0_270_2)">
<path d="M85.5005 172.25L72.0443 170.625L71.875 147.406L85.3398 149.033L85.5005 172.25Z" fill="#254B76"/>
<path d="M85.3379 149.033L71.873 147.406L89.1745 145.456L102.628 147.089L85.3379 149.033Z" fill="#254B76"/>
<path d="M102.628 147.088L102.8 170.299L85.4985 172.249L85.3379 149.032L102.628 147.088Z" fill="#C5A508"/>
<path d="M92.8585 93.4113C90.439 97.5563 88.5641 101.996 87.2802 106.62C85.6641 112.905 84.9028 119.38 85.0167 125.869C84.9594 128.583 85.0216 131.517 85.2124 134.729L71.759 133.096C70.8974 117.691 72.0525 102.243 81.1386 88.9859C86.8455 79.5952 95.9329 71.6432 98.8931 60.79C101.074 52.1819 97.8774 40.7619 90.3827 35.7694C88.5239 34.5142 86.4009 33.7045 84.1783 33.4031L97.1597 34.9698L97.6888 35.0356C99.7931 35.3688 101.811 36.1146 103.626 37.2304L103.712 37.258C105.108 38.2152 106.365 39.3605 107.447 40.6615C111.172 45.0679 113.156 50.6851 113.024 56.4535C113.075 59.6976 112.484 62.9197 111.283 65.934C110.033 69.0527 107.155 73.574 102.744 79.3199C99.1783 83.821 95.8773 88.5262 92.8585 93.4113Z" fill="#254B76"/>
<path d="M102.414 14.2443C99.4516 13.8845 96.4566 13.8765 93.4919 14.2207C88.3981 14.7175 83.4653 16.2782 79.0128 18.8019C74.5603 21.3255 70.6873 24.7559 67.6443 28.871C61.1221 37.3446 57.2509 49.053 56.0349 63.5992L55.7949 66.5872L42.3555 64.9397C44.401 27.8748 63.6945 5.57378 102.414 14.2443Z" fill="#254B76"/>
<path d="M93.4777 14.2641C104.729 13.0061 113.899 16.1841 120.741 23.7376C127.582 31.2911 131.17 41.2614 131.252 53.1884C131.352 59.8984 130.173 66.566 127.778 72.835C125.425 78.8822 121.015 86.0994 114.282 94.9324C110.063 100.465 107.3 104.511 106.069 106.952C104.842 109.437 103.968 112.082 103.474 114.81C102.895 117.85 102.576 122.91 102.526 129.879L102.534 132.805L85.2159 134.72L85.1257 131.844C85.0606 129.451 85.0184 127.606 84.9966 126.346C84.8502 119.696 85.613 113.058 87.2638 106.615C88.5477 101.99 90.4225 97.5508 92.8421 93.4059C95.846 88.5338 99.1358 83.8438 102.694 79.3606C107.107 73.5775 109.985 69.0562 111.238 65.9289C112.433 62.913 113.024 59.692 112.979 56.4484C113.105 50.6785 111.119 45.0611 107.393 40.6536C103.662 36.2645 99.2259 34.4197 93.8383 35.0304C88.6305 35.6136 84.4321 38.1918 81.0161 42.9102C77.6 47.6286 75.3195 54.9235 74.2723 64.5796L73.9595 67.4398L55.7773 66.582L56.026 63.5967C57.2333 49.0478 61.1448 37.3618 67.6439 28.8713C70.6875 24.7637 74.5597 21.3411 79.0099 18.8248C83.4601 16.3086 88.389 14.7548 93.4777 14.2641Z" fill="#C5A508"/>
</g>
</g>
<defs>
<clipPath id="clip0_270_2">
<rect width="160" height="180" fill="white"/>
</clipPath>
</defs>
</svg>
