<svg width="470" height="427" viewBox="0 0 470 427" fill="none" xmlns="http://www.w3.org/2000/svg">
<g clip-path="url(#clip0_1_13)">
<mask id="mask0_1_13" style="mask-type:luminance" maskUnits="userSpaceOnUse" x="0" y="0" width="470" height="427">
<path d="M470 0H0V427H470V0Z" fill="white"/>
</mask>
<g mask="url(#mask0_1_13)">
<mask id="mask1_1_13" style="mask-type:luminance" maskUnits="userSpaceOnUse" x="0" y="0" width="470" height="427">
<path d="M470 0H0V427H470V0Z" fill="white"/>
</mask>
<g mask="url(#mask1_1_13)">
<path d="M234.65 36.1299C235.3 31.4499 228.65 27.5999 223.73 27.1999C221.36 27.0099 218.9 27.3699 216.66 26.5899C211.8 24.8999 209.86 18.5899 205.12 16.5899C201.58 15.0899 197.49 16.4199 194.06 18.1499C190.63 19.8799 187.23 22.0599 183.39 22.3099C180.05 22.5199 176.39 21.3099 173.5 22.9099C171.32 24.1299 170.18 26.6399 168.18 28.1199C166.18 29.5999 163.65 29.8699 161.18 29.9999C158.71 30.1299 156.18 30.1599 154 31.1799C151.82 32.1999 150 34.5399 150.41 36.9299L234.65 36.1299Z" fill="#EBEBEB"/>
<path d="M430 121.84C430.65 117.16 424 113.3 419.08 112.9C416.71 112.71 414.25 113.08 412.01 112.29C407.15 110.6 405.21 104.29 400.47 102.29C396.92 100.8 392.84 102.13 389.41 103.86C385.98 105.59 382.58 107.77 378.74 108.01C375.4 108.22 371.74 107.01 368.85 108.62C366.67 109.83 365.53 112.34 363.53 113.82C361.53 115.3 359 115.58 356.53 115.71C354.06 115.84 351.53 115.87 349.35 116.88C347.17 117.89 345.3 120.24 345.76 122.64L430 121.84Z" fill="#EBEBEB"/>
<path d="M28.7101 4.32983H19.5801V193.91H28.7101V4.32983Z" fill="#FAFAFA"/>
<path d="M168.839 4.32983H159.709V193.91H168.839V4.32983Z" fill="#FAFAFA"/>
<path d="M308.98 4.32983H299.85V193.91H308.98V4.32983Z" fill="#FAFAFA"/>
<path d="M449.12 4.32983H439.99V193.91H449.12V4.32983Z" fill="#FAFAFA"/>
<path d="M0.71875 369.66H466.789V189.96H0.71875V369.66Z" fill="#FAFAFA"/>
<path d="M446 4.93993C446 5.08993 350.63 5.19993 233 5.19993C115.37 5.19993 20 5.08993 20 4.93993C20 4.78993 115.35 4.67993 233 4.67993C350.65 4.67993 446 4.79993 446 4.93993Z" fill="#F5F5F5"/>
<path d="M365.389 369.51H353.799V214.86C353.799 214.098 353.949 213.344 354.24 212.64C354.532 211.937 354.959 211.297 355.498 210.759C356.036 210.22 356.676 209.793 357.379 209.501C358.083 209.21 358.837 209.06 359.599 209.06C361.136 209.063 362.608 209.675 363.694 210.762C364.779 211.85 365.389 213.323 365.389 214.86V369.51Z" fill="#E0E0E0"/>
<path d="M397 369.51H385.41V214.86C385.41 213.323 386.02 211.85 387.105 210.762C388.191 209.675 389.663 209.063 391.2 209.06C391.962 209.06 392.716 209.21 393.42 209.501C394.123 209.793 394.763 210.22 395.301 210.759C395.84 211.297 396.267 211.937 396.559 212.64C396.85 213.344 397 214.098 397 214.86V369.51Z" fill="#E0E0E0"/>
<path d="M389.12 209.63H361.34C360.786 209.63 360.254 209.41 359.862 209.018C359.47 208.626 359.25 208.094 359.25 207.54C359.253 206.987 359.474 206.458 359.866 206.069C360.257 205.679 360.787 205.46 361.34 205.46H389.12C389.393 205.46 389.664 205.514 389.916 205.618C390.168 205.723 390.398 205.876 390.591 206.069C390.784 206.262 390.937 206.492 391.042 206.744C391.146 206.996 391.2 207.267 391.2 207.54C391.201 207.814 391.148 208.086 391.045 208.339C390.941 208.593 390.788 208.823 390.594 209.017C390.401 209.211 390.171 209.366 389.918 209.471C389.665 209.576 389.394 209.63 389.12 209.63Z" fill="#E0E0E0"/>
<path d="M367.66 212.33C366.909 212.327 366.189 212.027 365.658 211.495C365.128 210.962 364.83 210.241 364.83 209.49V204.84C364.83 204.089 365.128 203.37 365.659 202.839C366.19 202.308 366.909 202.01 367.66 202.01C368.411 202.01 369.13 202.308 369.661 202.839C370.192 203.37 370.49 204.089 370.49 204.84V209.49C370.49 210.241 370.192 210.962 369.662 211.495C369.131 212.027 368.411 212.327 367.66 212.33Z" fill="#E0E0E0"/>
<path d="M372.859 212.33C372.108 212.327 371.388 212.027 370.857 211.495C370.327 210.962 370.029 210.241 370.029 209.49V204.84C370.029 204.089 370.327 203.37 370.858 202.839C371.389 202.308 372.108 202.01 372.859 202.01C373.61 202.01 374.329 202.308 374.86 202.839C375.391 203.37 375.689 204.089 375.689 204.84V209.49C375.69 209.862 375.618 210.232 375.476 210.576C375.335 210.921 375.127 211.234 374.864 211.498C374.601 211.761 374.288 211.971 373.944 212.114C373.6 212.256 373.231 212.33 372.859 212.33Z" fill="#E0E0E0"/>
<path d="M378.06 212.33C377.309 212.327 376.589 212.027 376.058 211.495C375.528 210.962 375.23 210.241 375.23 209.49V204.84C375.23 204.089 375.528 203.37 376.059 202.839C376.59 202.308 377.309 202.01 378.06 202.01C378.811 202.01 379.532 202.308 380.065 202.838C380.597 203.369 380.897 204.089 380.9 204.84V209.49C380.9 210.243 380.601 210.966 380.068 211.498C379.536 212.031 378.813 212.33 378.06 212.33Z" fill="#E0E0E0"/>
<path d="M383.27 202.01H383.26C381.697 202.01 380.43 203.277 380.43 204.84V209.5C380.43 211.063 381.697 212.33 383.26 212.33H383.27C384.833 212.33 386.1 211.063 386.1 209.5V204.84C386.1 203.277 384.833 202.01 383.27 202.01Z" fill="#E0E0E0"/>
<path d="M427.11 369.51H415.52V214.86C415.52 213.323 416.13 211.85 417.215 210.762C418.301 209.675 419.773 209.063 421.31 209.06C422.072 209.06 422.826 209.21 423.53 209.501C424.233 209.793 424.873 210.22 425.411 210.759C425.95 211.297 426.377 211.937 426.668 212.64C426.96 213.344 427.11 214.098 427.11 214.86V369.51Z" fill="#E0E0E0"/>
<path d="M419.219 209.63H391.449C391.174 209.631 390.902 209.578 390.648 209.474C390.393 209.369 390.163 209.215 389.968 209.021C389.774 208.826 389.62 208.596 389.515 208.341C389.411 208.087 389.358 207.815 389.359 207.54C389.359 207.266 389.413 206.995 389.518 206.742C389.623 206.489 389.778 206.259 389.972 206.066C390.166 205.872 390.396 205.719 390.65 205.615C390.903 205.512 391.175 205.459 391.449 205.46H419.219C419.493 205.459 419.765 205.512 420.018 205.615C420.272 205.719 420.502 205.872 420.696 206.066C420.89 206.259 421.045 206.489 421.15 206.742C421.255 206.995 421.309 207.266 421.309 207.54C421.31 207.815 421.257 208.087 421.153 208.341C421.048 208.596 420.894 208.826 420.7 209.021C420.505 209.215 420.275 209.369 420.02 209.474C419.766 209.578 419.494 209.631 419.219 209.63Z" fill="#E0E0E0"/>
<path d="M397.77 212.33C397.017 212.33 396.294 212.031 395.762 211.498C395.229 210.966 394.93 210.243 394.93 209.49V204.84C394.933 204.089 395.233 203.369 395.765 202.838C396.298 202.308 397.019 202.01 397.77 202.01C398.521 202.01 399.24 202.308 399.771 202.839C400.302 203.37 400.6 204.089 400.6 204.84V209.49C400.6 210.241 400.302 210.962 399.772 211.495C399.241 212.027 398.521 212.327 397.77 212.33Z" fill="#E0E0E0"/>
<path d="M403 212.33C402.247 212.33 401.524 212.031 400.992 211.498C400.459 210.966 400.16 210.243 400.16 209.49V204.84C400.16 204.087 400.459 203.364 400.992 202.832C401.524 202.299 402.247 202 403 202C403.751 202 404.47 202.298 405.001 202.829C405.532 203.36 405.83 204.079 405.83 204.83V209.48C405.831 209.853 405.759 210.223 405.618 210.568C405.476 210.913 405.268 211.226 405.005 211.491C404.742 211.756 404.43 211.966 404.086 212.11C403.742 212.254 403.373 212.329 403 212.33Z" fill="#E0E0E0"/>
<path d="M408.17 212.33C407.798 212.33 407.429 212.256 407.085 212.114C406.741 211.971 406.428 211.761 406.165 211.498C405.902 211.234 405.694 210.921 405.553 210.576C405.411 210.232 405.339 209.862 405.34 209.49V204.84C405.34 204.089 405.638 203.37 406.169 202.839C406.7 202.308 407.419 202.01 408.17 202.01C408.921 202.01 409.64 202.308 410.171 202.839C410.702 203.37 411 204.089 411 204.84V209.49C411 210.241 410.702 210.962 410.172 211.495C409.641 212.027 408.921 212.327 408.17 212.33Z" fill="#E0E0E0"/>
<path d="M413.369 212.33C412.996 212.33 412.628 212.256 412.284 212.114C411.94 211.971 411.627 211.761 411.364 211.498C411.101 211.234 410.893 210.921 410.752 210.576C410.61 210.232 410.538 209.862 410.539 209.49V204.84C410.539 204.089 410.837 203.37 411.368 202.839C411.899 202.308 412.618 202.01 413.369 202.01C414.12 202.01 414.839 202.308 415.37 202.839C415.901 203.37 416.199 204.089 416.199 204.84V209.49C416.199 210.241 415.901 210.962 415.371 211.495C414.84 212.027 414.12 212.327 413.369 212.33Z" fill="#E0E0E0"/>
<path d="M125.17 111.53C125.82 106.85 119.17 103 114.25 102.6C111.88 102.41 109.42 102.77 107.18 101.99C102.32 100.29 100.38 93.9898 95.64 91.9898C92.1 90.4898 88.02 91.8198 84.58 93.5498C81.14 95.2798 77.75 97.4598 73.91 97.6998C70.57 97.9198 66.91 96.6998 64.02 98.3098C61.85 99.5198 60.71 102.03 58.7 103.51C56.69 104.99 54.18 105.27 51.7 105.4C49.22 105.53 46.7 105.56 44.52 106.57C42.34 107.58 40.51 110 41 112.36L125.17 111.53Z" fill="#EBEBEB"/>
<path d="M469.81 369.58C469.81 369.73 364.67 369.84 235.01 369.84C105.35 369.84 0.189453 369.73 0.189453 369.58C0.189453 369.43 105.31 369.32 235.01 369.32C364.71 369.32 469.81 369.44 469.81 369.58Z" fill="#263238"/>
<path d="M93.5488 353.82C94.3365 354.349 95.0553 354.974 95.6888 355.68C97.2825 357.312 98.7064 359.101 99.9388 361.02C101.171 362.942 102.199 364.986 103.009 367.12C103.388 367.986 103.653 368.896 103.799 369.83C103.373 368.996 102.996 368.138 102.669 367.26C100.877 363.118 98.4285 359.293 95.4188 355.93C94.7571 355.262 94.1328 354.557 93.5488 353.82Z" fill="#263238"/>
<path d="M106.299 352.69C106.434 353.509 106.491 354.34 106.469 355.17C106.529 356.7 106.629 358.81 106.839 361.17C107.049 363.53 107.319 365.59 107.529 367.1C107.697 367.913 107.79 368.74 107.809 369.57C107.498 368.796 107.283 367.987 107.169 367.16C106.393 363.225 106.034 359.22 106.099 355.21C106.059 354.365 106.126 353.518 106.299 352.69Z" fill="#263238"/>
<path d="M119.719 355.38C115.947 359.627 113.209 364.689 111.719 370.17C111.751 369.33 111.899 368.499 112.159 367.7C112.688 365.739 113.443 363.847 114.409 362.06C115.379 360.266 116.55 358.589 117.899 357.06C118.427 356.42 119.039 355.855 119.719 355.38Z" fill="#263238"/>
<path d="M56.8887 409.07C57.6648 409.602 58.3733 410.227 58.9987 410.93C62.2007 414.198 64.6928 418.093 66.3187 422.37C66.6973 423.236 66.9629 424.146 67.1087 425.08C66.6948 424.243 66.3243 423.385 65.9987 422.51C64.2064 418.368 61.7584 414.543 58.7487 411.18C58.0845 410.517 57.4633 409.812 56.8887 409.07Z" fill="#263238"/>
<path d="M69.6289 407.94C69.7642 408.759 69.8212 409.59 69.7989 410.42C69.8589 411.95 69.9589 414.06 70.1689 416.42C70.3789 418.78 70.6489 420.84 70.8689 422.35C71.0372 423.163 71.1276 423.99 71.1389 424.82C70.8275 424.046 70.6126 423.237 70.4989 422.41C70.1118 420.443 69.8281 418.457 69.6489 416.46C69.4692 414.465 69.3958 412.462 69.4289 410.46C69.3939 409.615 69.4611 408.769 69.6289 407.94Z" fill="#263238"/>
<path d="M83.0588 410.63C81.2462 412.801 79.6172 415.119 78.1888 417.56C76.9239 420.087 75.8735 422.717 75.0488 425.42C75.074 424.58 75.2188 423.749 75.4788 422.95C76.0149 420.99 76.7731 419.098 77.7388 417.31C78.6995 415.513 79.8674 413.835 81.2188 412.31C81.7513 411.667 82.3706 411.102 83.0588 410.63Z" fill="#263238"/>
<path d="M381 410.42C381.783 410.951 382.498 411.576 383.13 412.28C384.727 413.909 386.151 415.699 387.38 417.62C388.615 419.54 389.644 421.584 390.45 423.72C390.829 424.586 391.098 425.497 391.25 426.43C390.817 425.595 390.436 424.733 390.11 423.85C389.21 421.773 388.154 419.767 386.95 417.85C385.726 415.958 384.358 414.163 382.86 412.48C382.197 411.833 381.576 411.145 381 410.42Z" fill="#263238"/>
<path d="M393.72 409.29C393.855 410.109 393.912 410.94 393.89 411.77C393.95 413.29 394.06 415.4 394.26 417.77C394.46 420.14 394.739 422.19 394.959 423.7C395.127 424.513 395.219 425.34 395.23 426.17C394.924 425.394 394.709 424.585 394.589 423.76C394.2 421.776 393.916 419.774 393.739 417.76C393.564 415.765 393.491 413.762 393.519 411.76C393.494 410.932 393.562 410.103 393.72 409.29Z" fill="#263238"/>
<path d="M407.149 412C405.342 414.173 403.716 416.491 402.289 418.93C401.017 421.455 399.963 424.085 399.139 426.79C399.165 425.95 399.313 425.118 399.579 424.32C400.639 420.389 402.601 416.76 405.309 413.72C405.839 413.063 406.458 412.484 407.149 412Z" fill="#263238"/>
<path d="M231.23 403.67C232.018 404.191 232.734 404.813 233.36 405.52C236.567 408.8 239.059 412.709 240.68 417C241.059 417.866 241.324 418.776 241.47 419.71C241.047 418.875 240.67 418.017 240.34 417.14C238.548 412.998 236.1 409.173 233.09 405.81C232.426 405.136 231.805 404.421 231.23 403.67Z" fill="#263238"/>
<path d="M243.999 402.53C244.134 403.349 244.191 404.18 244.169 405.01C244.229 406.54 244.329 408.65 244.539 411.01C244.749 413.37 245.019 415.43 245.239 416.95C245.408 417.763 245.499 418.59 245.509 419.42C245.201 418.645 244.987 417.836 244.869 417.01C244.481 415.026 244.197 413.024 244.019 411.01C243.84 409.015 243.766 407.013 243.799 405.01C243.769 404.178 243.836 403.346 243.999 402.53Z" fill="#263238"/>
<path d="M257.389 405.23C255.58 407.401 253.954 409.719 252.529 412.16C251.263 414.684 250.213 417.31 249.389 420.01C249.414 419.17 249.559 418.339 249.819 417.54C250.355 415.583 251.114 413.694 252.079 411.91C253.04 410.114 254.208 408.436 255.559 406.91C256.086 406.266 256.703 405.701 257.389 405.23Z" fill="#263238"/>
<path d="M49.36 329.42C50.2951 329.857 51.1318 330.48 51.8194 331.25C52.5069 332.02 53.031 332.922 53.36 333.9C53.9926 335.858 54.1704 337.933 53.88 339.97C53.44 343.91 51.2 347.88 48.79 351.03C45.48 348.13 44.71 343.09 44.49 340.5C44.13 336.41 45.96 328.81 49.4 329.42" fill="#EF6957"/>
<path d="M52.6098 357.53C52.3819 356.405 52.4562 355.239 52.8251 354.152C53.194 353.065 53.8442 352.094 54.7098 351.34C55.5867 350.599 56.6027 350.04 57.6982 349.697C58.7937 349.354 59.9468 349.232 61.0898 349.34C61.618 349.332 62.1416 349.439 62.6236 349.655C63.1057 349.871 63.5345 350.19 63.8798 350.59C64.1399 351.012 64.2818 351.497 64.2906 351.993C64.2994 352.489 64.1748 352.979 63.9298 353.41C63.429 354.271 62.7075 354.982 61.8398 355.47C58.9698 357.27 55.8398 358.47 52.6098 357.47" fill="#EF6957"/>
<path d="M48.3496 369.6C48.3685 369.327 48.4086 369.056 48.4696 368.79C48.5796 368.22 48.7096 367.49 48.8696 366.61C49.2426 364.171 50.0056 361.807 51.1296 359.61C52.2974 357.424 54.0223 355.585 56.1296 354.28C56.7604 353.906 57.4313 353.604 58.1296 353.38C58.3221 353.315 58.5194 353.265 58.7196 353.23C58.789 353.216 58.8603 353.216 58.9296 353.23C57.9734 353.55 57.0546 353.972 56.1896 354.49C54.1445 355.812 52.4688 357.633 51.3196 359.78C50.2156 361.951 49.4373 364.272 49.0096 366.67C48.8096 367.58 48.6496 368.32 48.5196 368.83C48.4863 369.091 48.4294 369.349 48.3496 369.6Z" fill="#263238"/>
<path d="M48.4798 335.33C48.4897 335.45 48.4897 335.57 48.4798 335.69C48.4798 335.95 48.4798 336.29 48.5398 336.69C48.5898 337.57 48.6398 338.85 48.6898 340.43C48.7898 343.58 48.8698 347.94 48.8498 352.76C48.8298 357.58 48.7098 361.94 48.5798 365.09C48.5198 366.67 48.4498 367.95 48.3998 368.83C48.3998 369.24 48.3998 369.58 48.3298 369.83C48.34 369.946 48.34 370.064 48.3298 370.18C48.3146 370.064 48.3146 369.946 48.3298 369.83V368.83C48.3298 367.91 48.3798 366.65 48.4198 365.1C48.4998 361.94 48.5798 357.58 48.5998 352.77C48.6198 347.96 48.5998 343.6 48.5298 340.44C48.5298 338.89 48.4798 337.62 48.4698 336.71C48.4698 336.29 48.4698 335.95 48.4698 335.71C48.4568 335.583 48.4601 335.456 48.4798 335.33Z" fill="#263238"/>
<path d="M46.8695 359.92C46.4672 357.535 45.5028 355.279 44.056 353.34C42.6093 351.401 40.7217 349.835 38.5495 348.77C37.4495 348.24 35.9995 347.89 35.0895 348.77C34.1795 349.65 34.3795 351.07 34.8295 352.22C35.8043 354.604 37.4653 356.645 39.6018 358.083C41.7382 359.522 44.2539 360.293 46.8295 360.3" fill="#EF6957"/>
<path d="M39.0885 352.5C39.3286 352.587 39.5625 352.691 39.7885 352.81C40.0185 352.92 40.2885 353.05 40.5885 353.23C40.9325 353.426 41.2663 353.64 41.5885 353.87C41.9911 354.138 42.3783 354.429 42.7485 354.74C43.1852 355.09 43.6025 355.464 43.9985 355.86C44.8904 356.767 45.6755 357.774 46.3385 358.86C46.9905 359.958 47.5107 361.13 47.8885 362.35C48.047 362.883 48.1772 363.424 48.2785 363.97C48.3717 364.442 48.4351 364.92 48.4685 365.4C48.5163 365.798 48.5363 366.199 48.5285 366.6C48.5503 366.9 48.5503 367.2 48.5285 367.5C48.5286 367.755 48.5018 368.01 48.4485 368.26C48.3785 368.26 48.4985 367.16 48.2985 365.42C48.2278 364.941 48.1277 364.467 47.9985 364C47.8922 363.463 47.7554 362.932 47.5885 362.41C47.2179 361.221 46.7147 360.077 46.0885 359C45.4358 357.92 44.6679 356.914 43.7985 356C43.3885 355.6 43.0085 355.21 42.6085 354.88C42.2085 354.55 41.8285 354.26 41.4785 353.99C40.0585 353 39.0585 352.56 39.0885 352.5Z" fill="#263238"/>
<path d="M404.689 50.93C406.136 44.7686 402.315 38.6004 396.153 37.153C389.992 35.7055 383.824 39.527 382.376 45.6885C380.929 51.8499 384.75 58.0181 390.912 59.4656C397.073 60.913 403.241 57.0915 404.689 50.93Z" fill="#EF6957"/>
<path d="M391.88 73.93C391.758 72.3565 391.718 70.7777 391.76 69.2C391.718 67.6223 391.758 66.0435 391.88 64.47C392.002 66.0435 392.042 67.6223 392 69.2C392.042 70.7777 392.002 72.3565 391.88 73.93Z" fill="#EF6957"/>
<path d="M385.27 61.8099C385.33 61.8099 384.27 63.8099 382.87 66.2199C381.47 68.6299 380.31 70.5399 380.25 70.5099C380.19 70.4799 381.25 68.5099 382.66 66.0999C384.07 63.6899 385.22 61.7799 385.27 61.8099Z" fill="#EF6957"/>
<path d="M378.49 57.5898C377.655 58.412 376.763 59.1739 375.82 59.8698C374.93 60.6442 373.988 61.3559 373 61.9998C373.843 61.1821 374.738 60.4205 375.68 59.7198C376.564 58.9431 377.503 58.2313 378.49 57.5898Z" fill="#EF6957"/>
<path d="M403.319 69.2699C403.177 68.8946 403.073 68.506 403.009 68.1099C402.849 67.3899 402.609 66.3899 402.319 65.2999C402.029 64.2099 401.729 63.2399 401.509 62.5299C401.369 62.1532 401.262 61.7651 401.189 61.3699C401.389 61.718 401.55 62.0868 401.669 62.4699C402.011 63.377 402.305 64.3016 402.549 65.2399C402.807 66.1753 403.017 67.1232 403.179 68.0799C403.266 68.4708 403.313 68.8695 403.319 69.2699Z" fill="#EF6957"/>
<path d="M414.94 61C413.76 60.1289 412.628 59.1942 411.55 58.2C410.424 57.2548 409.346 56.2536 408.32 55.2C409.502 56.0681 410.634 57.003 411.71 58C412.842 58.9388 413.92 59.9404 414.94 61Z" fill="#EF6957"/>
<path d="M419.4 49.6799C418.932 49.6574 418.467 49.5938 418.01 49.4899C417.16 49.3399 416.01 49.1599 414.69 49.0099C413.37 48.8599 412.2 48.7699 411.34 48.7199C410.891 48.7176 410.443 48.6775 410 48.5999C410.462 48.5549 410.928 48.5549 411.39 48.5999C412.26 48.5999 413.45 48.6699 414.76 48.8199C415.879 48.9453 416.99 49.1288 418.09 49.3699C418.535 49.4322 418.974 49.5359 419.4 49.6799Z" fill="#EF6957"/>
<path d="M419.41 38.5399C419.41 38.5999 416.94 39.2599 413.87 40.0099C410.8 40.7599 408.28 41.3099 408.27 41.2499C408.26 41.1899 410.73 40.5199 413.81 39.7699C416.89 39.0199 419.39 38.4699 419.41 38.5399Z" fill="#EF6957"/>
<path d="M406.46 25.5498C406.51 25.5498 405.32 27.4798 403.8 29.7798C402.936 31.1894 402.002 32.5545 401 33.8698C400.95 33.8698 402.13 31.9398 403.65 29.6398C404.515 28.2286 405.453 26.8634 406.46 25.5498Z" fill="#EF6957"/>
<path d="M393.6 22.8298C393.64 23.3557 393.64 23.8839 393.6 24.4098C393.6 25.4098 393.6 26.7198 393.6 28.1998C393.6 29.6798 393.6 31.0198 393.6 31.9898C393.64 32.5124 393.64 33.0372 393.6 33.5598C393.51 33.0411 393.46 32.5162 393.45 31.9898C393.39 30.9898 393.34 29.6798 393.34 28.1998C393.34 26.7198 393.34 25.3698 393.44 24.3998C393.454 23.8732 393.507 23.3484 393.6 22.8298Z" fill="#EF6957"/>
<path d="M383.87 35C383.81 35 382.6 33.16 381.17 30.81C379.74 28.46 378.62 26.54 378.68 26.51C379.649 27.8574 380.55 29.2524 381.38 30.69C382.81 33 383.92 34.92 383.87 35Z" fill="#EF6957"/>
<path d="M378.05 39.9C377.637 39.876 377.229 39.809 376.83 39.7C376.09 39.55 375.06 39.3 373.95 38.97C372.84 38.64 371.84 38.3 371.13 37.97C370.736 37.8455 370.357 37.6778 370 37.47C370.405 37.5512 370.803 37.6649 371.19 37.81C371.91 38.04 372.91 38.36 374.02 38.69C375.13 39.02 376.14 39.29 376.87 39.49C377.276 39.5857 377.672 39.7231 378.05 39.9Z" fill="#EF6957"/>
<path d="M375.51 48.7C374.302 48.9414 373.079 49.1018 371.85 49.18C370.63 49.3371 369.4 49.414 368.17 49.41C369.378 49.1701 370.601 49.0128 371.83 48.9398C373.05 48.7829 374.28 48.7029 375.51 48.7Z" fill="#EF6957"/>
<path d="M98.2297 50.9999C98.2297 50.9999 97.6697 50.8099 96.6397 50.5799C95.1784 50.2578 93.6713 50.2002 92.1897 50.4099C89.9896 50.6986 87.9127 51.5917 86.1897 52.9899C84.1042 54.7104 82.6338 57.0617 81.9997 59.6899V59.7599L81.8797 60.2399L81.6997 59.7899C80.6674 57.2841 78.8997 55.1503 76.6297 53.6699C74.7779 52.4699 72.6511 51.7609 70.4497 51.6099C68.955 51.4934 67.4513 51.6251 65.9997 51.9999C64.9997 52.2599 64.4397 52.4999 64.4297 52.4699L64.8197 52.2899C65.202 52.1261 65.5966 51.9924 65.9997 51.8899C67.4499 51.4673 68.9615 51.2948 70.4697 51.3799C72.7167 51.4907 74.897 52.1796 76.7997 53.3799C79.1374 54.8933 80.9528 57.0893 81.9997 59.6699H81.6897V59.5899C82.3368 56.8959 83.8511 54.4892 85.9997 52.7399C87.4782 51.5629 89.2084 50.743 91.0556 50.3441C92.9029 49.9452 94.8172 49.9779 96.6497 50.4399C97.0483 50.5341 97.4394 50.6578 97.8197 50.8099C97.9638 50.8557 98.1016 50.9195 98.2297 50.9999Z" fill="#263238"/>
<path d="M127.68 60.7899C127.68 60.7899 127.37 60.6999 126.8 60.5799C125.999 60.4226 125.178 60.3989 124.37 60.5099C123.173 60.68 122.046 61.1745 121.11 61.9399C119.965 62.8727 119.157 64.1547 118.81 65.5899L118.69 66.0699L118.5 65.62C117.946 64.2548 116.986 63.0924 115.75 62.2899C114.744 61.626 113.583 61.2333 112.38 61.1499C111.568 61.0882 110.752 61.1523 109.96 61.3399C109.4 61.4799 109.1 61.5999 109.09 61.5799C109.154 61.5304 109.225 61.49 109.3 61.4599C109.44 61.3999 109.65 61.3099 109.93 61.2199C110.73 60.9795 111.566 60.878 112.4 60.9199C113.648 60.9788 114.859 61.3651 115.91 62.0399C117.211 62.8636 118.221 64.0734 118.8 65.4999H118.5C118.862 63.9939 119.713 62.6504 120.92 61.6799C121.903 60.8949 123.089 60.4059 124.34 60.2699C125.173 60.172 126.018 60.2296 126.83 60.4399C127.048 60.4987 127.262 60.5722 127.47 60.6599C127.62 60.7399 127.69 60.7799 127.68 60.7899Z" fill="#263238"/>
<path d="M111.29 11.31C111.29 11.31 110.98 11.66 110.43 12.31C107.089 16.1231 105.248 21.0204 105.25 26.09V26.23H104.92C104.607 24.1511 103.93 22.1437 102.92 20.3C102.115 18.792 101.105 17.4023 99.9197 16.17C99.1071 15.3434 98.22 14.5936 97.2697 13.93C96.5997 13.46 96.2097 13.23 96.2697 13.2C96.3769 13.2341 96.4781 13.2847 96.5697 13.35C96.8522 13.4938 97.126 13.6541 97.3897 13.83C98.3325 14.4609 99.2072 15.1882 99.9997 16C101.241 17.2235 102.302 18.6175 103.15 20.14C104.186 22.0023 104.884 24.0338 105.21 26.14H104.89V26C104.894 22.0958 106.026 18.276 108.15 15C108.79 14.0088 109.523 13.0813 110.34 12.23C110.62 11.92 110.87 11.71 111.03 11.56C111.19 11.41 111.28 11.3 111.29 11.31Z" fill="#263238"/>
<path d="M40.7791 215.78C47.2629 215.78 52.5191 210.524 52.5191 204.04C52.5191 197.556 47.2629 192.3 40.7791 192.3C34.2953 192.3 29.0391 197.556 29.0391 204.04C29.0391 210.524 34.2953 215.78 40.7791 215.78Z" fill="#E0E0E0"/>
<path d="M52.5204 204C52.4295 203.044 52.2758 202.096 52.0604 201.16C51.3802 198.623 49.8698 196.388 47.7704 194.81C46.2311 193.652 44.4262 192.897 42.5203 192.616C40.6145 192.335 38.6686 192.536 36.8604 193.2C35.8299 193.586 34.8652 194.129 34.0004 194.81C33.0661 195.486 32.2487 196.31 31.5804 197.25C30.1314 199.217 29.3498 201.597 29.3498 204.04C29.3498 206.483 30.1314 208.863 31.5804 210.83C32.9225 212.661 34.7773 214.053 36.9104 214.83C38.7186 215.494 40.6645 215.695 42.5703 215.414C44.4762 215.133 46.2811 214.378 47.8204 213.22C49.9198 211.642 51.4302 209.407 52.1104 206.87C52.3258 205.934 52.4795 204.986 52.5704 204.03C52.5986 204.279 52.5986 204.531 52.5704 204.78C52.5729 205.085 52.5495 205.389 52.5004 205.69C52.4582 206.105 52.3847 206.516 52.2804 206.92C51.6621 209.55 50.1491 211.883 48.0004 213.52C46.5344 214.658 44.8218 215.435 43.0004 215.79C40.8975 216.191 38.7258 216.021 36.7104 215.3C35.632 214.915 34.6199 214.365 33.7104 213.67C32.7295 212.969 31.8713 212.111 31.1704 211.13C29.6505 209.079 28.8301 206.593 28.8301 204.04C28.8301 201.487 29.6505 199.001 31.1704 196.95C31.8713 195.969 32.7295 195.111 33.7104 194.41C34.6199 193.715 35.632 193.165 36.7104 192.78C38.7258 192.059 40.8975 191.889 43.0004 192.29C44.8218 192.645 46.5344 193.422 48.0004 194.56C50.136 196.2 51.6378 198.528 52.2504 201.15C52.3547 201.554 52.4282 201.965 52.4704 202.38C52.5195 202.681 52.5429 202.985 52.5404 203.29C52.559 203.527 52.5523 203.765 52.5204 204Z" fill="#263238"/>
<path d="M51.2998 199.2C51.1366 199.474 50.9345 199.724 50.6998 199.94C50.0783 200.561 49.4096 201.133 48.6998 201.65C46.3946 203.382 43.7229 204.562 40.8901 205.1C38.0574 205.637 35.1391 205.517 32.3598 204.75C31.5243 204.522 30.7083 204.228 29.9198 203.87C29.6177 203.763 29.3367 203.604 29.0898 203.4C29.0898 203.31 30.3498 203.9 32.4498 204.4C35.1775 205.056 38.0131 205.128 40.7706 204.611C43.528 204.094 46.145 203 48.4498 201.4C50.3098 200.13 51.2298 199.14 51.2998 199.2Z" fill="#263238"/>
<path d="M52.3188 202.61C52.1485 202.888 51.9359 203.138 51.6888 203.35C51.0682 203.978 50.3995 204.556 49.6888 205.08C47.2977 206.807 44.5516 207.978 41.6506 208.509C38.7495 209.04 35.7664 208.918 32.9188 208.15C32.0593 207.926 31.2198 207.632 30.4088 207.27C30.1006 207.161 29.8106 207.006 29.5488 206.81C29.5488 206.72 30.8388 207.31 32.9988 207.81C35.8098 208.45 38.7211 208.518 41.559 208.01C44.3901 207.485 47.0846 206.39 49.4788 204.79C51.2888 203.55 52.2588 202.54 52.3188 202.61Z" fill="#263238"/>
<path d="M376.42 369.08L405.52 361.21C405.52 361.21 423.29 388.15 428.81 387.21L415.58 330.21L369.74 340.6L376.42 369.08Z" fill="#263238"/>
<path d="M399 344.17C399.039 343.583 399.293 343.031 399.714 342.619C400.134 342.208 400.692 341.966 401.28 341.94C401.868 341.958 402.426 342.2 402.841 342.616C403.255 343.033 403.495 343.592 403.51 344.18C403.468 344.803 403.196 345.389 402.747 345.823C402.299 346.257 401.704 346.509 401.08 346.53C400.469 346.447 399.913 346.132 399.529 345.649C399.145 345.166 398.963 344.554 399.02 343.94" fill="#E0E0E0"/>
<path d="M415.58 330.24L411 331.47L425.4 385.64C425.4 385.64 427.09 387.92 428.81 387.22L415.58 330.24Z" fill="#455A64"/>
<path d="M405.439 362.2C405.719 362.13 405.519 360.71 406.099 359.13C406.679 357.55 407.679 356.55 407.509 356.32C407.339 356.09 405.829 356.88 405.159 358.8C404.489 360.72 405.199 362.32 405.439 362.2Z" fill="white"/>
<path d="M409.3 367.6C409.59 367.6 409.78 366.29 410.74 365.07C411.7 363.85 412.88 363.29 412.8 363.02C412.72 362.75 411.11 362.93 409.95 364.47C408.79 366.01 409 367.66 409.3 367.6Z" fill="white"/>
<path d="M417.239 369.34C417.239 369.07 415.759 369.01 414.409 370.07C413.059 371.13 412.739 372.58 412.999 372.65C413.259 372.72 413.889 371.72 414.999 370.86C416.109 370 417.279 369.62 417.239 369.34Z" fill="white"/>
<path d="M398.609 363.26C398.839 363.08 398.159 361.89 397.899 360.26C397.639 358.63 397.899 357.32 397.579 357.26C397.259 357.2 396.579 358.58 396.919 360.46C397.259 362.34 398.429 363.44 398.609 363.26Z" fill="white"/>
<path d="M256.42 273.39C256.42 274.33 264.56 320.15 268.42 332.69C272.28 345.23 277.65 367.91 287.24 373.92C296.83 379.93 389.38 361.54 389.38 361.54L385.7 334.87L314.7 336.48L312.07 300.2L314.39 293.03C314.39 293.03 321.53 269.33 321.64 261.23C321.75 253.13 282.07 258.15 282.07 258.15L256.42 273.39Z" fill="#263238"/>
<path d="M288.209 292.19C288.209 292.33 282.679 292.81 275.839 293.25C268.999 293.69 263.449 293.94 263.439 293.79C263.429 293.64 268.969 293.17 275.809 292.73C282.649 292.29 288.199 292 288.209 292.19Z" fill="#455A64"/>
<path d="M312.82 162.79C312.82 162.79 324.93 175.54 329.5 180.84C334.07 186.14 334.5 201.55 329.21 205.08C323.92 208.61 303.69 199.15 303.69 199.15L292 178.44L312.82 162.79Z" fill="#FFBF9D"/>
<path d="M316.31 204C315.845 203.96 315.386 203.869 314.94 203.73C314.406 203.613 313.878 203.466 313.36 203.29L312.36 202.97L311.29 202.55C309.52 201.847 307.878 200.857 306.43 199.62C304.662 198.051 303.41 195.984 302.84 193.69C302.493 192.53 302.269 191.337 302.17 190.13C302.08 188.97 302.06 187.86 301.99 186.81C301.936 184.953 301.508 183.127 300.73 181.44C299.955 179.895 298.942 178.482 297.73 177.25C298.131 177.498 298.491 177.804 298.8 178.16C299.699 179.077 300.448 180.13 301.02 181.28C301.866 182.992 302.347 184.862 302.43 186.77C302.43 189.055 302.722 191.33 303.3 193.54C303.841 195.744 305.028 197.736 306.71 199.26C308.105 200.502 309.688 201.515 311.4 202.26C314.39 203.5 316.34 203.92 316.31 204Z" fill="#FF9A6C"/>
<path d="M328.87 184.45C328.78 184.56 323.78 180.45 317.7 175.18C311.62 169.91 306.78 165.62 306.87 165.51C306.96 165.4 311.97 169.51 318.04 174.78C324.11 180.05 329 184.34 328.87 184.45Z" fill="#FF9A6C"/>
<path d="M265.139 122.62C265.139 122.62 270.439 119.85 278.039 123.62C285.639 127.39 316.349 156.35 316.349 156.35L292.609 179.45L271.269 157.45L265.139 122.62Z" fill="#EF6957"/>
<path d="M212.99 133.4L209.52 143.88L197.59 152.4L211.67 196.78L251.19 248.07L319.94 232.44L311.94 213.81L280.84 158.56L265.14 122.62L252.14 125.93L240.68 122.34L212.99 133.4Z" fill="#EF6957"/>
<path d="M200.709 151.51C200.709 151.51 187.529 153.08 191.279 171.51C195.029 189.94 223.409 203.43 223.409 203.43L238.499 187.73L233.839 162.6L200.709 151.51Z" fill="#EF6957"/>
<path d="M228.059 161.29C227.111 161.066 226.185 160.762 225.289 160.38L218.719 157.9C216.159 156.9 213.819 156.12 212.119 155.55C211.183 155.283 210.267 154.949 209.379 154.55C210.349 154.665 211.305 154.883 212.229 155.2C213.959 155.68 216.329 156.45 218.899 157.41C221.469 158.37 223.769 159.33 225.419 160.04C226.334 160.378 227.218 160.796 228.059 161.29Z" fill="#263238"/>
<path d="M238.83 148.87C238.429 148.779 238.038 148.652 237.66 148.49L234.49 147.29L234.73 147.11C235.052 148.999 235.11 150.925 234.9 152.83V153.12L234.63 153.02L226.93 150.38C222.12 148.7 217.78 147.16 214.64 146.02L210.94 144.65C210.479 144.496 210.031 144.305 209.6 144.08C210.082 144.156 210.555 144.284 211.01 144.46L214.76 145.68C217.93 146.68 222.29 148.21 227.1 149.88L234.78 152.58L234.47 152.77C234.714 150.908 234.714 149.022 234.47 147.16V146.86L234.75 146.98L237.86 148.32C238.198 148.476 238.523 148.66 238.83 148.87Z" fill="#263238"/>
<path d="M249.819 127.29C249.932 127.699 250.005 128.117 250.039 128.54C250.139 129.34 250.269 130.54 250.359 131.96C250.585 135.743 250.508 139.539 250.129 143.31C250.029 144.31 249.899 145.31 249.769 146.31V146.62L249.469 146.51C246.888 145.567 244.427 144.322 242.139 142.8L242.429 142.65C242.337 143.86 241.996 145.038 241.429 146.11C241.254 146.512 241.01 146.881 240.709 147.2C240.709 147.2 240.919 146.78 241.249 146.02C241.71 144.947 241.967 143.797 242.009 142.63V142.31L242.279 142.49C244.586 143.921 247.036 145.108 249.589 146.03L249.239 146.24C249.369 145.24 249.489 144.3 249.589 143.24C249.966 139.506 250.103 135.752 249.999 132C249.999 130.55 249.889 129.38 249.849 128.57C249.787 128.146 249.777 127.716 249.819 127.29Z" fill="#263238"/>
<path d="M293.14 190.89C293.131 191.067 293.097 191.242 293.04 191.41L292.66 192.87C292.49 193.51 292.27 194.28 291.96 195.16C291.65 196.04 291.35 197.06 290.89 198.16C290.43 199.26 289.99 200.45 289.39 201.7C288.79 202.95 288.15 204.27 287.39 205.65C285.769 208.609 283.944 211.453 281.93 214.16C279.884 216.846 277.652 219.386 275.25 221.76C274.12 222.82 273.06 223.85 271.99 224.76C270.92 225.67 269.99 226.47 268.99 227.18C267.99 227.89 267.18 228.49 266.42 229.03C265.66 229.57 264.97 230.03 264.42 230.33L263.12 231.1C262.972 231.196 262.815 231.277 262.65 231.34C262.65 231.34 262.78 231.21 263.06 231.01L264.31 230.16C264.86 229.8 265.52 229.35 266.26 228.79C267 228.23 267.88 227.64 268.78 226.89C269.68 226.14 270.69 225.36 271.71 224.44C272.73 223.52 273.8 222.51 274.92 221.44C279.673 216.703 283.73 211.316 286.97 205.44C287.69 204.08 288.4 202.79 288.97 201.54C289.54 200.29 290.07 199.12 290.52 198.04C290.97 196.96 291.32 195.97 291.65 195.1C291.98 194.23 292.24 193.47 292.43 192.84L292.91 191.41C292.962 191.227 293.039 191.051 293.14 190.89Z" fill="#263238"/>
<path d="M282.649 193.08C282.621 193.237 282.578 193.391 282.519 193.54C282.389 193.89 282.239 194.32 282.059 194.84C281.659 195.97 281.009 197.57 280.139 199.53C275.611 209.76 269.417 219.168 261.809 227.37C260.349 228.93 259.129 230.16 258.259 230.98L257.259 231.91C257.147 232.027 257.023 232.131 256.889 232.22C256.889 232.22 256.979 232.07 257.189 231.84L258.129 230.84C258.959 229.98 260.129 228.71 261.559 227.12C268.971 218.815 275.126 209.469 279.829 199.38C280.729 197.45 281.429 195.87 281.889 194.76L282.439 193.5C282.549 193.22 282.629 193.07 282.649 193.08Z" fill="#263238"/>
<path d="M278 152.33C278.245 152.677 278.453 153.049 278.62 153.44L280.15 156.54C281.45 159.16 283.28 162.76 285.41 166.67C287.54 170.58 289.59 174.05 291.09 176.56C291.8 177.74 292.4 178.73 292.87 179.56C293.113 179.909 293.314 180.285 293.47 180.68C293.179 180.374 292.921 180.039 292.7 179.68C292.23 179.01 291.57 178.02 290.78 176.79C289.19 174.33 287.1 170.87 284.95 166.95C282.8 163.03 281.04 159.4 279.82 156.74C279.21 155.41 278.74 154.32 278.43 153.57C278.243 153.173 278.099 152.757 278 152.33Z" fill="#263238"/>
<path d="M220.999 165.86C221.354 165.631 221.754 165.482 222.172 165.424C222.589 165.365 223.015 165.398 223.419 165.52C223.419 165.52 230.599 157.75 244.989 151.67C259.379 145.59 273.899 135.58 273.899 135.58L280.079 146.83C280.079 146.83 258.899 173.12 251.609 177.57C244.319 182.02 231.239 191 224.299 191.51C217.359 192.02 214.409 191.39 214.409 191.39C214.409 191.39 210.969 182.94 214.609 175.16C216.489 171.41 218.339 167.62 220.999 165.86Z" fill="#FFBF9D"/>
<path d="M223.439 165.52C223.016 165.498 222.592 165.535 222.179 165.63C221.085 166.032 220.121 166.723 219.389 167.63C216.967 170.612 215.137 174.03 213.999 177.7C213.396 179.725 213.086 181.827 213.079 183.94C213.082 185.669 213.311 187.39 213.759 189.06C214.222 190.586 214.824 192.065 215.559 193.48C215.559 193.48 215.469 193.4 215.339 193.22C215.144 192.962 214.967 192.692 214.809 192.41C214.219 191.383 213.746 190.293 213.399 189.16C212.896 187.468 212.627 185.715 212.599 183.95C212.578 181.787 212.881 179.633 213.499 177.56C214.113 175.493 214.969 173.506 216.049 171.64C216.895 170.102 217.9 168.657 219.049 167.33C219.848 166.426 220.889 165.77 222.049 165.44C222.379 165.374 222.719 165.374 223.049 165.44C223.183 165.44 223.316 165.467 223.439 165.52Z" fill="#263238"/>
<path d="M256.909 369.41C256.909 369.41 283.619 381.24 291.279 380.72C291.279 380.72 292.479 385.42 298.989 381.89C298.989 381.89 303.169 388.95 308.139 383.16C308.139 383.16 311.739 385.46 315.799 380.24L406.529 370.87C408.001 370.721 409.355 369.994 410.292 368.849C411.229 367.703 411.674 366.233 411.529 364.76C411.383 363.348 410.703 362.044 409.629 361.115C408.555 360.186 407.168 359.702 405.749 359.76C384.159 360.63 303.169 363.76 294.749 362.1C285.029 360.17 264.569 363.87 260.149 365.51C260.139 365.48 254.799 367 256.909 369.41Z" fill="#E0E0E0"/>
<path d="M256.91 369.41L256.69 369.12C256.575 368.967 256.491 368.793 256.445 368.608C256.398 368.422 256.39 368.229 256.42 368.04C256.62 367.416 257.048 366.891 257.62 366.57C258.396 366.07 259.237 365.68 260.12 365.41C262.932 364.541 265.803 363.872 268.71 363.41C272.26 362.77 276.47 362.12 281.29 361.72C283.7 361.51 286.29 361.4 288.97 361.43C290.33 361.43 291.71 361.53 293.13 361.69C294.55 361.85 295.97 362.09 297.43 362.21C303.34 362.49 309.78 362.41 316.67 362.32C330.44 362.13 346.01 361.66 362.84 361.1L388.97 360.16L402.63 359.63C403.79 359.63 404.92 359.52 406.11 359.51C407.338 359.537 408.525 359.954 409.5 360.7C410.229 361.256 410.817 361.976 411.217 362.801C411.616 363.626 411.817 364.534 411.801 365.45C411.785 366.367 411.555 367.267 411.127 368.079C410.7 368.89 410.087 369.589 409.34 370.12C408.853 370.465 408.317 370.735 407.75 370.92C407.186 371.086 406.606 371.19 406.02 371.23L399.28 371.92L386 373.25L360.65 375.85L315.79 380.45L315.94 380.37C315.014 381.633 313.805 382.66 312.41 383.37C311.724 383.707 310.97 383.882 310.205 383.882C309.44 383.882 308.686 383.707 308 383.37H308.26C307.9 383.72 307.57 384.1 307.19 384.37C306.809 384.691 306.389 384.963 305.94 385.18C305.05 385.651 304.017 385.776 303.04 385.53C302.119 385.263 301.276 384.78 300.58 384.12C299.892 383.505 299.295 382.795 298.81 382.01L299.05 382.08C297.677 382.915 296.106 383.367 294.5 383.39C293.721 383.371 292.968 383.105 292.35 382.63C291.747 382.165 291.306 381.521 291.09 380.79L291.26 380.92C289.848 380.913 288.44 380.758 287.06 380.46L285.06 380.02L283.18 379.5C280.71 378.8 278.42 378.04 276.31 377.3C272.08 375.8 268.52 374.39 265.64 373.22C262.76 372.05 260.56 371.1 259.09 370.45L257.41 369.71L256.85 369.44L257.43 369.67L259.12 370.37C260.61 370.99 262.82 371.91 265.71 373.06C268.6 374.21 272.16 375.59 276.39 377.06C278.51 377.79 280.79 378.54 283.25 379.22L285.13 379.73L287.13 380.16C288.481 380.45 289.859 380.595 291.24 380.59H291.38V380.71C291.587 381.379 292 381.966 292.56 382.386C293.121 382.807 293.8 383.039 294.5 383.05C296.04 383.011 297.543 382.569 298.86 381.77L299 381.69L299.1 381.83C299.991 383.384 301.411 384.565 303.1 385.16C303.986 385.385 304.924 385.271 305.73 384.84C306.19 384.62 306.618 384.338 307 384C307.36 383.7 307.67 383.33 308 383L308.12 382.89L308.25 382.97C308.874 383.271 309.557 383.428 310.25 383.428C310.943 383.428 311.626 383.271 312.25 382.97C313.582 382.289 314.736 381.306 315.62 380.1L315.67 380.03H315.76L360.6 375.36L386 372.74L399.25 371.37L405.99 370.67C406.539 370.635 407.082 370.541 407.61 370.39C408.127 370.22 408.616 369.974 409.06 369.66C409.973 369.013 410.659 368.095 411.02 367.036C411.381 365.976 411.399 364.83 411.072 363.76C410.744 362.69 410.087 361.751 409.194 361.076C408.302 360.401 407.219 360.024 406.1 360C404.98 360 403.79 360.08 402.65 360.12L388.99 360.65L362.85 361.57C346.02 362.1 330.45 362.57 316.67 362.7C309.78 362.77 303.34 362.83 297.41 362.53C295.92 362.41 294.41 362.23 293.08 362C291.716 361.834 290.344 361.74 288.97 361.72C286.28 361.72 283.72 361.78 281.32 361.98C276.5 362.35 272.32 362.98 268.74 363.59C265.841 364.061 262.978 364.729 260.17 365.59C258.17 366.21 256.73 367.1 256.5 368.11C256.445 368.46 256.528 368.819 256.73 369.11C256.85 369.3 256.91 369.41 256.91 369.41Z" fill="#263238"/>
<path d="M347.16 362.15L347.77 333.68L356.1 333.72L357.25 361.45L347.16 362.15Z" fill="#E0E0E0"/>
<path d="M379.389 333.64L382.979 361.57L394.059 360.44L387.689 333.55L379.389 333.64Z" fill="#E0E0E0"/>
<path d="M314.71 335.9L291.57 363.81L308.93 369.63L309.06 368.29L318.49 335.35L314.71 335.9Z" fill="#E0E0E0"/>
<path d="M292.5 362.19C292.466 363.12 292.363 364.046 292.19 364.96C291.97 366.67 291.71 369.03 291.57 371.64C291.43 374.25 291.47 376.64 291.52 378.35C291.585 379.279 291.585 380.211 291.52 381.14C291.28 380.235 291.146 379.306 291.12 378.37C290.938 376.125 290.905 373.87 291.02 371.62C291.136 369.369 291.396 367.128 291.8 364.91C291.93 363.98 292.165 363.067 292.5 362.19Z" fill="#263238"/>
<path d="M300.17 361.82C300.186 362.823 300.126 363.826 299.99 364.82C299.83 366.66 299.63 369.2 299.5 372.01C299.37 374.82 299.32 377.37 299.3 379.22C299.345 380.221 299.308 381.225 299.19 382.22C299.014 381.23 298.927 380.226 298.93 379.22C298.86 377.37 298.85 374.81 298.98 371.98C299.11 369.15 299.37 366.61 299.62 364.78C299.701 363.777 299.885 362.785 300.17 361.82Z" fill="#263238"/>
<path d="M307.589 362.91C307.683 363.884 307.703 364.863 307.649 365.84C307.649 367.65 307.649 370.14 307.749 372.89C307.849 375.64 308.059 378.12 308.209 379.89C308.338 380.858 308.398 381.834 308.389 382.81C308.105 381.872 307.92 380.907 307.839 379.93C307.589 378.14 307.349 375.64 307.229 372.93C307.109 370.22 307.169 367.66 307.229 365.85C307.245 364.86 307.366 363.875 307.589 362.91Z" fill="#263238"/>
<path d="M315.18 362C315.273 362.897 315.29 363.8 315.23 364.7C315.23 366.37 315.23 368.7 315.31 371.21C315.39 373.72 315.58 376.04 315.72 377.7C315.844 378.594 315.898 379.497 315.88 380.4C315.604 379.536 315.427 378.644 315.35 377.74C315.055 375.581 314.868 373.408 314.79 371.23C314.702 369.05 314.726 366.867 314.86 364.69C314.866 363.784 314.973 362.882 315.18 362Z" fill="#263238"/>
<path d="M404.339 359.43H404.049H403.199L399.909 359.6L387.839 360.11L347.999 361.69L326.049 362.45C322.679 362.56 319.469 362.73 316.469 362.59C313.469 362.45 310.669 362.34 308.119 362.21C303.029 361.93 298.909 361.8 296.049 361.79C294.629 361.79 293.519 361.79 292.769 361.79H291.919C291.82 361.805 291.718 361.805 291.619 361.79H291.909L292.769 361.73C293.519 361.73 294.619 361.64 296.049 361.61C298.909 361.55 303.049 361.61 308.139 361.86C310.689 361.96 313.479 362.1 316.479 362.17C319.479 362.24 322.669 362.11 326.039 361.99L347.979 361.19L387.839 359.85L399.919 359.5L403.199 359.44H404.059C404.151 359.423 404.246 359.419 404.339 359.43Z" fill="#263238"/>
<path d="M404 364.38C404 364.52 384.23 366.58 359.82 368.98C335.41 371.38 315.6 373.22 315.58 373.07C315.56 372.92 335.35 370.87 359.77 368.47C384.19 366.07 404 364.23 404 364.38Z" fill="#263238"/>
<path d="M405.209 368.3C405.209 368.44 385.329 370.62 360.779 373.15C336.229 375.68 316.299 377.63 316.289 377.49C316.279 377.35 336.169 375.17 360.729 372.64C385.289 370.11 405.199 368.16 405.209 368.3Z" fill="#263238"/>
<path d="M164.499 339.56L164.879 369.71C164.879 369.71 134.359 380.22 133.879 385.79L192.349 387.16L193.689 340.16L164.499 339.56Z" fill="#263238"/>
<path d="M182.999 367.6C183.558 367.782 184.03 368.165 184.324 368.675C184.617 369.184 184.712 369.785 184.589 370.36C184.425 370.923 184.052 371.403 183.547 371.7C183.041 371.997 182.441 372.09 181.869 371.96C181.277 371.762 180.779 371.353 180.471 370.81C180.162 370.267 180.066 369.63 180.199 369.02C180.431 368.454 180.872 367.998 181.43 367.747C181.988 367.496 182.621 367.468 183.199 367.67" fill="#E0E0E0"/>
<path d="M192.359 387.16L192.309 382.42L136.309 382.88C136.309 382.88 133.679 383.95 133.929 385.79L192.359 387.16Z" fill="#455A64"/>
<path d="M163.929 369.39C163.929 369.67 165.359 369.84 166.749 370.79C168.139 371.74 168.849 372.96 169.109 372.85C169.369 372.74 168.989 371.08 167.299 369.96C165.609 368.84 163.879 369.12 163.929 369.39Z" fill="white"/>
<path d="M157.739 371.78C157.669 372.06 158.899 372.57 159.839 373.78C160.779 374.99 161.029 376.3 161.309 376.29C161.589 376.28 161.819 374.67 160.619 373.17C159.419 371.67 157.749 371.51 157.739 371.78Z" fill="white"/>
<path d="M154.089 379C154.349 379.07 154.779 377.65 154.089 376.07C153.399 374.49 152.089 373.84 151.949 374.07C151.809 374.3 152.629 375.16 153.179 376.47C153.729 377.78 153.799 379 154.089 379Z" fill="white"/>
<path d="M164.609 362.51C164.719 362.77 166.039 362.41 167.609 362.56C169.179 362.71 170.469 363.24 170.609 363C170.749 362.76 169.609 361.71 167.669 361.56C165.729 361.41 164.479 362.28 164.609 362.51Z" fill="white"/>
<path d="M285.43 229.84C285.43 229.84 194.54 238.89 186.71 241.26C178.88 243.63 171.71 257.9 168.37 264.83C165.03 271.76 159.76 364.83 159.76 364.83L193 366.76C193 366.76 198.65 309.33 200 299.92C201.35 290.51 200.25 278.71 200.25 278.71C200.25 278.71 291.57 289.02 300.25 288.18C308.93 287.34 319.1 277.62 322 267.92C325.69 255.44 316.91 232.92 316.91 232.92C316.91 232.92 309.91 229.48 304.3 229.14C298.002 228.836 291.689 229.07 285.43 229.84Z" fill="#263238"/>
<path d="M283.46 257.74H283.2L282.44 257.81L279.53 258.02C276.99 258.19 273.32 258.41 268.78 258.65C259.7 259.12 247.16 259.65 233.29 259.88C219.42 260.11 206.86 260.11 197.77 259.97C193.23 259.9 189.55 259.82 187.01 259.74L184.09 259.64H183.33H183.07C183.156 259.625 183.244 259.625 183.33 259.64H187L197.76 259.7C206.84 259.7 219.4 259.7 233.26 259.46C247.12 259.22 259.67 258.76 268.74 258.38L279.49 257.92L282.42 257.8H283.42L283.46 257.74Z" fill="#455A64"/>
<path d="M173.259 217.75C173.259 217.75 158.569 242.99 158.259 250.66C158.259 250.66 153.459 251.34 156.259 258.2C156.259 258.2 148.789 261.57 153.999 267.15C153.999 267.15 151.319 270.48 156.059 275.09V367.09C156.059 368.561 156.638 369.972 157.671 371.018C158.705 372.065 160.109 372.662 161.579 372.68C163.013 372.698 164.4 372.164 165.451 371.189C166.503 370.214 167.139 368.872 167.229 367.44C168.589 345.73 173.829 264.37 176.419 256.19C179.419 246.73 177.989 225.99 176.849 221.42C176.819 221.39 175.859 215.91 173.259 217.75Z" fill="#E0E0E0"/>
<path d="M173.26 217.75L173.57 217.56C173.733 217.461 173.915 217.397 174.104 217.371C174.294 217.346 174.486 217.359 174.67 217.41C175.275 217.674 175.755 218.161 176.01 218.77C176.419 219.596 176.712 220.474 176.88 221.38C177.45 224.281 177.814 227.218 177.97 230.17C178.21 233.78 178.4 238.06 178.26 242.91C178.2 245.485 178.009 248.055 177.69 250.61C177.518 251.992 177.27 253.364 176.95 254.72C176.56 256.11 176.25 257.51 175.95 258.97C175.05 264.84 174.46 271.28 173.83 278.17C172.59 291.95 171.45 307.55 170.26 324.43C169.69 332.87 169.1 341.63 168.49 350.64C168.203 355.14 167.91 359.707 167.61 364.34C167.53 365.5 167.49 366.64 167.37 367.83C167.216 369.055 166.673 370.197 165.82 371.09C165.184 371.759 164.399 372.267 163.529 372.574C162.659 372.882 161.729 372.979 160.814 372.858C159.9 372.737 159.027 372.402 158.266 371.879C157.506 371.356 156.88 370.661 156.44 369.85C156.153 369.32 155.947 368.751 155.83 368.16C155.738 367.578 155.704 366.989 155.73 366.4V346.15C155.73 337.33 155.73 328.74 155.73 320.47C155.73 303.93 155.73 288.63 155.73 275.09L155.79 275.24C154.645 274.183 153.764 272.871 153.22 271.41C152.958 270.691 152.868 269.921 152.954 269.161C153.041 268.401 153.303 267.671 153.72 267.03V267.29C153.41 266.89 153.07 266.52 152.8 266.11C152.52 265.692 152.292 265.242 152.12 264.77C151.765 263.832 151.765 262.798 152.12 261.86C152.492 260.975 153.064 260.188 153.79 259.56C154.481 258.952 155.251 258.44 156.08 258.04L155.99 258.27C155.311 256.813 155.035 255.2 155.19 253.6C155.294 252.831 155.642 252.115 156.181 251.558C156.721 251 157.425 250.629 158.19 250.5L158.05 250.65C158.211 249.248 158.52 247.867 158.97 246.53C159.19 245.89 159.41 245.25 159.62 244.62C159.83 243.99 160.11 243.4 160.34 242.81C161.34 240.43 162.34 238.24 163.29 236.22C165.24 232.22 167.04 228.8 168.52 226.07C170 223.34 171.18 221.26 171.99 219.86L172.91 218.28C173.12 217.93 173.24 217.75 173.24 217.75C173.24 217.75 173.15 217.94 172.95 218.3L172.07 219.9C171.29 221.32 170.13 223.41 168.67 226.15C167.21 228.89 165.45 232.29 163.52 236.33C162.52 238.33 161.57 240.54 160.61 242.91C160.38 243.51 160.14 244.11 159.9 244.73L159.26 246.62C158.821 247.934 158.526 249.292 158.38 250.67V250.8H158.26C157.574 250.934 156.947 251.281 156.468 251.79C155.989 252.3 155.682 252.947 155.59 253.64C155.458 255.174 155.734 256.717 156.39 258.11L156.45 258.26L156.3 258.34C154.657 259.064 153.327 260.352 152.55 261.97C152.21 262.824 152.21 263.776 152.55 264.63C152.709 265.067 152.921 265.483 153.18 265.87C153.44 266.27 153.77 266.62 154.07 267L154.17 267.13L154.08 267.26C153.709 267.85 153.477 268.517 153.402 269.21C153.328 269.903 153.412 270.605 153.65 271.26C154.177 272.658 155.027 273.912 156.13 274.92L156.2 274.98V275.07C156.2 288.61 156.2 303.91 156.2 320.45C156.2 328.72 156.2 337.31 156.2 346.13C156.2 350.55 156.2 355.023 156.2 359.55V366.38C156.179 366.935 156.209 367.491 156.29 368.04C156.401 368.576 156.586 369.095 156.84 369.58C157.241 370.319 157.811 370.953 158.504 371.43C159.197 371.907 159.993 372.213 160.827 372.323C161.661 372.434 162.509 372.345 163.302 372.064C164.095 371.784 164.811 371.32 165.39 370.71C166.175 369.89 166.674 368.837 166.81 367.71C166.92 366.58 166.97 365.39 167.05 364.25C167.343 359.623 167.637 355.053 167.93 350.54C168.55 341.54 169.14 332.77 169.72 324.33C170.93 307.46 172.1 291.86 173.37 278.07C174.02 271.18 174.63 264.74 175.55 258.85C175.82 257.38 176.15 255.93 176.55 254.58C176.879 253.239 177.13 251.88 177.3 250.51C177.629 247.965 177.829 245.405 177.9 242.84C178.06 238 177.9 233.73 177.69 230.12C177.553 227.178 177.219 224.248 176.69 221.35C176.29 219.35 175.57 217.77 174.59 217.43C174.415 217.375 174.231 217.356 174.049 217.375C173.866 217.394 173.69 217.45 173.53 217.54L173.26 217.75Z" fill="#263238"/>
<path d="M170.549 308.25L198.779 311.99L197.819 320.26L170.129 318.36L170.549 308.25Z" fill="#E0E0E0"/>
<path d="M195.34 343.42L167.19 343.92L167.09 355.06L194.51 351.68L195.34 343.42Z" fill="#E0E0E0"/>
<path d="M200.21 278.88L175.01 252.81L167.32 269.43L167.86 273.43L200.59 286.85L200.21 278.88Z" fill="#E0E0E0"/>
<path d="M176.519 253.92C175.599 253.776 174.69 253.569 173.799 253.3C172.129 252.89 169.799 252.38 167.229 251.95C164.659 251.52 162.279 251.3 160.569 251.16C159.637 251.138 158.707 251.044 157.789 250.88C158.717 250.751 159.655 250.721 160.589 250.79C162.84 250.864 165.085 251.081 167.309 251.44C169.538 251.812 171.74 252.333 173.899 253C174.806 253.201 175.685 253.51 176.519 253.92Z" fill="#263238"/>
<path d="M176.049 261.58C175.037 261.487 174.034 261.316 173.049 261.07C171.239 260.71 168.729 260.24 165.949 259.79C163.169 259.34 160.639 259.03 158.809 258.79C157.8 258.722 156.797 258.578 155.809 258.36C156.809 258.284 157.814 258.307 158.809 258.43C160.649 258.56 163.199 258.83 165.989 259.27C168.779 259.71 171.289 260.27 173.089 260.7C174.104 260.888 175.096 261.183 176.049 261.58Z" fill="#263238"/>
<path d="M174.139 268.84C173.16 268.822 172.184 268.732 171.219 268.57C169.429 268.36 166.949 268.1 164.219 267.9C161.489 267.7 158.979 267.62 157.219 267.58C156.24 267.6 155.261 267.553 154.289 267.44C155.255 267.261 156.237 267.184 157.219 267.21C159.029 267.21 161.539 267.21 164.299 267.38C167.059 267.55 169.539 267.9 171.299 268.2C172.265 268.317 173.216 268.532 174.139 268.84Z" fill="#263238"/>
<path d="M174.19 276.48C173.285 276.464 172.382 276.377 171.49 276.22C169.84 276.03 167.55 275.77 165.02 275.59C162.49 275.41 160.19 275.33 158.52 275.28C157.618 275.313 156.714 275.266 155.82 275.14C156.71 274.975 157.615 274.901 158.52 274.92C162.874 274.808 167.228 275.123 171.52 275.86C172.431 275.962 173.327 276.17 174.19 276.48Z" fill="#263238"/>
<path d="M167 365.38C166.987 365.284 166.987 365.186 167 365.09C167 364.87 167 364.59 167 364.23C167 363.45 167.12 362.35 167.2 360.95C167.4 358.07 167.68 353.95 168.02 348.89C168.76 338.68 169.79 324.64 170.92 309.12C171.51 301.35 172.07 293.96 172.58 287.23C172.84 283.87 173.02 280.66 173.5 277.68C173.98 274.7 174.39 271.95 174.8 269.43C175.63 264.43 176.22 260.32 176.53 257.48C176.7 256.07 176.81 254.96 176.87 254.22L176.96 253.37C176.961 253.271 176.978 253.173 177.01 253.08C177.017 253.177 177.017 253.273 177.01 253.37V254.22C177.01 254.97 176.9 256.08 176.77 257.5C176.51 260.35 175.98 264.45 175.19 269.5C174.81 272.02 174.37 274.78 173.96 277.75C173.55 280.72 173.34 283.91 173.09 287.28C172.59 294.01 172.04 301.41 171.47 309.18C170.28 324.68 169.2 338.72 168.42 348.93C168 353.99 167.67 358.1 167.42 360.98C167.3 362.37 167.2 363.47 167.13 364.25C167.13 364.6 167.06 364.88 167.04 365.1C167.04 365.195 167.027 365.289 167 365.38Z" fill="#263238"/>
<path d="M162.08 364.49C161.94 364.49 162.08 344.6 162.36 320.07C162.64 295.54 163.02 275.65 163.17 275.65C163.32 275.65 163.17 295.54 162.88 320.08C162.59 344.62 162.23 364.49 162.08 364.49Z" fill="#263238"/>
<path d="M158.049 365.27C157.899 365.27 157.929 345.27 158.109 320.57C158.289 295.87 158.549 275.88 158.699 275.88C158.849 275.88 158.809 295.88 158.629 320.58C158.449 345.28 158.189 365.27 158.049 365.27Z" fill="#263238"/>
<path d="M322.54 265.11C322.54 265.11 322.54 265.39 322.42 265.93C322.29 266.717 322.113 267.495 321.89 268.26C321.07 271.075 319.872 273.766 318.33 276.26C317.269 277.999 316.011 279.61 314.58 281.06C312.889 282.685 310.939 284.017 308.81 285C303.919 287.203 298.603 288.303 293.24 288.22C287.92 288.133 282.608 287.753 277.33 287.08L264.4 285.7L255.69 284.7L253.32 284.41C253.044 284.384 252.769 284.337 252.5 284.27C252.776 284.243 253.054 284.243 253.33 284.27L255.71 284.47L264.44 285.27L277.38 286.54C282.64 287.187 287.931 287.554 293.23 287.64C298.519 287.72 303.763 286.652 308.6 284.51C310.688 283.553 312.606 282.263 314.28 280.69C315.695 279.269 316.95 277.696 318.02 276C319.58 273.54 320.813 270.888 321.69 268.11C322 267.11 322.2 266.35 322.32 265.82C322.369 265.577 322.443 265.339 322.54 265.11Z" fill="#455A64"/>
<path d="M300.379 115.66C297.449 127.38 292.739 145.81 291.319 151.37C290.907 152.879 291.049 154.486 291.719 155.9C292.212 156.937 292.945 157.841 293.859 158.537C294.772 159.233 295.838 159.7 296.969 159.9C298.048 160.1 299.16 160.031 300.206 159.7C301.253 159.368 302.202 158.785 302.969 158C303.969 157 304.859 155.84 304.869 154.93C304.869 153.37 311.019 129.17 313.599 119.04C313.932 117.734 313.871 116.358 313.425 115.086C312.978 113.814 312.165 112.702 311.089 111.89C310.189 111.222 309.139 110.785 308.03 110.618C306.922 110.45 305.79 110.557 304.732 110.929C303.675 111.302 302.725 111.927 301.966 112.752C301.207 113.577 300.662 114.575 300.379 115.66Z" fill="#455A64"/>
<path d="M303.689 155.33C303.639 155.33 303.689 155.12 303.689 154.77C303.64 154.282 303.441 153.82 303.119 153.45C302.339 152.45 300.479 152.05 298.579 151.6C296.949 151.201 295.24 151.256 293.639 151.76C292.999 152.033 292.378 152.347 291.779 152.7C292.203 152.098 292.81 151.649 293.509 151.42C295.156 150.775 296.963 150.66 298.679 151.09C299.613 151.286 300.532 151.546 301.429 151.87C302.214 152.114 302.909 152.584 303.429 153.22C303.77 153.662 303.941 154.212 303.909 154.77C303.849 155.16 303.709 155.34 303.689 155.33Z" fill="#263238"/>
<path d="M318.189 141.63C317.98 140.067 317.496 138.554 316.759 137.16C316.713 135.17 316.184 133.221 315.219 131.48C313.889 129.21 307.429 123.55 300.909 123.09C300.114 123.034 299.317 123.152 298.572 123.436C297.828 123.72 297.154 124.163 296.599 124.734C296.044 125.306 295.62 125.992 295.357 126.744C295.095 127.496 295 128.297 295.079 129.09C295.079 129.09 295.079 129.18 295.079 129.22C295.079 129.26 289.449 130.1 289.399 134.14V135.77C289.399 135.77 285.699 140.57 291.079 141.85C291.079 141.85 289.829 148.53 294.859 148.95C298.012 149.208 301.18 149.248 304.339 149.07L305.619 151.38L305.139 153.76C305.139 153.76 304.139 157.91 301.449 159.12C297.739 160.82 296.129 160.21 294.759 162.35C294.046 163.483 293.655 164.789 293.627 166.128C293.599 167.466 293.935 168.788 294.599 169.95L297.199 174.74C297.779 178.59 299.109 180.12 299.109 180.12L314.109 173.42C314.291 173.337 314.451 173.21 314.572 173.051C314.694 172.892 314.775 172.706 314.808 172.508C314.84 172.31 314.824 172.108 314.759 171.918C314.695 171.728 314.585 171.557 314.439 171.42L311.809 169C311.809 169 313.429 168.32 314.809 165.07L315.729 162.83C317 160.738 317.976 158.48 318.629 156.12C319.129 153.24 318.699 144.61 318.189 141.63Z" fill="#E0E0E0"/>
<path d="M314.349 149.67C313.829 148.426 313.157 147.25 312.349 146.17C310.291 143.647 307.446 141.886 304.269 141.17C301.085 140.517 297.802 140.517 294.619 141.17C292.169 141.64 290.669 142.09 290.619 142.01C290.935 141.834 291.271 141.697 291.619 141.6C292.289 141.38 293.269 141.09 294.499 140.81C297.726 140.026 301.086 139.964 304.339 140.63C307.625 141.347 310.551 143.203 312.599 145.87C313.201 146.677 313.676 147.57 314.009 148.52C314.193 148.879 314.308 149.269 314.349 149.67Z" fill="#263238"/>
<path d="M315.25 139.55C314.26 138.7 313.222 137.909 312.14 137.18C309.429 135.579 306.381 134.634 303.24 134.42C300.093 134.237 296.935 134.473 293.85 135.12C291.46 135.58 290 135.95 289.98 135.87C290.296 135.705 290.632 135.581 290.98 135.5C291.63 135.3 292.58 135.03 293.77 134.76C296.878 133.991 300.085 133.701 303.28 133.9C306.505 134.118 309.622 135.15 312.34 136.9C313.154 137.435 313.905 138.058 314.58 138.76C314.841 138.989 315.067 139.255 315.25 139.55Z" fill="#263238"/>
<path d="M312.83 132.14C312.83 132.21 311.83 131.66 310.31 130.97C306.236 129.142 301.753 128.414 297.31 128.86C295.61 129.02 294.57 129.26 294.55 129.17C294.53 129.08 294.79 129.04 295.26 128.91C295.916 128.725 296.585 128.585 297.26 128.49C301.782 127.84 306.394 128.587 310.48 130.63C311.091 130.924 311.683 131.258 312.25 131.63C312.64 131.94 312.85 132.11 312.83 132.14Z" fill="#263238"/>
<path d="M299.9 172.63C299.9 172.49 302.55 171.79 305.79 170.78C309.03 169.77 311.63 168.83 311.69 168.97C307.984 170.82 304.002 172.057 299.9 172.63Z" fill="#263238"/>
<path d="M298.37 98.1399C304 101.31 316.28 108.44 316.28 108.44C317.51 107.87 340.09 30.1299 344.33 15.4999C344.547 14.7555 344.584 13.9701 344.438 13.2086C344.292 12.447 343.967 11.7311 343.49 11.1199C340.49 7.30989 333.99 -0.490107 330.55 0.279893C326.55 1.18989 301.82 77.4699 296.62 93.6599C296.352 94.494 296.38 95.3949 296.699 96.2109C297.017 97.0269 297.608 97.7082 298.37 98.1399Z" fill="#EF6957"/>
<path d="M318.189 102.94C318.129 103 317.099 102.22 315.339 101.1C313.056 99.6339 310.638 98.3883 308.119 97.3798C305.588 96.3954 302.965 95.6684 300.289 95.2098C298.239 94.8498 296.949 94.7398 296.949 94.6598C297.254 94.6085 297.564 94.6085 297.869 94.6598C298.699 94.6879 299.527 94.7614 300.349 94.8798C303.09 95.2326 305.776 95.9211 308.349 96.9298C310.903 97.9383 313.33 99.244 315.579 100.82C316.439 101.43 317.119 101.95 317.579 102.33C318.039 102.71 318.209 102.91 318.189 102.94Z" fill="#263238"/>
<path d="M333.08 1.37999C333.057 1.46128 333.031 1.54138 333 1.61999C332.93 1.80999 332.85 2.03999 332.74 2.32999C332.493 2.99666 332.143 3.89665 331.69 5.02999L327.82 15C324.57 23.39 320.23 35 315.82 48C311.41 61 307.68 72.85 305.1 81.46C303.84 85.75 302.81 89.23 302.1 91.68C301.75 92.85 301.47 93.78 301.27 94.46L301.05 95.18C301.026 95.2636 300.992 95.3441 300.95 95.42C300.939 95.3337 300.939 95.2463 300.95 95.16C300.95 94.97 301.05 94.73 301.12 94.43C301.3 93.75 301.54 92.81 301.85 91.62C302.49 89.19 303.47 85.68 304.71 81.36C307.2 72.71 310.84 60.82 315.28 47.83C319.72 34.84 324.13 23.21 327.47 14.83C329.13 10.65 330.47 7.27999 331.47 4.96999L332.62 2.29999L332.92 1.60999C333 1.44999 333.07 1.36999 333.08 1.37999Z" fill="#263238"/>
<path d="M273.15 134.16L278.79 129.57C279.442 126.5 280.348 123.49 281.5 120.57C281.682 118.397 282.363 116.296 283.491 114.429C284.618 112.563 286.161 110.982 288 109.81C288.608 108.475 289.492 107.284 290.593 106.316C291.695 105.347 292.989 104.623 294.39 104.19C295.005 102.653 296.062 101.333 297.427 100.397C298.792 99.4604 300.405 98.95 302.06 98.93C311.97 98.5 319.86 104.93 321.13 107.93C322.4 110.93 319.39 113.12 319.39 113.12L320.03 116.77C320.289 118.262 319.959 119.796 319.11 121.05C319.11 121.05 319.79 125.97 316.63 126.12C313.47 126.27 313 124 313 124C313 124 310.28 125.27 309 124.88L305.84 123.88L300.45 123.44L296.39 126.25C296.39 126.25 294.39 135.53 292.64 138.31C290.89 141.09 281.15 148.72 281.15 148.72L273.15 134.16Z" fill="#E0E0E0"/>
<path d="M286.719 115.26C287.096 115.085 287.492 114.954 287.899 114.87C288.995 114.586 290.107 114.369 291.229 114.22C294.951 113.754 298.726 113.951 302.379 114.8C304.386 115.274 306.343 115.944 308.219 116.8C309.803 117.415 311.261 118.317 312.519 119.46C312.984 119.954 313.297 120.572 313.419 121.24C313.51 121.739 313.465 122.254 313.289 122.73C313.184 123.033 313.005 123.304 312.769 123.52C312.609 123.66 312.499 123.7 312.499 123.69C312.756 123.416 312.954 123.093 313.082 122.74C313.209 122.386 313.262 122.011 313.239 121.636C313.216 121.261 313.116 120.895 312.945 120.561C312.775 120.226 312.538 119.93 312.249 119.69C310.996 118.628 309.568 117.792 308.029 117.22C306.167 116.411 304.236 115.771 302.259 115.31C298.655 114.483 294.941 114.24 291.259 114.59C288.449 114.88 286.739 115.35 286.719 115.26Z" fill="#263238"/>
<path d="M295.52 108.47C295.882 108.323 296.262 108.226 296.65 108.18C297.693 107.997 298.751 107.907 299.81 107.91C303.341 107.896 306.816 108.795 309.898 110.519C312.98 112.243 315.564 114.734 317.4 117.75C317.96 118.651 318.435 119.601 318.82 120.59C318.985 120.943 319.103 121.316 319.17 121.7C319.08 121.7 318.54 120.16 317.09 117.95C315.209 115.056 312.652 112.664 309.64 110.979C306.627 109.294 303.25 108.368 299.8 108.28C297.16 108.2 295.53 108.57 295.52 108.47Z" fill="#263238"/>
<path d="M299.209 103.77C299.502 103.672 299.81 103.621 300.119 103.62C300.474 103.575 300.832 103.558 301.189 103.57C301.666 103.557 302.144 103.577 302.619 103.63C303.852 103.733 305.073 103.944 306.269 104.26C307.735 104.654 309.169 105.159 310.559 105.77C311.949 106.398 313.287 107.137 314.559 107.98C315.582 108.678 316.542 109.465 317.429 110.33C317.786 110.639 318.12 110.973 318.429 111.33C318.669 111.598 318.887 111.886 319.079 112.19C319.273 112.427 319.429 112.694 319.539 112.98C319.459 113.04 318.749 111.98 317.209 110.55C316.303 109.738 315.337 108.996 314.319 108.33C311.817 106.706 309.082 105.472 306.209 104.67C305.038 104.341 303.845 104.097 302.639 103.94C300.519 103.73 299.219 103.87 299.209 103.77Z" fill="#263238"/>
<path d="M298.719 123.3C298.719 123.45 296.519 123.68 293.919 124.5C291.319 125.32 289.189 126 289.139 125.84C290.609 125.056 292.162 124.439 293.769 124C295.351 123.418 297.038 123.18 298.719 123.3Z" fill="#263238"/>
<path d="M294.859 148.94C294.647 148.947 294.436 148.927 294.229 148.88C293.625 148.782 293.053 148.542 292.559 148.18C291.189 147.18 290.479 144.68 290.909 141.81L291.039 142L290.189 141.75C289.899 141.63 289.619 141.49 289.339 141.34C288.746 140.983 288.3 140.426 288.079 139.77C287.904 139.061 287.946 138.315 288.199 137.63C288.428 136.916 288.765 136.241 289.199 135.63L289.149 135.76C289.149 135.01 289.149 134.28 289.229 133.44C289.386 132.602 289.782 131.828 290.369 131.21C291.646 129.977 293.261 129.152 295.009 128.84L294.809 129.11C294.693 128.085 294.859 127.048 295.289 126.11C295.748 125.139 296.464 124.313 297.359 123.72C298.286 123.112 299.371 122.789 300.479 122.79C301.028 122.805 301.576 122.855 302.119 122.94C302.649 123.06 303.209 123.13 303.729 123.3C307.181 124.359 310.351 126.176 313.009 128.62C313.641 129.185 314.229 129.797 314.769 130.45C315.291 131.095 315.709 131.817 316.009 132.59C316.607 134.031 316.929 135.571 316.959 137.13V137.01C318.081 139.425 318.687 142.048 318.739 144.71C318.909 147.05 318.959 149.09 318.969 150.77C318.988 152.072 318.941 153.373 318.829 154.67C318.799 155.006 318.749 155.34 318.679 155.67C318.668 155.786 318.641 155.901 318.599 156.01C318.599 156.01 318.599 155.53 318.689 154.64C318.779 153.75 318.749 152.43 318.689 150.75C318.629 149.07 318.549 147.04 318.349 144.75C318.268 142.154 317.659 139.603 316.559 137.25V137.19V137.13C316.514 135.635 316.195 134.16 315.619 132.78C314.969 131.306 313.974 130.01 312.719 129C310.118 126.615 307.015 124.845 303.639 123.82C303.129 123.65 302.639 123.58 302.089 123.46C301.573 123.38 301.051 123.333 300.529 123.32C299.52 123.315 298.533 123.607 297.689 124.16C296.874 124.699 296.221 125.449 295.799 126.33C295.411 127.17 295.256 128.099 295.349 129.02V129.24H295.129C293.484 129.534 291.959 130.298 290.739 131.44C290.222 131.998 289.875 132.692 289.739 133.44C289.639 134.16 289.679 134.97 289.649 135.7V135.77V135.83C289.21 136.344 288.883 136.943 288.69 137.591C288.497 138.239 288.442 138.92 288.529 139.59C288.712 140.164 289.096 140.654 289.609 140.97C289.869 141.11 290.129 141.24 290.389 141.35L291.199 141.61H291.349V141.75C290.889 144.53 291.519 146.97 292.779 147.92C293.242 148.286 293.782 148.543 294.359 148.67L294.859 148.94Z" fill="#263238"/>
<path d="M237.479 95.3499C237.932 91.9075 237.814 88.4138 237.129 85.0099C237.009 84.4599 234.879 73.0099 227.179 65.4499C221.679 59.9999 212.449 57.2699 204.999 58.9999C197.549 60.7299 188.999 65.3099 185.789 73.8599C182.579 82.4099 183.959 86.5599 183.959 86.5599C183.959 86.5599 183.459 93.8599 183.959 95.7799C184.859 99.0199 189.889 106.03 189.889 106.03L192.739 108.77L232.999 101.86L237.479 95.3499Z" fill="#EF6957"/>
<path d="M235.299 101.2C235.645 95.8262 235.524 90.4328 234.939 85.0799C234.35 79.6949 232.433 74.5405 229.359 70.0799C228.879 69.4199 225.139 65.1499 224.359 65.4399C223.819 65.6599 226.569 69.8499 226.419 70.4399C225.039 75.8299 225.889 81.5999 227.839 86.8199C229.777 91.8715 232.273 96.6913 235.279 101.19" fill="#263238"/>
<path d="M186.84 92C185.346 86.1241 186.117 79.9011 189 74.5675C191.883 69.2338 196.666 65.1796 202.4 63.21L203.59 62.8099C216.59 59.1799 226.93 68.19 230.19 81.29L241.34 123L238.5 146.17L213.88 136.32C212.8 132.67 212.47 131.58 212.44 131.59C212.41 131.6 199.53 133.88 195.18 121.69C193.08 115.83 189.74 103.34 186.84 92Z" fill="#FFBF9D"/>
<path d="M212.439 131.63C218.094 129.672 223.07 126.136 226.779 121.44C226.779 121.44 226.099 131.97 213.489 135.06L212.439 131.63Z" fill="#FF9A6C"/>
<path d="M193.5 101.9C193.649 102.359 193.973 102.741 194.401 102.964C194.83 103.186 195.328 103.232 195.79 103.09C196.019 103.031 196.233 102.927 196.421 102.784C196.609 102.64 196.767 102.461 196.884 102.256C197.001 102.051 197.077 101.824 197.105 101.59C197.134 101.355 197.115 101.117 197.05 100.89C196.899 100.432 196.574 100.052 196.147 99.8296C195.719 99.6073 195.221 99.5607 194.76 99.6998C194.531 99.7588 194.317 99.863 194.129 100.007C193.941 100.15 193.783 100.329 193.666 100.534C193.549 100.739 193.473 100.966 193.445 101.2C193.416 101.435 193.435 101.673 193.5 101.9Z" fill="#263238"/>
<path d="M191.309 96.5298C191.599 96.6798 192.589 95.2398 194.469 94.5998C196.349 93.9598 198.059 94.4298 198.189 94.1298C198.249 93.9898 197.889 93.6598 197.139 93.4298C196.131 93.1417 195.058 93.1731 194.069 93.5198C193.087 93.8545 192.236 94.4916 191.639 95.3398C191.219 95.9998 191.159 96.4598 191.309 96.5298Z" fill="#263238"/>
<path d="M210.49 96.8499C210.643 97.3057 210.968 97.6837 211.396 97.904C211.823 98.1243 212.32 98.1694 212.78 98.0299C213.008 97.972 213.223 97.8689 213.411 97.7266C213.598 97.5843 213.756 97.4057 213.873 97.2015C213.991 96.9972 214.066 96.7715 214.095 96.5376C214.123 96.3037 214.105 96.0665 214.04 95.8399C213.891 95.3808 213.567 94.9987 213.139 94.7761C212.71 94.5535 212.211 94.5082 211.75 94.6499C211.521 94.7089 211.307 94.8131 211.119 94.9564C210.931 95.0997 210.773 95.2791 210.656 95.4842C210.539 95.6892 210.463 95.9157 210.435 96.1502C210.406 96.3848 210.425 96.6227 210.49 96.8499Z" fill="#263238"/>
<path d="M209.6 91.0899C209.9 91.2399 210.89 89.7999 212.77 89.1599C214.65 88.5199 216.36 88.9899 216.48 88.6899C216.55 88.5499 216.19 88.2199 215.48 87.9899C214.472 87.7018 213.399 87.7332 212.41 88.0799C211.431 88.4146 210.583 89.052 209.99 89.8999C209.51 90.5399 209.46 90.9999 209.6 91.0899Z" fill="#263238"/>
<path d="M208.119 107.42C207.02 107.449 205.928 107.614 204.869 107.91C204.369 108.03 203.869 108.09 203.689 107.79C203.479 107.305 203.42 106.769 203.519 106.25C203.579 104.93 203.629 103.55 203.689 102.11C203.879 96.2199 203.839 91.4399 203.599 91.4299C203.359 91.4199 203.019 96.1999 202.829 102.09C202.829 103.54 202.759 104.92 202.729 106.24C202.625 106.933 202.766 107.641 203.129 108.24C203.254 108.38 203.409 108.491 203.581 108.566C203.754 108.64 203.941 108.676 204.129 108.67C204.422 108.651 204.711 108.594 204.989 108.5C206.074 108.273 207.125 107.911 208.119 107.42Z" fill="#263238"/>
<path d="M208.36 86.8999C208.76 87.2999 210.21 86.2699 212.19 85.5799C214.17 84.8899 215.95 84.6899 215.97 84.1299C215.97 83.8699 215.49 83.5499 214.65 83.3899C213.575 83.2134 212.472 83.3202 211.45 83.6999C210.437 84.0553 209.536 84.6729 208.84 85.4899C208.32 86.1499 208.17 86.6999 208.36 86.8999Z" fill="#263238"/>
<path d="M188.849 89.43C189.379 89.73 190.779 88.78 192.619 88.16C194.459 87.54 196.139 87.33 196.349 86.76C196.439 86.49 196.049 86.14 195.229 85.96C194.119 85.7579 192.975 85.8616 191.919 86.26C190.858 86.6166 189.914 87.2563 189.189 88.11C188.679 88.76 188.609 89.28 188.849 89.43Z" fill="#263238"/>
<path d="M232.299 90.7199C232.479 90.5499 239.869 85.3399 242.469 93.8099C245.069 102.28 235.999 103.14 235.999 102.9C235.999 102.66 232.299 90.7199 232.299 90.7199Z" fill="#FFBF9D"/>
<path d="M237.55 98.8999C237.55 98.8999 237.73 98.9599 238.01 98.9999C238.407 99.0372 238.804 98.9228 239.12 98.6799C239.92 98.0799 240.23 96.4199 239.8 94.8899C239.604 94.151 239.242 93.4668 238.74 92.8899C238.579 92.6495 238.362 92.4519 238.108 92.3143C237.853 92.1766 237.569 92.1031 237.28 92.0999C237.097 92.1055 236.922 92.176 236.787 92.2987C236.651 92.4215 236.564 92.5885 236.54 92.7699C236.54 93.0399 236.6 93.1999 236.54 93.2199C236.48 93.2399 236.32 93.1399 236.28 92.7699C236.262 92.5435 236.322 92.3177 236.45 92.1299C236.63 91.884 236.899 91.7188 237.2 91.6699C237.568 91.63 237.941 91.6864 238.281 91.8336C238.621 91.9809 238.917 92.2139 239.14 92.5099C239.728 93.1304 240.153 93.886 240.38 94.7099C240.85 96.4299 240.47 98.2999 239.38 99.0299C239.173 99.1663 238.938 99.2542 238.692 99.2871C238.446 99.32 238.196 99.297 237.96 99.2199C237.63 99.0999 237.53 98.9299 237.55 98.8999Z" fill="#FF9A6C"/>
<path d="M188.149 76.3098C186.549 75.9598 189.339 70.3098 192.259 67.7398C196.679 63.9098 204.049 60.1598 209.149 60.0898C215.289 60.0098 220.839 61.4298 225.219 65.7298C229.523 70.1666 232.571 75.6677 234.049 81.6698C234.651 83.4534 234.772 85.3645 234.399 87.2098C233.769 89.4398 231.849 91.2998 232.719 93.8598C232.89 94.3203 232.968 94.81 232.949 95.3008C232.93 95.7916 232.815 96.2738 232.609 96.7198C231.549 98.8298 229.189 97.8398 227.849 96.5498C224.989 93.7798 223.599 89.8698 222.299 86.1098C221.232 83.4866 220.6 80.7067 220.429 77.8798C220.429 76.3398 220.689 74.7998 220.599 73.2598C220.601 72.4903 220.436 71.7295 220.114 71.0302C219.793 70.3309 219.324 69.7098 218.739 69.2098C218.455 69.0163 218.153 68.849 217.839 68.7098C216.343 68.0357 214.694 67.773 213.063 67.9488C211.432 68.1245 209.877 68.7325 208.559 69.7098C204.279 72.8198 196.869 77.7798 194.249 76.7998C190.489 75.3798 189.299 74.0698 189.299 74.0698L188.149 76.3098Z" fill="#263238"/>
<path d="M214.449 106.82C214.159 106.88 214.719 108.82 213.449 110.71C212.179 112.6 210.039 112.98 210.109 113.26C210.109 113.39 210.679 113.5 211.569 113.26C212.715 112.945 213.713 112.237 214.389 111.26C215.037 110.317 215.291 109.158 215.099 108.03C214.939 107.19 214.579 106.77 214.449 106.82Z" fill="#263238"/>
<path d="M232.61 96.72C232.61 96.72 233.67 116.94 223.72 124.12L222.42 123.71C222.42 123.71 231.55 114.71 230.97 97.24L232.61 96.72Z" fill="#263238"/>
<path d="M199 127.87C199 127.87 208.11 119.69 224.44 123.36C224.44 123.36 221.17 129.74 211.97 131.69C204.92 133.19 199 128 199 127.87Z" fill="#263238"/>
<path d="M205.309 132.8C202.029 132.821 198.77 132.269 195.679 131.17L195.149 130.99C192.369 130.1 183.999 114.43 183.569 112.36C183.079 110 185.349 99.72 185.569 98.56L186.569 98.78C185.869 101.88 184.149 110.34 184.569 112.16C185.079 114.65 193.439 129.39 195.469 130.04L196.009 130.22C198.589 131.07 203.389 132.66 211.949 131.22C220.949 129.68 229.669 121.37 231.259 118.31C232.499 115.93 235.179 98.06 236.419 88.95L237.419 89.09C237.269 90.17 233.789 115.64 232.159 118.77C230.449 122.05 221.569 130.58 212.159 132.21C209.897 132.601 207.605 132.798 205.309 132.8Z" fill="#E0E0E0"/>
<path d="M184.44 112.58L183.67 111.94C183.95 111.61 190.67 103.74 209.81 102.13C228.95 100.52 233.91 106.84 234.11 107.13L233.3 107.72C233.25 107.66 228.47 101.58 209.89 103.14C191.31 104.7 184.51 112.5 184.44 112.58Z" fill="#E0E0E0"/>
<path d="M189.47 122.84L189 122C195.621 118.551 202.815 116.338 210.23 115.47C222.5 114.03 230.81 118.73 231.15 118.93L230.65 119.8C224.354 116.72 217.291 115.559 210.34 116.46C203.054 117.306 195.983 119.468 189.47 122.84Z" fill="#E0E0E0"/>
<path d="M216.559 130C216.389 129.51 212.379 117.83 212.049 116.74C211.719 115.65 211.049 104.07 211.049 102.74L212.049 102.68C212.319 107.79 212.789 115.68 213.049 116.42C213.379 117.5 217.509 129.54 217.549 129.66L216.559 130Z" fill="#E0E0E0"/>
<path d="M207.61 132.43L199.61 118.29C198.61 116.58 196.02 105.81 195.91 105.35L196.91 105.11C197.66 108.2 199.77 116.48 200.51 117.8L208.51 131.94L207.61 132.43Z" fill="#E0E0E0"/>
<path d="M199.649 132.11C199.399 131.74 193.489 123.03 192.229 120.99C191.759 120.23 186.819 110.36 186.609 109.94L187.499 109.49C189.269 113.03 192.719 119.88 193.079 120.49C194.329 122.49 200.419 131.49 200.479 131.57L199.649 132.11Z" fill="#E0E0E0"/>
<path d="M225.139 125.55L224.139 125.46C224.385 122.654 224.782 119.863 225.329 117.1C225.939 114.71 226.819 104.41 226.829 104.3C226.979 102.53 227.329 98.3699 227.379 98.1099L228.379 98.3299L227.889 98.2199L228.379 98.3199C228.379 98.5899 228.029 102.19 227.849 104.39C227.849 104.82 226.949 114.88 226.319 117.39C225.79 120.089 225.396 122.812 225.139 125.55Z" fill="#E0E0E0"/>
<path d="M205.369 57.57L214.489 58.11C214.786 58.1299 215.077 58.201 215.349 58.32C217.349 59.32 225.179 60.2 228.219 65.32C230.379 68.94 233.789 74.25 235.159 78.52C235.287 78.937 235.3 79.3811 235.195 79.8046C235.089 80.228 234.871 80.6148 234.562 80.9233C234.254 81.2319 233.867 81.4504 233.444 81.5556C233.02 81.6607 232.576 81.6484 232.159 81.52C229.304 80.4607 226.256 80.0243 223.219 80.24C211.489 81.34 195.459 83.89 188.509 85.41C186.859 85.76 185.199 85.18 185.459 83.51C186.029 79.81 186.939 74.21 187.459 72.39C188.179 69.93 193.249 64.5 194.459 63.23C194.628 63.0469 194.828 62.8947 195.049 62.78L204.109 57.86C204.494 57.6479 204.93 57.5475 205.369 57.57Z" fill="#EF6957"/>
<path d="M190.789 77.5098C195.629 76.1298 206.919 75.1798 212.559 75.9798C216.351 76.6321 219.987 77.9888 223.279 79.9798L185.109 86.5598L177.439 88.3398C180.459 83.5198 185.999 78.8898 190.789 77.5098Z" fill="#EF6957"/>
<path d="M183.889 81.17C184.328 80.8514 184.793 80.5704 185.279 80.33C186.189 79.82 187.539 79.14 189.279 78.33C191.289 77.4526 193.365 76.737 195.489 76.19C198.106 75.5396 200.792 75.2039 203.489 75.19C208.374 75.0552 213.251 75.6724 217.949 77.02C219.365 77.4555 220.732 78.0352 222.029 78.75C222.373 78.9419 222.707 79.1522 223.029 79.38C223.149 79.4538 223.259 79.541 223.359 79.64C222.863 79.4292 222.379 79.1922 221.909 78.93C220.588 78.298 219.216 77.7762 217.809 77.37C213.131 76.1442 208.303 75.5853 203.469 75.71C200.813 75.7106 198.166 76.016 195.579 76.62C193.473 77.1353 191.408 77.8038 189.399 78.62C187.679 79.33 186.319 79.96 185.399 80.41C184.92 80.7088 184.414 80.9632 183.889 81.17Z" fill="#263238"/>
<path d="M235.839 83.4499L236.349 88.9799L231.999 90.8899C231.999 90.8899 232.049 97.1299 229.689 98.0099C227.329 98.8899 225.109 97.0699 225.109 97.0699L224.369 79.8399C224.369 79.8399 232.039 77.6399 231.989 77.9499C231.939 78.2599 235.839 83.4499 235.839 83.4499Z" fill="#EF6957"/>
<path d="M200.129 71.6398C200.154 69.4073 200.491 67.1893 201.129 65.0498C201.59 62.8709 202.361 60.7694 203.419 58.8098C203.559 58.8098 202.519 61.6498 201.629 65.1798C200.739 68.7098 200.289 71.6498 200.129 71.6398Z" fill="#263238"/>
<path d="M185.219 76.9999C185.507 76.2377 185.88 75.5099 186.329 74.8299C187.079 73.5299 188.169 71.7599 189.449 69.8299C190.729 67.8999 191.939 66.2299 192.849 65.0299C193.305 64.3559 193.831 63.7324 194.419 63.1699C194.067 63.9041 193.641 64.601 193.149 65.2499L189.879 70.1199C188.669 71.9399 187.579 73.5899 186.649 75.0099C186.24 75.7192 185.761 76.3858 185.219 76.9999Z" fill="#263238"/>
<path d="M223.389 69.4099C223.249 69.4699 221.979 66.6799 219.789 63.6399C217.599 60.5999 215.379 58.4699 215.499 58.3599C216.08 58.7014 216.604 59.1335 217.049 59.6399C218.211 60.7724 219.269 62.0074 220.209 63.3299C221.158 64.6504 221.988 66.0526 222.689 67.5199C223.017 68.1107 223.253 68.748 223.389 69.4099Z" fill="#263238"/>
<path d="M237.679 88.7599C237.529 88.8999 235.679 85.5399 231.789 83.0999C227.899 80.6599 224.089 80.4399 224.139 80.2399C224.96 80.1909 225.783 80.272 226.579 80.48C230.51 81.2527 234.014 83.4588 236.409 86.6699C236.942 87.2935 237.371 87.9993 237.679 88.7599Z" fill="#263238"/>
<path d="M304.679 182.25L304.129 182.53L302.519 183.31L296.289 186.23C288.55 189.613 280.639 192.591 272.589 195.15C260.638 198.918 248.438 201.845 236.079 203.91L233.449 204.37L230.779 204.75L225.339 205.51C221.669 206.01 217.899 206.32 214.079 206.75C206.409 207.33 198.449 207.83 190.279 207.75C174.926 207.875 159.592 206.634 144.459 204.04C137.852 202.898 131.364 201.147 125.079 198.81C119.575 196.793 114.419 193.929 109.799 190.32C107.849 188.666 106.073 186.816 104.499 184.8C103.139 182.971 101.995 180.991 101.089 178.9C99.6308 175.524 99.1458 171.807 99.6888 168.17C100.115 165.899 100.978 163.732 102.229 161.79L103.319 160.37L103.699 159.89C103.699 159.89 103.589 160.07 103.359 160.4L102.359 161.85C101.162 163.8 100.341 165.957 99.9388 168.21C99.4391 171.801 99.9445 175.459 101.399 178.78C102.311 180.845 103.459 182.798 104.819 184.6C106.384 186.586 108.15 188.406 110.089 190.03C114.685 193.595 119.81 196.419 125.279 198.4C131.545 200.718 138.013 202.449 144.599 203.57C159.706 206.127 175.008 207.352 190.329 207.23C198.479 207.23 206.419 206.77 214.079 206.23C217.899 205.81 221.659 205.5 225.329 205.01L230.759 204.26L233.429 203.88L236.049 203.43C248.392 201.389 260.581 198.502 272.529 194.79C282.749 191.67 290.729 188.29 296.259 186.04L302.519 183.2L304.159 182.47C304.479 182.32 304.679 182.25 304.679 182.25Z" fill="#263238"/>
<path d="M160.65 213.28C160.424 213.306 160.196 213.306 159.97 213.28H158.03C156.34 213.28 153.89 213.12 150.88 212.89C143.02 212.263 135.217 211.067 127.53 209.31C123.03 208.31 118.78 207.1 114.97 205.9C111.16 204.7 107.76 203.46 104.97 202.31C103.56 201.76 102.31 201.21 101.21 200.73C100.11 200.25 99.2106 199.83 98.4006 199.46L96.6506 198.6C96.4424 198.512 96.2444 198.401 96.0605 198.27C96.2799 198.333 96.494 198.413 96.7006 198.51L98.4905 199.27C99.2605 199.62 100.21 200.02 101.32 200.46C102.43 200.9 103.69 201.46 105.11 201.96C107.92 203.07 111.32 204.23 115.11 205.44C118.9 206.65 123.11 207.77 127.64 208.81C135.309 210.546 143.082 211.785 150.91 212.52C153.91 212.8 156.35 212.99 158.04 213.08L159.98 213.21C160.205 213.219 160.428 213.242 160.65 213.28Z" fill="#263238"/>
</g>
</g>
</g>
<defs>
<clipPath id="clip0_1_13">
<rect width="470" height="427" fill="white"/>
</clipPath>
</defs>
</svg>
